<?xml version="1.0" encoding="utf-8"?>
<!-- Generator: Adobe Illustrator 23.1.0, SVG Export Plug-In . SVG Version: 6.00 Build 0)  -->
<svg version="1.1" id="Layer_1" xmlns="http://www.w3.org/2000/svg" xmlns:xlink="http://www.w3.org/1999/xlink" x="0px" y="0px"
	 viewBox="0 0 1200 1200" enable-background="new 0 0 1200 1200" xml:space="preserve">
<g>
	<g>
		<path fill="#C9AD98" d="M712.828,183.134c14.824,12.548,24.089,29.092,32.147,46.459c0.471,1.015,0.788,2.104,1.281,3.107
			c15.138,30.837,25.249,63.415,33.459,96.648c6.445,26.091,28.75,115.166,33.626,133.568c0.702,2.65,2.179,5.094,3.444,7.969
			c2.228,0.408,4.373,1.123,6.52,1.132c6.159,0.027,12.32-0.357,18.48-0.357c21.253,0.002,41.007,5.832,59.144,16.593
			c11.542,6.849,22.457,14.761,33.596,22.281c2.313,1.562,4.475,3.385,6.54,5.271c22.885,20.902,43.173,43.849,57.893,71.444
			c10.332,19.368,18.779,39.4,24.5,60.593c2.48,9.189,4.982,18.38,7.775,27.477c5.623,18.316,7.94,37.193,9.927,56.138
			c0.29,2.764,0.374,5.55,0.44,6.58c1.763,5.401,5.989,5.381,6.88,6.419c3.956,4.609,4.822,8.478,5.224,12.349
			c1.048,10.091,0.725,20.122-1.963,30.01c-1.973,7.259-5.125,13.584-11.934,17.551c-1.409,0.821-2.49,2.203-3.911,3.501
			c-4.452,17.918-12.051,34.711-20.909,50.997c-7.632,14.032-17.668,25.858-31.151,34.595c-5.17,3.35-10.415,6.584-15.55,9.985
			c-15.253,10.103-32.258,12.335-49.927,10.673c-10.052-0.946-20.037-2.844-28.386-9.275c-7.367-5.675-16.024-7.926-24.944-9.155
			c-8.396-1.157-16.373-3.583-24.297-6.426c-7.971-2.86-15.505-6.43-22.081-11.871c-1.259-1.042-2.815-1.724-4.481-2.72
			c-1.432,0.672-3.325,0.989-4.244,2.107c-2.12,2.578-3.79,5.531-5.605,8.355c-21.594,33.611-49.488,60.711-84.254,80.431
			c-20.586,11.676-42.611,19.647-65.989,24.012c-13.793,2.575-27.76,3.512-41.609,5.49c-8.811,1.258-17.799,0.367-26.75-1.101
			c-19.889-3.263-39.841-6.032-60.158-4.772c-11.167,0.693-22.401,0.334-33.605,0.421c-12.428,0.096-24.55-1.922-36.377-5.628
			c-8.011-2.51-15.987-5.152-23.88-8.008c-10.002-3.619-19.879-7.584-29.855-11.275c-19.536-7.229-37.704-17.143-55.307-28.146
			c-12.505-7.817-22.883-17.858-31.375-29.977c-12.643-18.044-21.695-37.852-29.414-58.344c-2.184-5.799-3.232-11.864-3.58-18.066
			c-0.216-3.856,0.164-7.819-1.26-11.288c-1.225-0.777-2.116-1.797-3.077-1.869c-3.329-0.248-6.696-0.375-10.025-0.171
			c-11.959,0.734-23.472-1.497-34.609-5.496c-17.567-6.308-33.833-14.855-46.666-28.898c-3.4-3.721-6.919-7.337-10.451-10.935
			c-10.408-10.602-17.329-23.253-22.366-37.123c-2.155-5.933-3.008-11.91-2.64-18.131c0.236-3.981,1.053-7.84,3.717-10.946
			c3.009-3.508,4.774-7.522,5.69-11.994c7.203-35.166,29.482-58.177,60.1-74.425c2.963-1.572,6.091-2.837,9.16-4.205
			c24.552-10.941,49.284-21.499,73.61-32.92c20.808-9.77,40.844-20.986,58.182-36.446c9.233-8.232,17.914-16.94,25.136-27.008
			c7.182-10.013,34.545-48.287,41.296-57.225c2.694-3.567,5.829-6.803,8.777-10.177c8.735-9.993,19.687-16.476,32.296-20.291
			c2.674-0.809,5.373-1.779,8.122-2.051c7.612-0.752,12.041-5.458,15.21-11.745c4.282-8.497,8.656-16.964,12.524-25.651
			c8.429-18.932,16.757-37.889,26.918-56.001c7.956-14.182,14.143-29.234,20.508-44.175c14.497-34.033,30.377-67.398,48.315-99.751
			c5.152-9.293,10.794-18.351,16.757-27.147c7.9-11.655,17.52-21.797,29.139-30.357c5.27-1.215,10.664-2.779,16.168-3.652
			c7.817-1.241,15.562-0.965,23.159,1.943c8.956,3.427,15.105,9.53,18.377,18.397c1.739,4.712,2.889,9.652,4.152,14.528
			C709.933,170.919,711.318,176.918,712.828,183.134z"/>
	</g>
	<g>
		<path fill="#FC9D47" d="M313.942,370.661c-2.344-1.607-4.82-2.95-6.861-4.781c-3.715-3.332-7.172-6.951-10.127-9.851
			c-3.469-6.352-1.862-11.654,0.732-16.719c2.572-5.023,6.322-9.158,10.907-12.482c2.224-1.612,4.505-3.146,6.656-4.644
			c1.535-7.978,2.956-15.623,4.5-23.242c0.562-2.773,1.937-5.145,4.107-7.081c1.987-1.773,6.172-1.234,7.311,0.952
			c2.104,4.04,3.028,8.376,3.264,12.844c0.265,5.006,0.152,10.033,0.418,15.039c0.115,2.171,0.764,4.314,1.236,6.816
			c2.652,1.099,5.134,2.285,7.719,3.165c4.489,1.528,7.533,4.673,9.893,8.559c2.171,3.575,2.679,7.273-0.52,11.672
			c-2.236,1.089-5.21,2.538-8.226,4.007c-0.658,0.815-1.593,1.573-2.007,2.551c-3.026,7.151-5.229,14.688-11.258,20.252
			c-1.517,1.4-2.124,3.855-2.964,5.901c-0.844,2.055-1.365,4.242-2.198,6.303c-0.82,2.028-1.712,4.053-4.127,4.803
			c-1.672,0.519-3.515-1.913-4.442-6.167c-0.592-2.719-1.051-5.467-1.548-8.207c-0.398-2.192-0.737-4.396-1.158-6.584
			C315.147,373.232,314.829,372.738,313.942,370.661z"/>
	</g>
	<g>
		<path fill="#FC9D47" d="M452.351,234.371c4.558-0.331,7.258,2.22,8.952,6.053c0.662,1.498,1.054,3.187,1.21,4.823
			c0.38,3.98,1.754,7.494,3.931,10.845c1.807,2.781,3.314,5.785,4.698,8.807c2.459,5.366,0.008,11.149-5.757,13.688
			c-2.014,0.887-4.181,1.427-6.734,2.277c-1.09,2.217-2.111,4.789-3.549,7.101c-2.218,3.568-7.008,4.358-10.196,1.881
			c-1.311-1.018-2.675-2.018-3.787-3.234c-4.168-4.556-7.368-9.775-9.822-15.414c-2.075-4.769-2.633-9.641,0.339-14.965
			c2.044-1.839,4.508-4.055,7.099-6.386C440.689,242.545,444.947,237.071,452.351,234.371z"/>
	</g>
	<g>
		<path fill="#876C5C" d="M1042.116,740.96c2.625,1.904,5.296,3.84,8.438,6.118c5.591,14.472,4.184,29.292-0.452,44.005
			c-1.524,4.836-4.425,9.038-8.814,11.99c-1.839,1.237-3.542,2.677-5.213,3.953c-1.63,5.058-3.144,9.854-4.719,14.629
			c-4.76,14.429-11.339,28.037-18.923,41.157c-6.542,11.317-15.343,20.704-25.886,28.356c-5.885,4.271-12.127,8.058-18.28,11.95
			c-16.949,10.724-35.387,12.952-54.896,9.898c-8.437-1.321-16.471-3.33-23.435-8.47c-7.431-5.485-15.908-8.2-24.934-9.2
			c-6.181-0.684-12.108-2.219-17.977-4.129c-14.192-4.62-18.245-6.735-32.761-17.126c-2.404,0.557-4.99,1.157-8.066,1.87
			c-14.2-17.479-25.606-36.543-31.725-58.47c-5.913-21.191-8.803-42.77-7.542-64.813c0.128-2.238,0.16-4.49,0.443-6.708
			c1.487-11.664,3.269-23.295,4.524-34.983c2.932-27.292,5.847-54.581,5.227-82.123c-0.279-12.427-2.746-24.468-4.952-36.58
			c-2.307-12.668-4.736-25.315-7.204-37.954c-1.407-7.205-1.462-14.471-1.426-21.764c0.028-5.728,1.51-11.094,3.833-16.24
			c4.023-8.911,10.335-15.949,18.33-21.455c4.192-2.887,8.888-4.747,13.961-5.499c8.31-1.232,16.634-2.364,24.935-3.654
			c8.301-1.29,16.625-2.499,24.854-4.164c6.009-1.216,12.02-2.678,17.075-5.93c10.137,1.151,19.056,4.592,27.375,9.163
			c25.156,13.826,48.708,29.76,67.794,51.708c11.049,12.706,22.23,25.227,30.736,39.859c12.432,21.383,23.181,43.464,29.348,67.601
			c3.187,12.475,7.113,24.762,10.648,37.15c2.77,9.707,4.918,19.519,5.89,29.614C1039.285,720.73,1040.804,730.686,1042.116,740.96z
			"/>
	</g>
	<g>
		<path fill="#EC7862" d="M500.753,463.72c-3.546-1.018-5.706-1.602-7.844-2.257c-8.357-2.56-15.164-13.251-10.122-24.912
			c1.326-3.066,3.046-5.998,4.877-8.8c2.446-3.745,5.177-7.303,8.099-11.38c0.919-6.284,3.476-12.471,6.441-18.53
			c1.969-4.022,3.733-8.145,5.511-12.257c6.673-15.432,13.661-30.717,21.813-45.434c9.248-16.696,16.558-34.294,24.328-51.683
			c8.456-18.923,16.701-37.955,25.778-56.579c8.095-16.609,16.932-32.874,25.934-49.016c8.493-15.229,18.672-29.302,31.64-41.145
			c2.885-2.635,5.989-5.032,9.086-7.617c5.462-1.242,10.872-2.684,16.364-3.669c7.834-1.405,15.542-1.134,23.12,1.925
			c9.458,3.818,15.909,10.285,18.856,20.053c1.455,4.821,2.575,9.744,3.83,14.626c1.393,5.418,2.767,10.841,4.111,16.113
			c14.018,12.227,23.182,27.52,30.773,43.906c0.236,0.508,0.494,1.006,0.744,1.508c17.592,35.331,28.704,72.89,38.114,111.026
			c6.843,27.731,29.398,117.341,29.741,118.984c1.043,5.001-1.638,8.554-7.035,9.287c-2.216,0.301-4.45,0.655-6.676,0.662
			c-5.631,0.019-11.152-0.747-16.537-2.534c-5.314-1.764-10.703-3.303-16.052-4.962c-21.454-6.652-43.324-11.265-65.646-13.876
			c-12.786-1.496-25.465-4.037-38.276-5.15c-21.236-1.845-42.492-2.013-63.716,1.066c-14.415,2.091-28.764,4.462-43.094,7.058
			c-11.608,2.103-22.946,5.127-34.273,8.305C514.184,460.247,507.678,461.886,500.753,463.72z"/>
	</g>
	<g>
		<path fill="#876C5C" d="M260.331,813.047c-1.177,0.904-2.052,1.575-3.298,2.531c-9.886,0.237-19.586-2.356-28.84-6.313
			c-7.696-3.291-15.037-7.421-22.482-11.281c-1.975-1.024-3.89-2.266-5.598-3.689c-12.944-10.785-24.864-22.612-34.642-36.361
			c-5.867-8.25-9.659-17.678-12.749-27.291c-2.091-6.505-2.024-13.23-0.369-20.7c1.109-1.709,2.485-4.146,4.17-6.347
			c2.095-2.735,3.376-5.765,4.136-9.074c0.876-3.812,1.588-7.674,2.693-11.42c5.91-20.044,18.138-35.816,34.015-48.851
			c9.095-7.467,19.141-13.566,30.004-18.311c23.069-10.076,46.012-20.438,69.077-30.523c15.428-6.746,30.193-14.788,44.253-23.923
			c16.969-11.025,32.096-24.379,44.362-40.635c7.076-9.377,13.722-19.078,20.589-28.613c7.193-9.988,14.244-20.086,21.702-29.873
			c4.056-5.323,8.689-10.232,13.318-15.083c4.255-4.46,9.098-8.239,14.776-10.461c1.503,0.135,2.135,0.906,1.716,2.204
			c-0.685,2.121-1.355,4.282-2.357,6.261c-16.689,32.959-31.617,66.731-46.414,100.562c-5.168,11.816-11.15,23.229-17.783,34.243
			c-13.965,23.187-31.089,43.803-52.256,60.807c-9.192,7.384-17.832,15.295-25.936,23.828
			c-11.647,12.264-21.128,26.052-28.904,41.04c-8.338,16.071-13.381,33.166-15.588,51.093c-1.435,11.654-3.38,23.241-3.937,35.014
			C263.646,799.135,261.901,806.247,260.331,813.047z"/>
	</g>
	<g>
		<path fill="#FFFFFF" d="M507.784,386.495c2.647-7.988,6.005-15.071,9.677-21.967c2.087-3.919,4.817-7.544,7.596-11.032
			c2.499-3.136,5.942-5.133,9.967-5.764c3.31-0.519,6.659-1.056,9.996-1.096c13.461-0.163,26.868,0.697,40.163,2.885
			c19.888,3.273,39.661,7.197,59.261,11.848c31.094,7.377,61.612,16.588,90.602,30.338c18.828,8.93,36.288,19.966,52.203,33.413
			c6.426,5.43,12.478,11.26,17.439,18.114c3.752,5.184,5.392,10.966,5.026,17.381c-0.522,9.146-7.925,16.845-17.146,17.756
			c-5.662,0.56-11.21,0.005-16.574-1.797c-4.241-1.425-8.402-3.105-12.537-4.82c-4.136-1.715-8.227-3.547-12.282-5.444
			c-20.344-9.517-41.315-17.129-63.253-22.209c-15.278-3.537-30.066-8.88-44.692-14.524c-25.102-9.688-50.916-17.178-76.625-24.961
			c-12.304-3.725-24.914-6.45-37.754-7.982c-4.97-0.593-9.867-1.979-14.718-3.294c-1.523-0.413-2.916-1.636-4.126-2.752
			C509.246,389.887,508.939,388.695,507.784,386.495z"/>
	</g>
	<g>
		<path fill="#FFFFFF" d="M585.769,229.674c0-2.571,0-5.345,0-8.198c3.168-8.405,7.886-16.045,11.951-24.007
			c2.404-4.709,6.252-7.942,10.904-10.078c13.005-5.971,26.501-8.557,40.848-5.949c45.318,8.239,78.864,33.005,101.894,72.462
			c3.656,6.263,6.755,12.915,9.461,19.648c2.084,5.185,3.9,10.438,6.485,15.442c3.094,5.988,5.086,12.415,5.612,19.225
			c0.393,5.088-3.062,10.024-8.053,11.367c-6.9,1.856-13.377,0.963-19.127-3.347c-2.671-2.002-5.118-4.354-7.437-6.768
			c-9.873-10.276-21.701-17.582-34.725-23.083c-20.744-8.761-42.242-14.741-64.639-17.375c-2.779-0.327-5.552-0.724-8.311-1.188
			c-12.261-2.06-24.526-1.814-36.807-0.199c-3.877,0.51-7.761,1.131-11.657,1.275c-2.168,0.08-4.45-0.475-6.54-1.169
			c-6.266-2.08-8.773-7.364-6.408-13.221c1.047-2.593,2.189-5.151,3.366-7.689C576.903,237.511,576.915,237.516,585.769,229.674z"/>
	</g>
	<g>
		<g>
			<path fill="#33252B" d="M809.256,883.217c-1.134,0.788-2.773,1.472-3.738,2.69c-2.079,2.623-3.805,5.525-5.689,8.304
				c-4.716,6.953-9.428,13.908-14.163,20.848c-9.612,14.087-21.8,25.569-36.077,34.752c-21.724,13.972-44.36,26.215-68.946,34.485
				c-20.251,6.812-40.965,11.405-62.369,12.532c-10.067,0.53-20.138,1.026-30.193,1.733c-1.465,0.103-2.852,1.314-4.68,2.211
				c1.239,1.615,1.986,3.199,3.227,4.105c6.787,4.95,41.591,29.464,51.92,37.158c3.088,2.3,5.628,5.38,8.2,8.297
				c0.571,0.648,0.378,2.132,0.248,3.195c-0.195,1.592-1.928,2.742-3.574,2.972c-2.926,0.409-5.669-0.25-8.018-1.774
				c-7.039-4.569-13.977-9.298-20.882-14.07c-5.059-3.497-9.982-7.19-15.014-10.726c-1.078-0.757-2.247-0.499-2.904,0.523
				c-0.244,0.38-0.2,1.207,0.058,1.608c2.424,3.76,4.867,7.511,7.412,11.19c6.389,9.236,12.126,18.86,16.637,29.141
				c2.241,5.107,4.128,10.425,5.587,15.807c1.966,7.249,1.242,14.452-2.011,21.301c-3.157,6.648-8.425,10.266-15.776,10.803
				c-5.153,0.376-9.968-0.665-14.581-3.08c-6.564-3.436-12.09-8.107-16.83-13.708c-5.436-6.424-10.352-13.236-14.424-20.625
				c-5.951-10.797-11.602-21.728-15.859-33.342c-0.92-2.509-1.509-5.453-4.347-6.829c-2.959,1.333-3.802,4.133-4.437,6.789
				c-2.733,11.433-15.188,69.451-18.923,86.972c-0.699,3.279-1.711,6.499-2.722,9.7c-0.323,1.022-0.936,2.109-1.74,2.777
				c-0.769,0.64-2.001,1.14-2.951,1.029c-0.946-0.111-2.188-0.863-2.597-1.685c-0.718-1.441-1.3-3.167-1.23-4.742
				c0.199-4.463,0.433-8.968,1.226-13.353c4.785-26.437,9.239-52.938,15.173-79.156c0.739-3.265,1.084-6.622,1.52-9.948
				c0.058-0.442-0.4-1.342-0.678-1.367c-0.994-0.089-2.432-0.287-2.952,0.264c-2.674,2.834-5.138,5.87-7.635,8.87
				c-6.088,7.316-11.863,14.917-18.297,21.913c-9.184,9.984-19.975,17.915-32.528,23.346c-4.699,2.033-9.527,3.229-14.6,3.575
				c-9.023,0.615-14.829-3.646-16.877-12.796c-0.596-2.661-0.756-5.606-0.304-8.284c2.292-13.551,8.261-25.507,16.66-36.265
				c10.41-13.333,22.514-24.915,36.378-34.643c4.116-2.888,8.193-5.84,12.149-8.941c0.594-0.466,0.556-1.91,0.539-2.897
				c-0.006-0.363-0.767-0.971-1.235-1.025c-2.2-0.256-4.42-0.527-6.628-0.486c-7.278,0.136-14.553,0.547-21.831,0.595
				c-19.338,0.127-37.79-4.383-55.582-11.534c-17.688-7.109-34.739-15.592-51.026-25.547c-31.074-18.992-53.888-45.118-68.082-78.73
				c-6.124-14.501-10.516-29.515-13.812-44.88c-0.584-2.722-1.128-5.521-2.256-8.029c-0.602-1.339-2.279-2.717-3.709-3.048
				c-2.671-0.617-5.514-0.61-8.289-0.643c-30.641-0.358-58.237-9.36-82.867-27.909c-16.823-12.669-27.94-29.165-33.649-48.973
				c-8.879-30.807-3.917-59.93,13.736-86.692c8.406-12.744,19.02-23.507,31.622-32.184c15.713-10.82,32.183-20.368,49.521-28.341
				c15.261-7.018,30.654-13.75,45.985-20.615c16.418-7.352,31.752-16.569,46.541-26.772c20.449-14.108,38.375-30.883,53.761-50.364
				c7.985-10.11,15.623-20.499,23.763-30.482c5.653-6.933,11.692-13.586,17.953-19.977c3.494-3.566,7.588-6.658,11.777-9.407
				c7.634-5.011,16.028-7.932,25.345-7.595c2.78,0.1,5.566,0.016,8.748,0.016c1.415-1.665,3.065-3.178,4.176-5.017
				c1.44-2.382,2.562-4.976,3.629-7.559c12.826-31.064,27.065-61.501,40.79-92.166c14.875-33.236,30.959-65.885,47.515-98.303
				c6.62-12.962,13.796-25.639,20.73-38.44c1.067-1.969,2.428-3.812,3.258-5.872c4.66-11.569,12.469-21.138,19.786-30.973
				c3.993-5.367,8.702-10.226,13.324-15.091c2.296-2.417,4.997-4.506,7.73-6.439c13.574-9.603,27.844-10.872,42.797-3.341
				c5.043,2.54,9.592,5.768,13.801,9.501c7.594,6.735,14.028,14.461,19.593,22.933c8.314,12.655,15.641,25.88,22.706,39.257
				c2.09,3.958,4.056,7.981,5.32,10.477c4.788,6.953,12.126,9.009,14.99,15.278c1.052,4.071-3.31,5.868-3.475,10.098
				c0.583,1.938,1.228,4.664,2.211,7.262c13.085,34.598,24.128,69.817,33.448,105.629c5.358,20.59,10.67,41.186,15.435,61.914
				c3.008,13.085,5.161,26.365,7.823,39.533c1.107,5.477,2.518,10.894,3.864,16.32c0.108,0.436,0.779,0.732,1.947,1.762
				c0.628,0.181,2.197,1.021,3.765,1.018c6.72-0.013,13.439-0.32,20.16-0.436c24.036-0.415,46.54,5.041,67.651,16.777
				c16.763,9.318,32.111,20.273,45.789,33.803c15.998,15.824,30.216,33.063,43.37,51.245c1.968,2.721,3.904,5.487,5.596,8.384
				c16.436,28.139,30.788,57.215,38.992,88.946c3.081,11.915,6.221,23.813,8.215,36.013c1.362,8.33,2.268,16.631,2.502,25.039
				c0.14,5.04,0.207,10.086,0.49,15.118c1.208,21.452-1.612,42.421-6.793,63.22c-5.481,22.003-14.495,42.198-27.533,60.825
				c-14.224,20.322-32.963,34.899-54.9,45.734c-16.657,8.227-34.192,10.051-52.369,6.486c-11.59-2.273-22.817-5.643-33.518-10.684
				c-2.533-1.193-5.08-2.357-7.604-3.569c-13.143-6.313-26.497-12.02-40.72-15.566c-4.862-1.212-9.489-3.362-14.237-5.045
				C815.062,884.393,812.511,883.154,809.256,883.217z M401.401,610.849c-4.915,0.938-5.013,0.86-6.231,2.408
				c-10.161,12.913-22.786,23.086-36.062,32.541c-5.019,3.574-9.988,7.224-15.106,10.651c-10.79,7.224-20.297,15.92-28.783,25.655
				c-22.393,25.686-31.704,56.167-32.213,89.759c1.501,16.721,1.911,33.544,5.324,50.082c3.402,16.485,7.447,32.737,13.819,48.38
				c12.231,30.028,32.287,53.618,59.159,71.333c20.666,13.623,43.045,23.932,66.557,31.73c13.927,4.619,28.187,7.24,42.894,7.221
				c9.525-0.012,19.05-0.028,28.575-0.027c3.359,0.001,6.734-0.153,10.075,0.108c14.517,1.135,29.083,1.92,43.519,3.731
				c18.994,2.383,38.018,2.016,57.059,2.001c3.918-0.003,7.886,0.063,11.745-0.493c21.639-3.115,43.017-7.12,63.554-15.179
				c21.53-8.449,41.362-19.88,60.672-32.353c4.656-3.007,9.416-6.119,12.746-11.924c0.13-2.59,0.103-5.945,0.516-9.246
				c0.486-3.883,1.059-7.802,2.117-11.558c2.186-7.756,1.896-15.523,0.719-23.328c-1.671-11.081-3.768-22.076-7.11-32.798
				c-2.999-9.623-5.893-19.28-9.018-28.861c-7.825-23.99-9.027-48.293-3.763-72.947c1.286-6.021,2.484-12.061,3.764-18.084
				c3.272-15.394,5.319-30.897,4.541-46.691c-0.248-5.034-0.092-10.087-0.283-15.125c-0.298-7.836-0.103-15.763-1.264-23.479
				c-1.674-11.128-2.249-22.287-2.716-33.478c-0.258-6.175-1.026-12.217-2.485-18.261c-1.17-4.848-1.618-9.962-1.687-14.967
				c-0.254-18.554,0.9-36.969,6.996-54.726c1.669-4.863,2.202-9.819,1.494-14.906c-0.462-3.315-0.957-6.626-1.403-9.702
				c-4.264-6.939-7.986-13.844-13.143-19.367c-1.873-0.947-3.323-1.816-4.874-2.431c-2.075-0.823-4.217-1.486-6.35-2.153
				c-30.869-9.665-62.729-11.23-94.721-11.211c-15.119,0.009-30.239,0.866-45.355,1.425c-5.596,0.207-11.216,0.382-16.767,1.055
				c-17.226,2.091-34.477,4.097-51.547,7.249c-12.534,2.314-24.506,1.359-35.995-4.384c-1.985-0.992-4.06-1.942-6.418-1.41
				c-0.53,0.168-1.151,0.212-1.575,0.525c-1.789,1.317-3.681,2.55-5.246,4.106c-11.356,11.291-18.84,25.079-24.352,39.852
				c-6.458,17.308-12.169,34.895-18.084,52.401c-0.491,1.453-0.065,3.217-0.065,5.174c2.401,1.47,4.754,2.925,7.121,4.358
				c4.046,2.451,6.42,6.102,7.757,10.56c1.974,6.584,2.055,13.137,0.737,19.913c-1.697,8.726-6.11,15.525-13.026,20.866
				c-6.016,4.646-12.889,4.159-18.07-1.392c-1.512-1.62-2.818-3.478-3.963-5.382C403.768,615.714,402.617,613.199,401.401,610.849z
				 M779.923,502.856c-11.111,20.333-14.964,40.831-12.743,62.656c1.813,17.818,3.542,35.657,4.721,53.526
				c2.552,38.673,1.002,77.243-4.296,115.629c-1.771,12.83-2.342,25.683-1.609,38.544c1.121,19.668,4.699,38.878,12.545,57.119
				c3.327,7.734,7.024,15.27,11.722,22.261c3.459,5.148,7.466,9.926,13.016,12.886c10.849,5.787,21.633,11.665,33.805,14.558
				c12.01,2.855,23.413,7.556,34.597,12.799c7.598,3.562,15.271,7.008,23.084,10.062c13.177,5.149,26.885,7.791,41.078,7.005
				c4.432-0.246,9.024-0.689,13.194-2.085c19.432-6.508,36.654-16.774,50.414-32.129c10.887-12.149,19.719-25.69,26.463-40.664
				c9.081-20.162,13.744-41.451,16.221-63.172c2.096-18.386,0.692-36.924-0.18-55.388c-0.079-1.669-0.385-3.341-0.717-4.985
				c-1.995-9.873-3.84-19.783-6.085-29.599c-7.173-31.363-20.257-60.417-35.069-88.772c-1.553-2.972-3.255-5.893-5.152-8.656
				c-14.936-21.75-31.34-42.237-50.67-60.344c-14.479-13.563-30.958-23.967-48.694-32.505c-7.054-3.396-14.478-5.877-22.217-7.503
				c-16.544-3.477-30.538-4.048-50.019-1.485c-2.969,1.55-5.938,3.099-9.138,4.77c-3.75,0-7.642,0-10.168,0
				C793.872,490.575,788.283,498.131,779.923,502.856z M457.371,446.998c-0.991-1.506-1.976-1.903-3.223-1.543
				c-4.435,1.278-7.943,4.095-11.298,7.065c-7.572,6.701-14.251,14.252-20.468,22.202c-4.484,5.733-8.67,11.702-13.227,17.373
				c-7.713,9.598-15.246,19.378-23.507,28.49c-22.833,25.183-50.151,44.575-80.205,60.143
				c-10.921,5.657-22.287,10.464-33.506,15.536c-7.649,3.458-15.429,6.628-23.089,10.062c-17.419,7.809-34.093,17.036-49.498,28.275
				c-20.008,14.598-34.661,33.218-40.653,57.83c-2.962,12.168-3.195,24.552-1.292,36.714c3.216,20.558,12.189,38.308,28.947,51.417
				c4.407,3.447,8.971,6.709,13.606,9.844c6.994,4.73,14.561,8.485,22.59,10.982c9.615,2.991,18.781,1.8,26.933-4.686
				c4.936-3.928,8.961-8.586,10.891-14.601c1.874-5.839,3.558-11.8,4.597-17.832c1.614-9.367,2.912-18.813,3.801-28.276
				c1.541-16.395,6.527-31.649,13.485-46.494c6.784-14.474,15.988-26.947,28.296-37.041c8.651-7.095,17.636-13.785,26.51-20.607
				c6.213-4.776,12.686-9.233,18.702-14.242c16.129-13.43,29.348-29.179,37.657-48.699c2.191-5.148,4.628-10.195,6.73-15.379
				c4.626-11.409,9.15-22.861,13.643-34.324c5.109-13.037,10.514-25.938,17.009-38.358c5.751-10.997,12.676-21.106,22.085-29.36
				C454.5,450.072,455.933,448.448,457.371,446.998z M533.747,338.909c4.366,2.328,4.369,2.368,7.592,2.151
				c25.276-1.702,50.271,1.759,75.227,4.69c21.642,2.542,43.015,7.074,64.149,12.459c35.031,8.925,67.745,22.877,96.388,45.419
				c2.635,2.074,5.376,4.016,8.101,5.974c0.9,0.647,1.843,1.354,2.877,1.659c0.977,0.289,2.353,0.474,3.086-0.007
				c0.744-0.488,1.428-1.947,1.262-2.812c-4.207-21.973-10.585-43.424-15.756-65.166c-1.785-7.503-5.688-13.233-11.911-17.56
				c-8.727-6.069-17.559-11.964-27.079-16.758c-8.49-4.277-17-8.518-25.406-12.956c-14.937-7.886-30.734-13.32-47.154-17.113
				c-14.177-3.274-28.52-5.384-42.931-7.382c-16.731-2.319-33.422-2.618-50.201-1.858c-2.187,0.099-4.347,0.791-6.287,1.163
				c-1.392,1.52-2.852,2.572-3.586,3.997c-10.238,19.883-19.53,40.213-28.32,60.772
				C533.399,336.517,533.747,337.773,533.747,338.909z M805.31,469.37c-0.224-9.383-4.003-18.316-5.226-27.716
				c-0.683-5.248-3.411-9.392-7.62-12.578c-11.155-8.443-22.176-17.07-33.513-25.259c-5.42-3.915-11.296-7.269-17.207-10.421
				c-22.83-12.174-46.874-21.025-72.159-26.729c-24.039-5.424-48.26-9.608-72.722-12.415c-11.669-1.339-23.379-2.356-35.086-3.322
				c-12.356-1.02-24.503-0.001-36.852,4.777c-4.846,9.425-10.403,19.065-12.61,29.821c1.724,2.405,3.769,3.105,6.062,3.34
				c20.676,2.117,40.769,6.919,60.643,12.875c12.882,3.861,25.422,8.62,37.972,13.39c15.717,5.974,31.244,12.308,44.946,22.341
				c3.231,2.366,6.91,3.687,10.924,3.877c11.195,0.531,22.247,2.358,33.368,3.526c12.832,1.348,25.427,3.748,38.046,6.282
				c11.609,2.331,22.637,6.149,33.391,10.986c7.644,3.439,15.399,6.632,22.677,9.751c1.613-0.446,2.69-0.644,3.674-1.06
				C804.477,470.64,804.758,470.021,805.31,469.37z M734.687,220.604c-2.434-1.873-3.661-3.076-5.107-3.89
				c-21.014-11.835-42.621-22.442-65.18-31.022c-13.176-5.011-26.883-7.725-40.916-8.824c-1.663-0.13-3.368-0.073-5.023,0.136
				c-2.854,0.361-5.388,1.508-7.196,3.843c-1.027,1.326-1.965,2.733-2.823,4.175c-12.905,21.683-24.341,44.139-35.098,66.948
				c-0.67,1.421-0.639,3.172-0.894,4.55c1.017,1.045,1.668,2.325,2.517,2.474c2.735,0.48,5.55,0.79,8.323,0.727
				c25.894-0.597,51.43,2.282,76.752,7.54c20.384,4.233,40.093,10.351,58.641,19.976c14.41,7.477,29.147,14.34,42.854,23.127
				c0.777,0.498,2.103,0.254,3.159,0.168c1.061-0.086,1.808-2.729,1.35-4.496c-0.281-1.082-0.501-2.183-0.846-3.245
				c-4.329-13.313-8.389-26.723-13.094-39.903C747.028,248.662,741.422,234.619,734.687,220.604z M636.676,436.34
				c-2.087-2.804-5.292-3.966-8.348-5.248c-25.782-10.816-52.122-19.98-79.227-26.934c-11.974-3.072-24.174-4.249-36.424-5.173
				c-2.811-0.212-5.554,0.382-8.763,3.207c-5.508,11.489-10.905,24.336-16.214,37.216c-0.829,2.012-0.935,4.323-1.272,5.986
				c1.804,6.162,5.765,8.616,11.364,8.822c1.113,0.041,2.254,0.093,3.343-0.09c9.353-1.57,18.89-1.776,28.134-4.286
				c6.451-1.751,13.099-2.809,19.69-4.006c22.605-4.103,45.593-4.106,68.384-6.228c3.859-0.359,7.804,0.232,11.711,0.331
				c1.664,0.042,3.362,0.136,4.988-0.134C635.804,439.51,636.79,438.282,636.676,436.34z M623.577,164.158
				c2.231,2.59,5.116,2.558,7.836,2.925c21.175,2.854,41.125,9.632,60.338,18.783c5.025,2.393,21.103,10.047,24.155,11.396
				c1.513,0.669,3.102,1.021,4.663,0.007c1.03-0.669,1.192-2.732,0.31-4.566c-5.81-12.08-12.658-23.574-20.878-34.127
				c-4.418-5.672-9.656-10.786-14.999-15.626c-3.244-2.939-7.225-5.218-11.175-7.194c-9.217-4.61-18.321-3.688-27.056,1.552
				c-1.904,1.142-3.788,2.364-5.505,3.765c-6.513,5.315-12.245,11.374-16.627,18.579
				C623.848,160.956,623.884,162.762,623.577,164.158z M615.296,1097.357c-0.469-2.83-0.732-6.178-1.605-9.359
				c-2.523-9.186-6.671-17.688-11.596-25.809c-8.386-13.829-17.749-26.968-28.108-39.389c-2.495-2.991-5.085-5.909-7.745-8.753
				c-1.898-2.03-3.961-3.91-6.001-5.803c-0.811-0.753-1.667-1.593-2.662-1.981c-1.493-0.582-3.115-0.988-4.708-1.103
				c-0.983-0.071-2.104,2.526-2.211,4.059c-0.475,6.819,1.79,13.216,3.142,19.72c4.359,20.973,13.206,40.106,24.702,58.059
				c4.537,7.085,9.97,13.441,17.158,17.996c2.307,1.462,4.921,2.566,7.535,3.388c4.428,1.393,9.147-1.23,10.674-5.687
				C614.406,1101.128,614.734,1099.49,615.296,1097.357z M528.686,998.212c-1.53-2.284-3.768-2.32-5.864-1.368
				c-16.413,7.461-31.304,17.29-44.602,29.45c-7.434,6.797-14.417,14.073-20.371,22.232c-6.321,8.661-11.401,17.924-12.747,28.814
				c-0.291,2.353,0.364,4.381,1.719,5.873c2.88,1.835,5.663,1.392,8.332,0.502c9.153-3.053,17.135-8.15,24.346-14.473
				c6.742-5.911,12.776-12.484,18.359-19.518c11.876-14.963,21.498-31.312,30.157-48.268
				C528.502,1000.506,528.476,999.294,528.686,998.212z"/>
		</g>
		<g>
			<path fill="#33252B" d="M271.227,355.542c-0.926-3.852-0.614-5.447,1.059-6.052c1.562-0.565,3.12-1.196,4.734-1.556
				c9.362-2.086,15.828-7.945,20.866-15.753c4.888-7.575,8.521-15.74,11.5-24.213c4.089-11.63,7.419-23.475,10.036-35.523
				c0.473-2.176,1.038-4.347,1.776-6.444c0.357-1.015,1.075-2.012,1.886-2.727c0.782-0.689,1.85-1.162,2.871-1.445
				c1.315-0.364,3.683,0.974,4.154,2.205c0.59,1.543,1.351,3.073,1.614,4.678c1.266,7.73,2.157,15.528,3.642,23.212
				c1.058,5.472,2.329,11.012,4.41,16.155c5.527,13.664,14.749,23.595,29.586,27.434c3.198,0.827,6.232,2.319,9.302,3.598
				c1.689,0.704,1.903,4.768,0.355,5.974c-1.309,1.02-2.529,2.265-4.003,2.942c-3.553,1.632-7.194,3.095-10.87,4.435
				c-6.616,2.412-11.5,6.866-15.126,12.733c-8.895,14.393-15.172,29.943-19.674,46.195c-1.031,3.724-1.103,7.745-1.354,11.646
				c-0.362,5.615-1.154,11.127-2.865,16.5c-0.688,2.159-2.779,4.099-4.702,4.186c-2.26,0.103-4.768-2.869-4.827-5.893
				c-0.054-2.792-0.199-5.616,0.125-8.376c1.46-12.437-0.307-24.579-3.076-36.643c-1.773-7.723-4.845-14.871-9.507-21.326
				c-4.085-5.656-9.376-9.659-16.122-11.389C281.617,358.709,276.179,357.538,271.227,355.542z M324.332,383.256
				c1.023-0.312,2.438-0.312,3.023-1.01c1.406-1.675,2.645-3.573,3.56-5.561c5.415-11.765,11.698-22.901,21.561-31.646
				c0.655-0.581,0.555-2.013,0.805-3.051c-0.677-0.868-1.202-1.942-2.055-2.572c-11.134-8.224-19.142-18.688-23.37-31.971
				c-0.663-2.081-1.48-4.256-3.593-5.481c-0.898,0.535-2.132,0.859-2.628,1.648c-1.178,1.872-2.311,3.875-2.925,5.982
				c-3.802,13.034-9.691,24.999-17.823,35.874c-0.651,0.87-0.947,2.006-1.407,3.018c0.039,0.533-0.101,1.176,0.148,1.579
				c0.861,1.395,1.595,3.058,2.846,3.992c7.85,5.861,13.151,13.617,17.297,22.33C320.951,378.867,321.775,381.65,324.332,383.256z"
				/>
		</g>
		<g>
			<path fill="#33252B" d="M492.433,270.805c-2.192,0.677-4.248,1.48-6.379,1.944c-9.97,2.17-17.004,8.223-22.13,16.72
				c-6.733,11.161-10.93,23.288-13.33,36.062c-0.619,3.294-1.108,6.613-1.767,9.898c-0.433,2.156-2.959,3.181-6.66,2.859
				c-1.581-1.748-2.256-3.847-2.176-6.152c0.155-4.478,0.431-8.951,0.602-13.429c0.324-8.487-0.774-16.854-3.427-24.862
				c-4.073-12.293-11.931-21.307-24.354-25.927c-2.59-0.963-5.109-2.143-7.586-3.372c-1.546-0.767-2.44-3.929-1.835-6.02
				c0.5-1.727,1.74-3.107,3.418-3.277c2.747-0.279,5.555-0.148,8.324,0.026c4.215,0.265,7.632-1.408,10.673-4.073
				c4.693-4.113,8.259-9.15,11.321-14.517c6.405-11.225,12.059-22.767,14.394-35.658c0.596-3.291,1.465-6.53,3.59-9.293
				c0.888-1.154,2.902-1.917,4.499-1.111c0.928,0.468,2.116,1.242,2.349,2.105c0.571,2.115,0.885,4.36,0.899,6.555
				c0.067,10.641-0.062,21.284,0.009,31.925c0.038,5.683,1.454,11.115,3.923,16.217c2.535,5.238,6.416,9.183,12.016,11.111
				c3.696,1.272,7.562,2.084,11.174,3.544c1.367,0.552,2.747,2.189,3.178,3.617C493.57,267.072,492.769,268.815,492.433,270.805z
				 M451.703,238.943c-1.489,0.156-3.052-0.138-3.513,0.443c-2.732,3.448-5.106,7.18-7.801,10.661
				c-3.033,3.918-6.277,7.673-9.425,11.493c0.672,1.898,0.804,3.812,1.822,4.889c6.135,6.492,10.848,13.943,14.297,20.84
				c2.48,1.868,4.296,1.973,5.386,0.574c4.756-6.097,9.319-12.343,13.923-18.558c0.302-0.407,0.33-1.017,0.563-1.793
				c-1.34-5.453-6.891-8.367-9.061-13.469C455.751,248.984,453.73,243.894,451.703,238.943z"/>
		</g>
		<g>
			<path fill="#33252B" d="M560.563,106.779c-0.31-1.304-1.071-2.682-0.678-3.224c0.908-1.253,2.336-2.156,3.639-3.079
				c0.391-0.277,1.104-0.302,1.609-0.185c10.237,2.384,20.487,4.724,30.672,7.317c1.431,0.364,2.742,1.85,3.694,3.126
				c0.371,0.497-0.12,2.149-0.734,2.733c-0.717,0.682-1.99,1.039-3.034,1.067c-2.761,0.076-5.602,0.274-8.282-0.245
				C578.238,112.507,568.885,111.115,560.563,106.779z"/>
		</g>
		<g>
			<path fill="#33252B" d="M623.652,85.873c-0.798,1.276-1.171,2.492-1.984,2.996c-0.796,0.494-2.178,0.613-3.06,0.27
				c-1.516-0.59-3.166-1.389-4.196-2.585c-6.565-7.63-11.514-16.262-15.277-25.584c-0.512-1.268,0.178-3.898,1.204-4.584
				c1.102-0.737,3.813-0.583,4.62,0.419c2.077,2.577,4.299,5.076,6.055,7.863c2.362,3.752,4.255,7.797,6.511,11.62
				C619.484,79.604,621.668,82.786,623.652,85.873z"/>
		</g>
		<g>
			<path fill="#33252B" d="M666.863,82.956c-1.103,2.676-2.32,3.784-4.117,3.393c-0.985-0.214-2.129-1.02-2.624-1.889
				c-1.095-1.922-2.214-3.976-2.636-6.112c-1.635-8.262-2.032-16.62-1.189-25.019c0.158-1.571,1.892-3.344,3.259-3.33
				c1.367,0.014,3.731,1.437,4.049,2.431c0.338,1.058,0.879,2.092,0.991,3.172c0.346,3.334,0.659,6.682,0.75,10.03
				C665.512,71.764,665.272,77.913,666.863,82.956z"/>
		</g>
		<g>
			<path fill="#33252B" d="M728.235,69.259c-0.291,1.281-0.298,3.072-1.072,4.424c-4.424,7.731-10.113,14.417-17.378,19.635
				c-0.996,0.715-2.435,0.087-2.717-1.052c-0.379-1.53-0.638-3.239-0.334-4.748c0.315-1.567,1.2-3.095,2.116-4.451
				c4.004-5.934,8.107-11.801,12.18-17.688c1.066-1.54,4.713-1.239,5.817,0.557C727.401,66.837,727.683,67.907,728.235,69.259z"/>
		</g>
		<g>
			<path fill="#33252B" d="M761.264,108.479c-0.142,1.071,0.075,2.429-0.503,3.157c-1.365,1.719-2.919,3.424-4.732,4.628
				c-6.183,4.105-13.192,5.936-20.481,6.807c-0.524,0.063-1.184-0.038-1.61-0.32c-0.885-0.584-2.02-1.197-2.369-2.07
				c-0.332-0.832-0.032-2.136,0.425-3.003c0.497-0.943,1.375-1.817,2.295-2.384c7.178-4.42,14.91-7.504,23.142-9.327
				C758.759,105.673,760.932,107.122,761.264,108.479z"/>
		</g>
		<g>
			<path fill="#33252B" d="M398.731,741.517c-12.512,0.018-24.473-2.473-35.949-7.295c-3.593-1.51-7.159-3.169-10.514-5.139
				c-6.479-3.803-10.928-9.355-13.698-16.398c-2.939-7.475-1.849-14.212,2.903-20.501c2.391-3.165,5.283-5.853,8.865-7.532
				c4.54-2.128,9.095-4.495,13.909-5.707c7.559-1.903,15.297-3.255,23.035-4.251c14.856-1.913,28.898,1.901,42.49,7.344
				c8.066,3.23,13.92,9.21,17.578,17.172c2.966,6.457,2.959,12.952,0.038,19.442c-3.091,6.867-7.914,12.098-14.591,15.62
				c-5.48,2.89-11.214,5.094-17.379,5.824C409.876,740.752,404.294,741.056,398.731,741.517z M432.084,704.488
				c0.087-2.774-1.167-5.205-3.455-6.955c-6.206-4.746-13.165-8.157-20.557-10.546c-3.977-1.285-7.718-0.052-10.523,3.115
				c-7.943,8.97-4.142,18.918,4.845,23.287c2.946,1.432,6.265,2.147,9.464,3c4.459,1.189,8.748,0.417,12.931-1.408
				C429.316,713.005,431.453,709.413,432.084,704.488z"/>
		</g>
		<g>
			<path fill="#33252B" d="M635.091,616.775c0.069,9.306-1.017,17.004-4.813,24.112c-2.148,4.022-5.057,7.325-9.024,9.704
				c-4.411,2.645-10.229,2.159-14.044-1.236c-4.368-3.886-6.89-8.852-7.936-14.444c-1.238-6.613-1.48-13.339-0.764-20.062
				c0.744-6.995,3.944-12.743,9.008-17.51c6.414-6.038,17.047-5.175,22.266,1.809c2.374,3.177,4.151,6.649,4.633,10.647
				C634.75,612.569,634.957,615.358,635.091,616.775z"/>
		</g>
		<g>
			<path fill="#33252B" d="M545.683,737.982c-2.595,4.426-4.491,7.807-6.524,11.103c-12.826,20.787-32.22,30.097-55.896,31.677
				c-3.864,0.258-7.801-0.276-11.681-0.671c-2.862-0.292-5.273-1.821-7.329-3.761c-1.212-1.143-1.948-2.648-1.564-4.44
				c0.312-1.457,2.226-3.118,3.585-3.075c2.219,0.07,4.456,0.035,6.653,0.308c16.362,2.035,31.026-2.357,44.122-12.01
				c8.862-6.532,14.924-14.987,15.78-25.379c-0.265-4.054-2.325-6.022-3.928-8.293c-1.915-2.713-3.627-5.581-5.263-8.474
				c-0.993-1.758,0.071-4.738,1.84-5.857c1.378-0.871,3.492-0.815,4.736,0.221c2.139,1.781,4.433,3.431,6.315,5.458
				c5.854,6.304,12.871,10.638,21.048,13.204c1.588,0.498,3.126,1.199,4.621,1.939c0.991,0.491,2.161,1.024,2.725,1.883
				c0.856,1.305,1.48,2.867,1.778,4.403c0.24,1.233-1.905,3.207-3.273,3.293c-2.216,0.14-4.46,0.432-6.65,0.221
				C553.469,739.412,550.196,738.717,545.683,737.982z"/>
		</g>
		<g>
			<path fill="#33252B" d="M923.198,860.079c-2.203-1.871-3.555-4.326-3.893-7.108c-1.272-10.464-1.165-20.956-0.121-31.434
				c0.104-1.045,0.753-2.057,1.243-3.038c0.783-1.565,2.025-2.527,3.836-2.646c1.619-0.106,3.494,0.951,4.041,2.296
				c0.411,1.012,1.12,1.999,1.198,3.034c0.87,11.6,0.819,23.195-0.528,34.763C928.676,858.507,926.88,859.746,923.198,860.079z"/>
		</g>
		<g>
			<path fill="#33252B" d="M953.996,831.014c-0.297,3.887-0.463,7.79-0.953,11.653c-0.209,1.652-1.242,3.113-3.033,3.667
				c-1.135,0.351-3.661-1.099-4.03-2.255c-2.39-7.492-4.107-15.101-3.738-23.032c0.077-1.657,0.478-3.302,0.776-4.944
				c0.353-1.938,2.734-3.944,4.778-3.973c1.92-0.027,4.52,1.993,4.855,3.84c0.199,1.097,0.555,2.191,0.575,3.291
				c0.071,3.909,0.028,7.82,0.028,11.729C953.502,830.999,953.749,831.007,953.996,831.014z"/>
		</g>
		<g>
			<path fill="#33252B" d="M814.986,794.098c0,0.55,0.216,1.237-0.032,1.641c-4.431,7.229-10.092,13.406-16.575,18.815
				c-1.23,1.026-2.921,1.629-4.499,2.074c-1.722,0.485-3.274-0.27-4.507-1.554c-1.172-1.219-1.644-3.591-0.971-4.617
				c4.686-7.131,10.613-13.015,17.921-17.412c1.892-1.138,4.174-1.893,6.43-1.025C813.63,792.357,814.243,793.379,814.986,794.098z"
				/>
		</g>
		<g>
			<path fill="#33252B" d="M789.454,753.683c-3.418-0.086-6.052-2.445-5.55-4.167c0.425-1.461,1.275-3.437,2.46-3.932
				c6.055-2.529,12.247-4.753,18.474-6.835c1.452-0.485,3.284-0.23,4.835,0.134c0.887,0.208,1.879,1.189,2.245,2.064
				c0.366,0.877,0.105,2.07-0.068,3.093c-0.078,0.464-0.517,1.049-0.946,1.246c-5.947,2.74-11.881,5.516-17.917,8.048
				C791.559,753.933,789.765,753.659,789.454,753.683z"/>
		</g>
		<g>
			<path fill="#33252B" d="M791.151,691.373c-0.1-3.88,0.948-6.003,3.141-6.317c7.64-1.093,15.301-1.367,22.951-0.239
				c1.695,0.25,2.809,1.539,2.993,3.724c-1.101,0.881-2.202,2.322-3.629,2.809c-7.385,2.521-14.982,3.196-22.679,1.687
				C792.932,692.842,792.073,691.946,791.151,691.373z"/>
		</g>
		<g>
			<path fill="#33252B" d="M814.607,836.153c-0.913-0.592-2.282-0.99-2.636-1.82c-0.612-1.434-1.237-3.388-0.731-4.685
				c2.662-6.821,6.673-12.703,13.233-16.435c0.402-0.229,1.203-0.243,1.546,0.01c0.803,0.593,2.122,1.5,2.04,2.123
				c-1.013,7.671-5.341,15.992-10.38,20.035C816.93,835.981,815.645,835.912,814.607,836.153z"/>
		</g>
		<g>
			<path fill="#33252B" d="M225.474,701.924c-0.732,2.331-2.325,3.861-4.675,4.194c-10.976,1.556-21-1.301-30.357-6.902
				c-0.924-0.553-1.595-1.526-2.383-2.305c-1.049-1.036-1.489-3.634-0.578-4.561c0.746-0.759,1.715-1.459,2.715-1.777
				c2.774-0.883,5.568-0.202,8.212,0.592c8.517,2.56,17.001,5.238,25.437,8.053C224.608,699.473,224.947,701.001,225.474,701.924z"
				/>
		</g>
		<g>
			<path fill="#33252B" d="M226.344,746.92c0,0.248,0.191,0.894-0.028,1.337c-3.762,7.618-9.814,13.159-16.677,17.854
				c-2.317,1.585-5.081,1.948-7.896,0.946c-2.011-0.716-3.24-3.834-2.058-5.414c0.324-0.433,0.472-1.027,0.853-1.387
				c6.43-6.076,13.421-11.392,21.508-15.067C223.476,744.54,225.322,744.913,226.344,746.92z"/>
		</g>
		<g>
			<path fill="#33252B" d="M252.134,631.64c1.03,0.266,2.218,0.288,3.062,0.837c5.166,3.361,9.02,7.971,11.861,13.377
				c1.014,1.928,1.282,4.144,0.571,6.386c-0.438,1.383-2.728,2.757-3.808,2.094c-5.657-3.469-10.836-7.473-14.197-13.353
				c-1.422-2.488-1.819-5.216-0.146-7.744C249.993,632.459,251.228,632.159,252.134,631.64z"/>
		</g>
		<g>
			<path fill="#33252B" d="M211.416,675.192c0.55,0,1.14-0.13,1.645,0.021c7.563,2.261,14.186,6.066,19.259,12.21
				c0.428,0.518-0.083,1.944-0.387,2.873c-0.137,0.418-0.806,0.721-1.293,0.949c-0.493,0.23-1.092,0.497-1.59,0.415
				c-7.146-1.181-13.852-3.651-20.237-7.033c-1.756-0.93-3.008-3.889-2.422-5.678C206.989,677.124,209.764,675.049,211.416,675.192z
				"/>
		</g>
	</g>
</g>
</svg>
