<svg width="524" height="435" viewBox="0 0 524 435" fill="none" xmlns="http://www.w3.org/2000/svg">
<path opacity="0.18" d="M89.4331 392.196C90.3241 398.906 97.7214 401.553 103.772 402.66C166.638 414.163 230.779 412.771 294.485 411.264C319.598 410.66 344.774 409.975 369.701 406.552C386.402 404.269 420.373 402.17 432.733 388.556C423.948 382.702 407.174 385.92 397.052 385.851C372.053 385.692 347.053 385.578 322.054 385.714C272.759 385.981 223.468 386.947 174.181 388.613C145.931 389.579 117.682 390.773 89.4331 392.196Z" fill="#FC68EE"/>
<path d="M248.671 400.96C247.839 401.592 246.854 401.934 245.843 401.941C238.52 402.943 231.154 403.507 223.775 403.63C222.762 403.701 221.747 403.541 220.792 403.162C220.295 403.009 219.856 402.682 219.541 402.231C219.227 401.78 219.053 401.229 219.046 400.66C219.039 400.092 219.199 399.536 219.503 399.076C219.806 398.616 220.236 398.276 220.73 398.107C221.674 397.702 222.68 397.501 223.693 397.514C231.629 397.126 239.886 396.795 247.811 397.731C248.154 397.733 248.487 397.858 248.761 398.085C249.035 398.312 249.235 398.631 249.331 398.993C249.427 399.356 249.415 399.743 249.297 400.097C249.178 400.451 248.959 400.754 248.671 400.96V400.96Z" fill="#FC68EE"/>
<path d="M126.409 398.929C127.122 399.963 127.974 400.872 128.937 401.622C130.508 402.543 132.255 403.043 134.034 403.082C137.488 403.463 140.959 403.76 144.446 403.973C145.085 404.095 145.743 403.974 146.311 403.63C146.69 403.218 146.91 402.66 146.925 402.074C146.941 401.487 146.751 400.917 146.394 400.481C145.626 399.652 144.682 399.048 143.649 398.723C137.972 396.28 132.815 392.569 128.502 387.826C126.824 385.966 121.084 378.822 119.374 384.847C118.059 389.435 123.995 395.802 126.409 398.929Z" fill="#FC68EE"/>
<path d="M403.807 371.838C404.995 372.939 405.977 374.284 406.698 375.798C407.31 377.595 407.53 379.527 407.34 381.435C407.192 384.384 406.845 387.318 406.304 390.21C406.148 391.101 405.765 392.196 404.936 392.242C404.699 392.225 404.466 392.154 404.254 392.035C404.042 391.915 403.855 391.748 403.703 391.546C402.902 390.668 402.267 389.624 401.835 388.474C401.403 387.325 401.182 386.092 401.186 384.847C401.3 383.897 401.24 382.93 401.01 382.006C400.414 380.852 399.444 379.988 398.295 379.587L390.525 375.65C388.381 374.566 386.049 373.253 385.252 370.823C384.008 367.034 388.163 360.552 391.913 360.552C395.664 360.552 401.207 369.077 403.807 371.838Z" fill="#3E3E54"/>
<path d="M306.627 378.502C305.492 379.809 304.242 380.99 302.897 382.029C301.547 383.076 300.494 384.524 299.862 386.205C299.569 387.052 299.533 387.981 299.761 388.851C299.989 389.722 300.468 390.487 301.126 391.032C303.146 392.401 305.674 390.644 307.487 388.967L319.391 378.023C320.624 377.066 321.618 375.783 322.282 374.292C323.028 372.158 322.365 369.727 321.494 367.684C320.833 365.922 319.853 364.326 318.614 362.994C310.191 354.607 309.797 374.337 306.627 378.502Z" fill="#3E3E54"/>
<path d="M403.807 371.838C404.995 372.939 405.977 374.284 406.698 375.798C407.31 377.595 407.53 379.527 407.34 381.435C407.192 384.384 406.845 387.318 406.304 390.21C406.148 391.101 405.765 392.196 404.936 392.242C404.699 392.225 404.466 392.154 404.254 392.035C404.042 391.915 403.855 391.748 403.703 391.546C402.902 390.668 402.267 389.624 401.835 388.474C401.403 387.325 401.182 386.092 401.186 384.847C401.3 383.897 401.24 382.93 401.01 382.006C400.414 380.852 399.444 379.988 398.295 379.587L390.525 375.65C388.381 374.566 386.049 373.253 385.252 370.823C384.008 367.034 388.163 360.552 391.913 360.552C395.664 360.552 401.207 369.077 403.807 371.838Z" fill="url(#paint0_linear_3_3)"/>
<path d="M306.627 378.502C305.492 379.809 304.242 380.99 302.897 382.029C301.547 383.076 300.494 384.524 299.862 386.205C299.569 387.052 299.533 387.981 299.761 388.851C299.989 389.722 300.468 390.487 301.126 391.032C303.146 392.401 305.674 390.644 307.487 388.967L319.391 378.023C320.624 377.066 321.618 375.783 322.282 374.292C323.028 372.158 322.365 369.727 321.494 367.684C320.833 365.922 319.853 364.326 318.614 362.994C310.191 354.607 309.797 374.337 306.627 378.502Z" fill="url(#paint1_linear_3_3)"/>
<path d="M178.138 277.501C167.685 311.084 152.983 342.842 138.323 374.497C137.287 376.7 136.179 379.062 134.179 380.203C132.18 381.344 129.206 380.853 128.492 378.514C128.284 377.554 128.284 376.553 128.492 375.593C130.564 361.192 134.977 347.247 136.22 332.732C136.666 327.494 136.718 322.062 138.634 317.235C141.059 311.13 146.177 306.714 148.56 300.586C150.114 296.581 150.383 292.13 150.859 287.794C151.508 281.83 152.592 275.934 154.102 270.163C163.843 270.877 173.426 273.228 182.521 277.136" fill="url(#paint2_linear_3_3)"/>
<path d="M214.99 270.928C221.9 305.596 224.314 341.142 226.708 376.54C226.873 379.005 227.008 381.641 225.91 383.786C224.812 385.931 221.962 387.209 220.253 385.6C219.616 384.908 219.137 384.059 218.854 383.124C213.799 369.659 211.022 355.189 205.241 342.043C203.169 337.308 200.631 332.64 199.988 327.414C199.18 320.818 201.47 314.108 200.61 307.524C200.05 303.199 198.175 299.239 196.538 295.268C194.288 289.797 192.435 284.139 190.995 278.345C199.657 273.398 208.954 269.934 218.564 268.075" fill="url(#paint3_linear_3_3)"/>
<path d="M213.26 166.993C216.43 174.491 219.631 182.045 224.035 188.755C228.438 195.465 234.167 201.307 241.16 204.377C247.511 207.139 254.846 207.549 260.275 212.114C260.833 212.525 261.277 213.098 261.56 213.768C261.767 214.674 261.668 215.631 261.28 216.462C258.172 224.815 247.449 228.307 240.715 223.149C239.181 222.007 237.876 220.467 236.332 219.314C234.228 217.984 232.032 216.839 229.764 215.891C225.102 213.517 221.103 209.832 217.176 206.191C213.249 202.551 209.375 198.842 207.852 193.639C206.101 187.579 201.387 181.406 202.091 175.095C202.495 171.421 203.283 167.507 202.817 163.844C202.475 161.139 203.19 153.927 204.712 151.634C206.805 155.502 211.478 162.851 213.26 166.993Z" fill="url(#paint4_linear_3_3)"/>
<path d="M209.675 90.2408C209.939 92.8646 209.735 95.52 209.074 98.0576C208.387 100.601 206.865 102.773 204.806 104.151C203.6 104.828 202.28 105.224 200.929 105.315C199.578 105.405 198.224 105.188 196.953 104.676C196.425 104.393 195.823 104.325 195.254 104.482C194.861 104.708 194.551 105.074 194.373 105.521C193.161 107.951 193.15 110.873 192.301 113.509C192.052 114.25 192.715 120.606 192.145 121.086C191.576 121.565 190.073 116.042 189.545 116.167C187.929 116.538 186.261 116.538 184.645 116.167C184.073 116.072 183.53 115.83 183.059 115.46C182.666 115.129 176.936 119.499 176.688 119.02C173.486 112.835 179.858 100.351 179.661 93.2192C179.527 88.2438 178.905 82.7892 181.485 78.7039C183.267 75.8968 186.24 74.3334 189.172 73.2265C191.762 72.1733 194.493 71.6025 197.253 71.5376C201.252 71.5376 204.505 72.8385 206.287 76.8211C208.174 81.0193 209.324 85.5724 209.675 90.2408V90.2408Z" fill="url(#paint5_linear_3_3)"/>
<path d="M205.479 67.7148C206.847 70.6818 206.857 74.5616 204.899 77.1178C204.068 78.1216 203.069 78.9392 201.957 79.5256C199.668 80.8459 197.178 81.6892 194.611 82.0132C193.885 82.0189 193.172 82.227 192.539 82.618C192 83.1089 191.598 83.7576 191.379 84.4895C190.623 86.5671 190.165 88.7614 190.022 90.994C189.327 91.4276 188.457 90.8114 188.001 90.0925C187.545 89.3736 187.214 88.4835 186.509 88.0613C185.287 87.2967 183.681 88.5976 183.401 90.1153C183.314 91.6784 183.791 93.2162 184.727 94.3945C185.587 95.6954 186.665 97.1789 186.271 98.7309C185.92 99.6857 185.294 100.487 184.489 101.013L179.92 104.813C179.732 105.058 179.497 105.254 179.231 105.386C178.966 105.518 178.676 105.582 178.385 105.574C178.094 105.567 177.808 105.487 177.548 105.342C177.288 105.196 177.062 104.988 176.885 104.733C174.756 102.92 172.832 100.832 171.155 98.514C168.548 94.4032 167.291 89.4362 167.591 84.4325C167.801 80.4147 168.823 76.4991 170.581 72.9713C172.339 69.4435 174.79 66.3924 177.755 64.0404C185.94 57.6729 200.237 56.2236 205.479 67.7148Z" fill="#3E3E54"/>
<path d="M168.545 48.2928C166.401 47.9711 164.22 48.3765 162.291 49.455C160.363 50.5335 158.778 52.2338 157.749 54.3294C156.87 56.4251 156.417 58.7075 156.423 61.0164C156.361 62.4092 156.483 63.8046 156.786 65.1587C157.52 67.6559 158.864 69.8825 160.671 71.5947C161.588 72.5817 162.636 73.409 163.779 74.0481C166.309 75.1673 169.09 75.4023 171.746 74.7214C173.006 74.5212 174.235 74.1375 175.403 73.5803C176.645 72.9248 177.737 71.9685 178.596 70.7828C179.456 69.5972 180.061 68.2129 180.366 66.7335C180.538 65.8997 180.538 65.0339 180.366 64.2002C180.195 63.5656 179.962 62.9534 179.672 62.3743C178.283 59.4074 177.765 55.9384 175.921 53.2453C174.144 50.5967 171.496 48.8192 168.545 48.2928V48.2928Z" fill="#3E3E54"/>
<path d="M163.302 197.975C158.754 193.354 159.055 190.409 158.423 183.62C157.838 177.299 158.365 170.914 159.977 164.814C162.536 155.114 157.242 146.556 159.676 136.765C161.168 130.797 170.275 99.3927 192.912 118.507C196.02 121.12 197.15 125.719 199.522 129.131C202.236 133.022 205.831 136.16 208.131 140.359C209.663 143.307 210.519 146.621 210.626 150.016C210.732 153.41 210.086 156.781 208.743 159.839C207.417 162.885 205.407 165.213 204.236 168.363C202.897 172.352 202.309 176.599 202.506 180.847C202.589 186.598 202.893 192.342 203.418 198.078C203.759 201.798 205.883 206.659 203.666 209.934C201.449 213.209 194.974 213.974 191.679 214.556C183.391 216.028 174.191 215.115 167.498 209.01C164.525 206.305 162.111 201.992 163.302 197.952" fill="#FC68EE"/>
<path d="M178.542 174.034C178.045 180.95 179.485 187.831 179.765 194.757C180.045 201.684 179.122 208.93 178.2 215.959L176.045 232.346C176.017 232.702 175.922 233.048 175.766 233.362C175.113 234.503 173.549 233.795 172.658 232.894C167.923 227.907 168.213 219.702 167.053 212.593C165.778 204.799 162.442 197.61 160.515 189.976C158.049 180.469 158.081 170.387 160.609 160.9C162.207 155.591 164.326 150.491 166.928 145.688C169.425 140.827 172.233 135.932 176.429 132.794C179.371 130.58 186.789 118.94 189.897 122.204C192.715 125.171 189.348 139.869 188.25 143.11C184.862 153.311 179.34 162.954 178.542 174.034Z" fill="url(#paint6_linear_3_3)"/>
<path d="M221.32 274.819C221.462 276.139 221.153 277.47 220.455 278.554C219.756 279.637 218.717 280.397 217.539 280.685C217.021 280.936 216.503 281.164 215.933 281.392C209.489 284.074 200.62 285.512 194.124 286.208C193.09 286.439 192.015 286.274 191.078 285.74C190.51 285.245 190.052 284.612 189.742 283.891C188.955 282.385 188.26 278.573 187.535 275.333C187.53 275.31 187.53 275.287 187.535 275.264C187.4 274.659 187.266 274.123 187.131 273.541C186.924 272.598 186.622 271.683 186.23 270.814C186.287 271.218 186.287 271.63 186.23 272.035C186.012 275.276 184.292 282.853 183.215 283.697C181.889 284.613 180.382 285.161 178.822 285.295C170.48 286.669 161.957 285.099 154.475 280.81C153.386 280.168 152.328 279.463 151.305 278.699C150.488 278.183 149.82 277.423 149.378 276.508C149.328 276.347 149.307 276.176 149.316 276.006C149.243 273.724 150.414 265.827 150.538 264.857C152.61 248.881 154.683 232.905 158.174 217.306C158.816 214.15 159.653 211.047 160.681 208.017C160.816 207.641 160.951 207.264 161.096 206.876C161.571 205.344 162.421 203.986 163.551 202.951C165.219 201.638 167.446 201.73 169.487 201.878L189.545 203.281C190.772 203.344 192.001 203.31 193.223 203.179C195.142 202.93 197.072 202.804 199.004 202.802C201.573 202.905 203.148 204.754 204.785 206.99C208.204 211.555 210.038 217.374 211.613 222.966C215.808 237.721 221.755 259.345 221.32 274.819Z" fill="white"/>
<path d="M134.583 209.626C133.05 212.479 131.268 215.161 129.942 218.128C127.481 223.685 126.735 229.976 127.818 236.043C128.378 239.136 129.528 242.297 131.848 244.145C134.169 245.994 137.868 245.96 139.546 243.404C141.919 239.786 139.256 233.636 142.354 230.771C142.354 231.913 144.125 232.221 144.83 231.308C145.412 230.289 145.606 229.059 145.369 227.884C145.047 224.233 145.255 220.672 144.933 217.021C147.824 212.194 150.746 207.298 152.403 201.821C154.475 194.974 154.475 187.511 157.521 181.166C159.728 176.51 163.323 172.893 166.638 169.116C174.769 159.806 181.423 149.06 186.323 137.324C188.146 132.942 189.752 128.332 189.939 123.516C190.104 119.237 183.878 116.567 179.982 116.727C176.087 116.886 172.492 119.248 169.788 122.341C167.198 125.548 164.99 129.107 163.219 132.931C157.549 143.992 151.878 155.05 146.208 166.103C145.078 168.363 138.665 202.038 134.583 209.626Z" fill="url(#paint7_linear_3_3)"/>
<path d="M218.678 398.906C218.772 399.509 219.037 400.065 219.435 400.492C219.944 400.834 220.541 400.982 221.134 400.914C229.871 400.914 238.591 400.515 247.293 399.716C248.33 399.625 249.604 399.237 249.697 398.119C249.703 397.72 249.613 397.326 249.438 396.977C247.635 392.824 243.802 390.279 240.114 388.031C236.66 385.893 233.148 383.816 229.577 381.8C228.962 381.356 228.241 381.122 227.505 381.127C226.891 381.258 226.308 381.53 225.796 381.926C223.403 383.398 219.725 383.067 218.43 386.034C216.958 389.571 217.829 395.311 218.678 398.906Z" fill="#3E3E54"/>
<path d="M123.425 378.879C122.389 380.089 121.353 381.447 121.291 383.09C121.369 384.454 121.817 385.762 122.576 386.844C124.384 389.94 126.355 392.916 128.481 395.756C129.49 397.301 130.804 398.573 132.325 399.476C133.384 399.95 134.501 400.25 135.64 400.367C138.427 400.766 141.235 401.028 144.042 401.12C144.88 401.241 145.73 401.048 146.456 400.572C147.617 399.568 147.296 397.537 146.622 396.087C145.793 394.3 144.611 392.74 143.162 391.523C142.485 391.042 141.863 390.475 141.307 389.834C140.7 388.897 140.273 387.833 140.054 386.707C139.285 383.898 138.354 381.146 137.267 378.468C137.195 378.131 137.012 377.835 136.754 377.636C136.496 377.438 136.18 377.353 135.868 377.396C133.237 377.281 131.216 376.152 128.771 375.364C126.585 374.68 124.793 377.247 123.425 378.879Z" fill="#3E3E54"/>
<path d="M405.962 336.383C405.517 338.209 404.108 339.521 402.781 340.708C401.422 342.092 399.841 343.187 398.119 343.938C397.18 344.104 396.305 344.568 395.602 345.273C395.304 345.749 395.116 346.297 395.053 346.87C394.017 353.295 396.793 360.233 394.586 366.27C393.499 368.848 390.94 370.252 388.484 371.154C382.62 373.333 376.352 373.801 370.157 374.063C354.254 374.733 338.328 374.157 322.499 372.34C321.048 372.259 319.618 371.924 318.262 371.348C314.791 369.636 313.185 365.174 312.698 361.02C312.512 359.434 312.387 357.688 311.393 356.524C308.823 353.523 305.436 356.524 302.783 357.357C298.767 358.443 294.528 357.871 290.869 355.748C286.673 353.261 283.617 348.171 283.969 342.922C283.97 342.436 284.088 341.96 284.311 341.541C284.582 341.195 284.944 340.951 285.346 340.84C285.749 340.73 286.172 340.76 286.559 340.925C287.323 341.284 288.04 341.752 288.693 342.317C293.231 345.649 299.199 344.816 304.586 343.869C314.356 342.135 323.649 339.772 333.595 339.225L356.45 337.958C361.703 337.673 369.504 338.882 372.529 332.766C373.814 330.175 371.804 327.414 372.374 324.527C372.905 321.871 373.719 319.293 374.798 316.847C375.751 314.69 376.642 312.168 378.466 310.742C378.839 310.457 382.03 308.117 383.998 310.605C383.998 310.605 383.998 310.731 383.998 310.856C383.894 311.678 383.024 314.12 382.962 315.421C382.869 316.334 382.04 322.724 383.646 321.457C383.754 321.367 383.846 321.255 383.915 321.126C383.988 320.987 384.05 320.842 384.102 320.693C384.547 319.552 384.848 318.273 385.304 317.098C386.437 314.173 388.439 311.759 390.981 310.251C391.381 309.957 391.859 309.821 392.338 309.863C392.584 309.942 392.808 310.088 392.989 310.288C393.17 310.487 393.303 310.734 393.374 311.004C393.528 311.547 393.556 312.124 393.457 312.682C393.199 313.979 392.853 315.253 392.421 316.493C392.192 317.263 392.026 318.053 391.924 318.855C391.745 320.108 391.977 321.39 392.576 322.473C392.763 322.821 392.978 323.149 393.219 323.454C394.09 324.546 395.146 325.441 396.327 326.09C398.513 327.334 400.937 328.064 402.958 329.593C404.978 331.123 406.635 333.781 405.962 336.383Z" fill="#3E3E54"/>
<path d="M376.363 388.293C374.446 390.85 372.446 392.801 370.53 395.368C369.877 396.224 366.603 397.046 365.681 397.525C365.234 397.797 364.719 397.905 364.213 397.833C363.706 397.761 363.233 397.514 362.863 397.126C362.578 396.695 362.416 396.181 362.398 395.648C362.379 395.116 362.505 394.589 362.759 394.136C363.28 393.237 363.939 392.445 364.707 391.797C367.65 388.921 370.312 385.053 370.074 380.728C369.918 377.955 368.582 375.41 368.313 372.648C367.629 365.95 380.973 355.474 385.552 363.713C390.131 371.952 380.662 382.496 376.363 388.293Z" fill="#3E3E54"/>
<path d="M339.594 384.984C341.71 387.973 344.271 390.547 347.167 392.595C347.72 392.933 348.152 393.468 348.39 394.113C348.467 394.579 348.397 395.059 348.192 395.474C347.986 395.89 347.657 396.215 347.26 396.395C346.469 396.731 345.619 396.864 344.774 396.783C342.702 396.783 340.433 396.681 338.63 395.471C337.874 394.932 337.179 394.296 336.558 393.577C330.853 387.369 325.3 380.983 319.899 374.417C318.531 372.751 317.101 370.914 316.905 368.712C316.614 365.288 319.453 362.355 322.499 361.762C325.545 361.169 328.632 362.367 331.409 363.862C335.698 366.144 334.662 368.769 335.387 372.991C335.986 377.277 337.421 381.368 339.594 384.984V384.984Z" fill="#3E3E54"/>
<path d="M402.471 359.936C402.331 360.139 402.15 360.303 401.942 360.415C401.44 360.561 400.915 360.59 400.402 360.502C399.888 360.414 399.397 360.209 398.958 359.902C387.728 353.58 378.113 344.177 366.841 337.912C365.184 336.988 363.34 335.961 362.697 334.044C362.598 333.763 362.522 333.473 362.469 333.177V333.177C361.837 329.753 365.919 330.21 367.753 331.396C371.234 333.679 374.612 336.121 378.041 338.471L397.726 352.04C399.86 353.5 402.181 355.258 402.709 357.973C402.795 358.301 402.819 358.645 402.778 358.982C402.737 359.32 402.632 359.645 402.471 359.936V359.936Z" fill="#FC68EE"/>
<path d="M401.942 360.415C401.44 360.561 400.915 360.59 400.402 360.502C399.888 360.414 399.397 360.209 398.958 359.902C387.728 353.58 378.113 344.177 366.841 337.912C365.184 336.988 363.34 335.961 362.697 334.044C362.598 333.763 362.522 333.473 362.469 333.177C363.65 332.492 365.764 332.96 366.945 333.724C370.416 336.007 373.804 338.449 377.222 340.799L396.907 354.367C399.052 355.84 401.372 357.585 401.901 360.301C401.932 360.336 401.932 360.381 401.942 360.415Z" fill="url(#paint8_linear_3_3)"/>
<path d="M365.971 333.04C365.971 333.04 284.125 275.07 261.249 216.462C261.249 216.462 259.239 211.361 252.681 214.099" stroke="#3E3E54" stroke-width="1.60546" stroke-miterlimit="10" stroke-linecap="round"/>
<path d="M239.989 221.163C239.989 221.163 236.488 223.731 235.907 225.659" stroke="#3E3E54" stroke-width="1.60546" stroke-miterlimit="10" stroke-linecap="round"/>
<path d="M406.615 328.418C407.083 328.362 407.554 328.482 407.951 328.76C408.105 328.922 408.227 329.117 408.309 329.333C408.391 329.549 408.432 329.782 408.428 330.016C408.426 330.62 408.314 331.217 408.101 331.773C407.888 332.33 407.576 332.834 407.185 333.256C406.809 333.747 406.28 334.064 405.703 334.147C405.323 334.115 404.953 333.998 404.616 333.801C404.279 333.605 403.982 333.334 403.745 333.005C403.11 332.326 402.508 331.61 401.942 330.86C401.217 329.89 400.533 328.578 402.098 328.372C403.603 328.296 405.111 328.312 406.615 328.418V328.418Z" fill="#3E3E54"/>
<path d="M406.615 328.418C407.083 328.362 407.554 328.482 407.951 328.76C408.105 328.922 408.227 329.117 408.309 329.333C408.391 329.549 408.432 329.782 408.428 330.016C408.426 330.62 408.314 331.217 408.101 331.773C407.888 332.33 407.576 332.834 407.185 333.256C406.809 333.747 406.28 334.064 405.703 334.147C405.323 334.115 404.953 333.998 404.616 333.801C404.279 333.605 403.982 333.334 403.745 333.005C403.11 332.326 402.508 331.61 401.942 330.86C401.217 329.89 400.533 328.578 402.098 328.372C403.603 328.296 405.111 328.312 406.615 328.418V328.418Z" fill="url(#paint9_linear_3_3)"/>
<path d="M393.26 323.409C392.429 322.528 391.352 321.985 390.204 321.868C389.04 321.699 387.863 321.661 386.692 321.754C386.495 321.754 386.257 321.754 386.184 321.526C386.138 321.401 386.138 321.262 386.184 321.138C386.719 319.304 387.413 317.531 388.256 315.843C389.105 314.149 390.378 312.758 391.924 311.838C392.027 311.764 392.142 311.713 392.263 311.69C392.384 311.666 392.509 311.67 392.628 311.701C393.012 311.86 393.063 312.431 392.991 312.842C392.797 313.772 392.559 314.69 392.276 315.592C392.018 316.628 391.913 317.703 391.965 318.776C391.787 320.028 392.018 321.31 392.618 322.393C392.803 322.753 393.018 323.093 393.26 323.409V323.409Z" fill="url(#paint10_linear_3_3)"/>
<path d="M383.615 321.446C383.723 321.356 383.815 321.244 383.884 321.115V321.434C383.884 321.685 383.801 322.039 383.553 322.142C383.304 322.245 383.252 322.005 383.045 321.959C382.404 321.963 381.789 322.236 381.325 322.724C380.081 323.653 378.742 324.419 377.336 325.006C376.767 321.868 377.751 318.639 378.994 315.752C379.451 314.575 380.073 313.485 380.838 312.522C381.611 311.548 382.702 310.949 383.874 310.856H384.04C383.936 311.678 383.066 314.12 383.004 315.421C382.838 316.322 382.009 322.713 383.615 321.446Z" fill="url(#paint11_linear_3_3)"/>
<path d="M387.293 330.643C387.802 330.643 388.215 330.189 388.215 329.628C388.215 329.067 387.802 328.612 387.293 328.612C386.783 328.612 386.371 329.067 386.371 329.628C386.371 330.189 386.783 330.643 387.293 330.643Z" fill="url(#paint12_linear_3_3)"/>
<path d="M187.525 275.321C187.39 274.716 187.255 274.18 187.121 273.598C187.312 274.154 187.448 274.732 187.525 275.321Z" fill="url(#paint13_linear_3_3)"/>
<path d="M221.32 274.819C221.462 276.139 221.153 277.47 220.455 278.554C219.756 279.637 218.717 280.397 217.539 280.685C217.021 280.936 216.503 281.164 215.933 281.392L215.808 281.267C215.035 280.204 214.515 278.944 214.296 277.603C209.909 258.394 204.396 239.518 197.792 221.095C196.31 216.929 190.136 207.949 193.202 203.167C195.121 202.919 197.051 202.793 198.983 202.791C201.553 202.893 203.127 204.742 204.764 206.979C208.183 211.543 210.017 217.363 211.592 222.955C215.808 237.721 221.755 259.345 221.32 274.819Z" fill="url(#paint14_linear_3_3)"/>
<defs>
<linearGradient id="paint0_linear_3_3" x1="407.982" y1="387.426" x2="389.95" y2="369.882" gradientUnits="userSpaceOnUse">
<stop stop-opacity="0"/>
<stop offset="0.99"/>
</linearGradient>
<linearGradient id="paint1_linear_3_3" x1="7138.21" y1="10683.1" x2="7513.14" y2="10429.1" gradientUnits="userSpaceOnUse">
<stop stop-opacity="0"/>
<stop offset="0.99"/>
</linearGradient>
<linearGradient id="paint2_linear_3_3" x1="128.367" y1="325.474" x2="182.541" y2="325.474" gradientUnits="userSpaceOnUse">
<stop stop-color="#E5C5D5"/>
<stop offset="0.42" stop-color="#EAD4D1"/>
<stop offset="1" stop-color="#F0E9CB"/>
</linearGradient>
<linearGradient id="paint3_linear_3_3" x1="6979.85" y1="34378.3" x2="8218.62" y2="34378.3" gradientUnits="userSpaceOnUse">
<stop stop-color="#E5C5D5"/>
<stop offset="0.42" stop-color="#EAD4D1"/>
<stop offset="1" stop-color="#F0E9CB"/>
</linearGradient>
<linearGradient id="paint4_linear_3_3" x1="12138.9" y1="12497.8" x2="15573.3" y2="12497.8" gradientUnits="userSpaceOnUse">
<stop stop-color="#E5C5D5"/>
<stop offset="0.42" stop-color="#EAD4D1"/>
<stop offset="1" stop-color="#F0E9CB"/>
</linearGradient>
<linearGradient id="paint5_linear_3_3" x1="6120.06" y1="4341.15" x2="7235.27" y2="4341.15" gradientUnits="userSpaceOnUse">
<stop stop-color="#E5C5D5"/>
<stop offset="0.42" stop-color="#EAD4D1"/>
<stop offset="1" stop-color="#F0E9CB"/>
</linearGradient>
<linearGradient id="paint6_linear_3_3" x1="4891.89" y1="13471.1" x2="10749.7" y2="15397.6" gradientUnits="userSpaceOnUse">
<stop stop-opacity="0"/>
<stop offset="0.99"/>
</linearGradient>
<linearGradient id="paint7_linear_3_3" x1="8144.89" y1="20764.6" x2="11930.2" y2="20764.6" gradientUnits="userSpaceOnUse">
<stop stop-color="#E5C5D5"/>
<stop offset="0.42" stop-color="#EAD4D1"/>
<stop offset="1" stop-color="#F0E9CB"/>
</linearGradient>
<linearGradient id="paint8_linear_3_3" x1="14375.7" y1="8799.43" x2="15880" y2="8799.43" gradientUnits="userSpaceOnUse">
<stop stop-opacity="0"/>
<stop offset="0.99"/>
</linearGradient>
<linearGradient id="paint9_linear_3_3" x1="3312.49" y1="1997.61" x2="3264.7" y2="2061.9" gradientUnits="userSpaceOnUse">
<stop stop-opacity="0"/>
<stop offset="0.99"/>
</linearGradient>
<linearGradient id="paint10_linear_3_3" x1="3152.11" y1="3561.54" x2="3065.76" y2="3594.62" gradientUnits="userSpaceOnUse">
<stop stop-opacity="0"/>
<stop offset="0.99"/>
</linearGradient>
<linearGradient id="paint11_linear_3_3" x1="2982.47" y1="4102.66" x2="2850" y2="4242.76" gradientUnits="userSpaceOnUse">
<stop stop-opacity="0"/>
<stop offset="0.99"/>
</linearGradient>
<linearGradient id="paint12_linear_3_3" x1="987.009" y1="908.11" x2="982.741" y2="914.8" gradientUnits="userSpaceOnUse">
<stop stop-opacity="0"/>
<stop offset="0.99"/>
</linearGradient>
<linearGradient id="paint13_linear_3_3" x1="262.182" y1="690.936" x2="262.339" y2="690.936" gradientUnits="userSpaceOnUse">
<stop stop-opacity="0"/>
<stop offset="0.99"/>
</linearGradient>
<linearGradient id="paint14_linear_3_3" x1="6694.72" y1="16423.7" x2="4246.58" y2="16743.7" gradientUnits="userSpaceOnUse">
<stop stop-opacity="0"/>
<stop offset="0.99"/>
</linearGradient>
</defs>
</svg>
