<svg width="1366" height="602" viewBox="0 0 1366 602" fill="none" xmlns="http://www.w3.org/2000/svg">
<rect width="1366" height="602" fill="url(#paint0_linear_66_128)"/>
<path d="M729.95 0H1366V300.882C1343.06 375.687 1270.29 461.02 1233.19 423.34C1191.21 380.707 1296.14 256.507 1233.19 238.267C1168.78 219.604 1132.93 400.975 1071.96 375.687C1013.41 351.4 1175.14 209.098 1121.21 178.423C1068.68 148.544 1012.07 337.294 966.055 300.882C916.329 261.536 1062.29 88.459 997.086 69.8179C945.658 55.1161 938.165 233.113 887.803 216.103C828.551 196.09 904.807 104.639 856.772 69.8179C804.315 31.7918 830.836 175.497 777.846 137.973C718.133 95.6901 729.95 0 729.95 0Z" fill="white"/>
<path opacity="0.18" d="M924.433 554.282C925.324 561.762 932.721 564.713 938.772 565.947C1001.64 578.771 1065.78 577.219 1129.48 575.539C1154.6 574.865 1179.77 574.102 1204.7 570.285C1221.4 567.741 1255.37 565.4 1267.73 550.223C1258.95 543.697 1242.17 547.285 1232.05 547.208C1207.05 547.03 1182.05 546.903 1157.05 547.056C1107.76 547.353 1058.47 548.43 1009.18 550.287C980.931 551.364 952.682 552.696 924.433 554.282Z" fill="#FC68EE"/>
<path d="M1083.67 564.052C1082.84 564.757 1081.85 565.138 1080.84 565.146C1073.52 566.262 1066.15 566.891 1058.78 567.029C1057.76 567.107 1056.75 566.929 1055.79 566.507C1055.29 566.335 1054.86 565.971 1054.54 565.468C1054.23 564.966 1054.05 564.352 1054.05 563.718C1054.04 563.084 1054.2 562.464 1054.5 561.951C1054.81 561.438 1055.24 561.059 1055.73 560.871C1056.67 560.42 1057.68 560.195 1058.69 560.21C1066.63 559.777 1074.89 559.408 1082.81 560.451C1083.15 560.455 1083.49 560.593 1083.76 560.847C1084.03 561.1 1084.23 561.455 1084.33 561.859C1084.43 562.263 1084.42 562.695 1084.3 563.089C1084.18 563.484 1083.96 563.822 1083.67 564.052V564.052Z" fill="#FC68EE"/>
<path d="M961.409 561.787C962.122 562.941 962.974 563.953 963.937 564.79C965.508 565.816 967.255 566.374 969.034 566.418C972.488 566.842 975.958 567.173 979.446 567.41C980.085 567.546 980.743 567.412 981.311 567.029C981.69 566.569 981.91 565.947 981.925 565.293C981.941 564.64 981.751 564.004 981.394 563.517C980.626 562.594 979.682 561.92 978.649 561.558C972.972 558.834 967.815 554.698 963.502 549.409C961.824 547.336 956.084 539.372 954.374 546.089C953.059 551.203 958.995 558.302 961.409 561.787Z" fill="#FC68EE"/>
<path d="M1238.81 531.586C1240 532.813 1240.98 534.312 1241.7 536.001C1242.31 538.005 1242.53 540.157 1242.34 542.285C1242.19 545.573 1241.85 548.843 1241.3 552.068C1241.15 553.06 1240.77 554.282 1239.94 554.332C1239.7 554.314 1239.47 554.235 1239.25 554.102C1239.04 553.968 1238.85 553.783 1238.7 553.556C1237.9 552.578 1237.27 551.414 1236.84 550.133C1236.4 548.851 1236.18 547.476 1236.19 546.089C1236.3 545.029 1236.24 543.952 1236.01 542.921C1235.41 541.635 1234.44 540.671 1233.3 540.224L1225.53 535.835C1223.38 534.627 1221.05 533.164 1220.25 530.454C1219.01 526.231 1223.16 519.005 1226.91 519.005C1230.66 519.005 1236.21 528.508 1238.81 531.586Z" fill="#3E3E54"/>
<path d="M1141.63 539.016C1140.49 540.473 1139.24 541.789 1137.9 542.947C1136.55 544.114 1135.49 545.729 1134.86 547.603C1134.57 548.547 1134.53 549.582 1134.76 550.553C1134.99 551.523 1135.47 552.377 1136.13 552.984C1138.15 554.511 1140.67 552.551 1142.49 550.681L1154.39 538.481C1155.62 537.415 1156.62 535.984 1157.28 534.321C1158.03 531.943 1157.36 529.233 1156.49 526.956C1155.83 524.991 1154.85 523.212 1153.61 521.727C1145.19 512.377 1144.8 534.372 1141.63 539.016Z" fill="#3E3E54"/>
<path d="M1238.81 531.586C1240 532.813 1240.98 534.312 1241.7 536.001C1242.31 538.005 1242.53 540.157 1242.34 542.285C1242.19 545.573 1241.85 548.843 1241.3 552.068C1241.15 553.06 1240.77 554.282 1239.94 554.332C1239.7 554.314 1239.47 554.235 1239.25 554.102C1239.04 553.968 1238.85 553.783 1238.7 553.556C1237.9 552.578 1237.27 551.414 1236.84 550.133C1236.4 548.851 1236.18 547.476 1236.19 546.089C1236.3 545.029 1236.24 543.952 1236.01 542.921C1235.41 541.635 1234.44 540.671 1233.3 540.224L1225.53 535.835C1223.38 534.627 1221.05 533.164 1220.25 530.454C1219.01 526.231 1223.16 519.005 1226.91 519.005C1230.66 519.005 1236.21 528.508 1238.81 531.586Z" fill="url(#paint1_linear_66_128)"/>
<path d="M1141.63 539.016C1140.49 540.473 1139.24 541.789 1137.9 542.947C1136.55 544.114 1135.49 545.729 1134.86 547.603C1134.57 548.547 1134.53 549.582 1134.76 550.553C1134.99 551.523 1135.47 552.377 1136.13 552.984C1138.15 554.511 1140.67 552.551 1142.49 550.681L1154.39 538.481C1155.62 537.415 1156.62 535.984 1157.28 534.321C1158.03 531.943 1157.36 529.233 1156.49 526.956C1155.83 524.991 1154.85 523.212 1153.61 521.727C1145.19 512.377 1144.8 534.372 1141.63 539.016Z" fill="url(#paint2_linear_66_128)"/>
<path d="M1013.14 426.418C1002.68 463.857 987.983 499.261 973.323 534.551C972.287 537.006 971.179 539.639 969.179 540.911C967.18 542.183 964.206 541.636 963.492 539.028C963.284 537.958 963.284 536.842 963.492 535.772C965.564 519.717 969.977 504.172 971.22 487.99C971.666 482.151 971.718 476.095 973.634 470.714C976.059 463.908 981.177 458.985 983.56 452.153C985.114 447.688 985.383 442.727 985.859 437.892C986.508 431.244 987.592 424.671 989.102 418.238C998.843 419.033 1008.43 421.654 1017.52 426.01" fill="url(#paint3_linear_66_128)"/>
<path d="M1049.99 419.09C1056.9 457.738 1059.31 497.366 1061.71 536.828C1061.87 539.576 1062.01 542.514 1060.91 544.906C1059.81 547.297 1056.96 548.722 1055.25 546.929C1054.62 546.156 1054.14 545.21 1053.85 544.168C1048.8 529.157 1046.02 513.026 1040.24 498.371C1038.17 493.091 1035.63 487.888 1034.99 482.062C1034.18 474.708 1036.47 467.228 1035.61 459.888C1035.05 455.066 1033.18 450.652 1031.54 446.225C1029.29 440.126 1027.43 433.817 1026 427.359C1034.66 421.843 1043.95 417.983 1053.56 415.91" fill="url(#paint4_linear_66_128)"/>
<path d="M1048.26 303.222C1051.43 311.58 1054.63 320.002 1059.03 327.482C1063.44 334.963 1069.17 341.476 1076.16 344.898C1082.51 347.977 1089.85 348.435 1095.27 353.523C1095.83 353.982 1096.28 354.62 1096.56 355.368C1096.77 356.377 1096.67 357.445 1096.28 358.37C1093.17 367.682 1082.45 371.575 1075.71 365.825C1074.18 364.553 1072.88 362.835 1071.33 361.55C1069.23 360.067 1067.03 358.791 1064.76 357.734C1060.1 355.088 1056.1 350.979 1052.18 346.921C1048.25 342.863 1044.37 338.728 1042.85 332.927C1041.1 326.172 1036.39 319.29 1037.09 312.255C1037.5 308.158 1038.28 303.795 1037.82 299.711C1037.47 296.696 1038.19 288.656 1039.71 286.099C1041.81 290.412 1046.48 298.604 1048.26 303.222Z" fill="url(#paint5_linear_66_128)"/>
<path d="M1044.68 217.657C1044.94 220.582 1044.73 223.543 1044.07 226.372C1043.39 229.208 1041.87 231.629 1039.81 233.165C1038.6 233.92 1037.28 234.361 1035.93 234.462C1034.58 234.562 1033.22 234.32 1031.95 233.75C1031.42 233.435 1030.82 233.358 1030.25 233.534C1029.86 233.786 1029.55 234.194 1029.37 234.691C1028.16 237.401 1028.15 240.658 1027.3 243.597C1027.05 244.423 1027.72 251.509 1027.15 252.044C1026.58 252.578 1025.07 246.421 1024.55 246.561C1022.93 246.974 1021.26 246.974 1019.64 246.561C1019.07 246.455 1018.53 246.185 1018.06 245.772C1017.67 245.403 1011.94 250.275 1011.69 249.741C1008.49 242.846 1014.86 228.929 1014.66 220.978C1014.53 215.431 1013.9 209.35 1016.48 204.796C1018.27 201.666 1021.24 199.924 1024.17 198.69C1026.76 197.515 1029.49 196.879 1032.25 196.807C1036.25 196.807 1039.51 198.257 1041.29 202.697C1043.17 207.377 1044.32 212.453 1044.68 217.657V217.657Z" fill="url(#paint6_linear_66_128)"/>
<path d="M1040.48 192.545C1041.85 195.853 1041.86 200.178 1039.9 203.028C1039.07 204.147 1038.07 205.058 1036.96 205.712C1034.67 207.184 1032.18 208.124 1029.61 208.485C1028.89 208.491 1028.17 208.723 1027.54 209.159C1027 209.707 1026.6 210.43 1026.38 211.246C1025.62 213.562 1025.17 216.008 1025.02 218.497C1024.33 218.98 1023.46 218.293 1023 217.492C1022.55 216.691 1022.21 215.698 1021.51 215.228C1020.29 214.375 1018.68 215.825 1018.4 217.517C1018.31 219.26 1018.79 220.974 1019.73 222.288C1020.59 223.738 1021.66 225.392 1021.27 227.122C1020.92 228.187 1020.29 229.08 1019.49 229.666L1014.92 233.903C1014.73 234.176 1014.5 234.394 1014.23 234.541C1013.97 234.688 1013.68 234.76 1013.39 234.751C1013.09 234.743 1012.81 234.654 1012.55 234.492C1012.29 234.33 1012.06 234.098 1011.88 233.814C1009.76 231.793 1007.83 229.465 1006.16 226.88C1003.55 222.298 1002.29 216.76 1002.59 211.182C1002.8 206.703 1003.82 202.338 1005.58 198.405C1007.34 194.472 1009.79 191.071 1012.75 188.449C1020.94 181.35 1035.24 179.734 1040.48 192.545Z" fill="#3E3E54"/>
<path d="M1003.54 170.893C1001.4 170.534 999.22 170.986 997.291 172.189C995.363 173.391 993.778 175.287 992.749 177.623C991.87 179.959 991.417 182.504 991.423 185.078C991.361 186.63 991.483 188.186 991.786 189.695C992.52 192.479 993.864 194.962 995.671 196.87C996.588 197.971 997.636 198.893 998.779 199.606C1001.31 200.853 1004.09 201.115 1006.75 200.356C1008.01 200.133 1009.24 199.705 1010.4 199.084C1011.65 198.353 1012.74 197.287 1013.6 195.965C1014.46 194.644 1015.06 193.1 1015.37 191.451C1015.54 190.522 1015.54 189.556 1015.37 188.627C1015.2 187.919 1014.96 187.237 1014.67 186.591C1013.28 183.284 1012.77 179.416 1010.92 176.414C1009.14 173.462 1006.5 171.48 1003.54 170.893V170.893Z" fill="#3E3E54"/>
<path d="M998.302 337.761C993.754 332.609 994.055 329.327 993.423 321.758C992.838 314.712 993.365 307.593 994.977 300.793C997.536 289.979 992.242 280.438 994.676 269.523C996.168 262.87 1005.27 227.86 1027.91 249.169C1031.02 252.082 1032.15 257.209 1034.52 261.012C1037.24 265.35 1040.83 268.849 1043.13 273.53C1044.66 276.816 1045.52 280.511 1045.63 284.295C1045.73 288.079 1045.09 291.838 1043.74 295.246C1042.42 298.643 1040.41 301.238 1039.24 304.749C1037.9 309.196 1037.31 313.931 1037.51 318.666C1037.59 325.078 1037.89 331.481 1038.42 337.876C1038.76 342.023 1040.88 347.442 1038.67 351.093C1036.45 354.744 1029.97 355.597 1026.68 356.246C1018.39 357.887 1009.19 356.869 1002.5 350.063C999.525 347.048 997.111 342.239 998.302 337.736" fill="#FC68EE"/>
<path d="M1013.54 311.072C1013.04 318.781 1014.49 326.452 1014.76 334.174C1015.04 341.896 1014.12 349.974 1013.2 357.81L1011.05 376.078C1011.02 376.476 1010.92 376.861 1010.77 377.211C1010.11 378.483 1008.55 377.694 1007.66 376.689C1002.92 371.13 1003.21 361.983 1002.05 354.058C1000.78 345.369 997.442 337.354 995.515 328.843C993.049 318.245 993.081 307.005 995.609 296.429C997.207 290.511 999.326 284.825 1001.93 279.471C1004.43 274.052 1007.23 268.594 1011.43 265.096C1014.37 262.628 1021.79 249.652 1024.9 253.29C1027.72 256.598 1024.35 272.983 1023.25 276.596C1019.86 287.969 1014.34 298.719 1013.54 311.072Z" fill="url(#paint7_linear_66_128)"/>
<path d="M1056.32 423.428C1056.46 424.9 1056.15 426.383 1055.45 427.591C1054.76 428.8 1053.72 429.646 1052.54 429.967C1052.02 430.247 1051.5 430.501 1050.93 430.756C1044.49 433.745 1035.62 435.348 1029.12 436.124C1028.09 436.382 1027.02 436.198 1026.08 435.602C1025.51 435.051 1025.05 434.346 1024.74 433.542C1023.95 431.862 1023.26 427.613 1022.54 424C1022.53 423.975 1022.53 423.949 1022.54 423.924C1022.4 423.25 1022.27 422.652 1022.13 422.003C1021.92 420.952 1021.62 419.932 1021.23 418.963C1021.29 419.414 1021.29 419.873 1021.23 420.324C1021.01 423.937 1019.29 432.384 1018.21 433.325C1016.89 434.346 1015.38 434.957 1013.82 435.106C1005.48 436.638 996.957 434.888 989.475 430.107C988.386 429.391 987.328 428.605 986.305 427.753C985.488 427.178 984.82 426.331 984.378 425.311C984.328 425.131 984.307 424.941 984.316 424.751C984.243 422.207 985.414 413.403 985.538 412.322C987.61 394.512 989.683 376.702 993.174 359.312C993.816 355.793 994.653 352.333 995.681 348.956C995.816 348.536 995.951 348.117 996.096 347.684C996.571 345.976 997.421 344.462 998.551 343.308C1000.22 341.845 1002.45 341.947 1004.49 342.112L1024.55 343.677C1025.77 343.747 1027 343.709 1028.22 343.562C1030.14 343.285 1032.07 343.145 1034 343.142C1036.57 343.257 1038.15 345.318 1039.79 347.811C1043.2 352.9 1045.04 359.388 1046.61 365.621C1050.81 382.07 1056.76 406.178 1056.32 423.428Z" fill="white"/>
<path d="M969.583 350.75C968.05 353.93 966.268 356.92 964.942 360.227C962.481 366.423 961.735 373.436 962.818 380.2C963.378 383.648 964.528 387.172 966.848 389.233C969.169 391.293 972.868 391.255 974.546 388.406C976.919 384.373 974.256 377.516 977.354 374.323C977.354 375.595 979.125 375.939 979.83 374.921C980.412 373.786 980.606 372.414 980.369 371.104C980.047 367.033 980.255 363.064 979.933 358.993C982.824 353.612 985.746 348.155 987.403 342.048C989.475 334.415 989.475 326.096 992.521 319.022C994.728 313.832 998.323 309.799 1001.64 305.588C1009.77 295.21 1016.42 283.23 1021.32 270.146C1023.15 265.261 1024.75 260.122 1024.94 254.753C1025.1 249.983 1018.88 247.006 1014.98 247.184C1011.09 247.362 1007.49 249.995 1004.79 253.443C1002.2 257.019 999.99 260.986 998.219 265.249C992.549 277.58 986.878 289.907 981.208 302.23C980.078 304.749 973.665 342.29 969.583 350.75Z" fill="url(#paint8_linear_66_128)"/>
<path d="M1053.68 561.762C1053.77 562.435 1054.04 563.054 1054.43 563.53C1054.94 563.911 1055.54 564.076 1056.13 564.001C1064.87 564.001 1073.59 563.556 1082.29 562.665C1083.33 562.563 1084.6 562.131 1084.7 560.884C1084.7 560.439 1084.61 560.001 1084.44 559.612C1082.64 554.981 1078.8 552.144 1075.11 549.638C1071.66 547.255 1068.15 544.94 1064.58 542.692C1063.96 542.197 1063.24 541.936 1062.51 541.942C1061.89 542.087 1061.31 542.391 1060.8 542.832C1058.4 544.473 1054.72 544.104 1053.43 547.412C1051.96 551.356 1052.83 557.755 1053.68 561.762Z" fill="#3E3E54"/>
<path d="M958.425 539.436C957.389 540.784 956.353 542.298 956.291 544.13C956.369 545.651 956.817 547.109 957.576 548.315C959.384 551.767 961.355 555.084 963.481 558.251C964.49 559.973 965.804 561.391 967.325 562.398C968.384 562.926 969.501 563.261 970.64 563.39C973.427 563.835 976.235 564.128 979.042 564.23C979.88 564.365 980.73 564.15 981.456 563.619C982.617 562.5 982.296 560.235 981.622 558.62C980.793 556.627 979.611 554.888 978.162 553.531C977.485 552.995 976.863 552.363 976.307 551.648C975.7 550.604 975.273 549.417 975.054 548.162C974.285 545.031 973.354 541.963 972.267 538.978C972.195 538.601 972.012 538.271 971.754 538.05C971.496 537.829 971.18 537.734 970.868 537.782C968.237 537.655 966.216 536.395 963.771 535.517C961.585 534.754 959.793 537.616 958.425 539.436Z" fill="#3E3E54"/>
<path d="M1240.96 492.061C1240.52 494.096 1239.11 495.559 1237.78 496.882C1236.42 498.425 1234.84 499.646 1233.12 500.482C1232.18 500.668 1231.31 501.185 1230.6 501.971C1230.3 502.501 1230.12 503.112 1230.05 503.752C1229.02 510.914 1231.79 518.649 1229.59 525.378C1228.5 528.253 1225.94 529.818 1223.48 530.823C1217.62 533.253 1211.35 533.774 1205.16 534.067C1189.25 534.813 1173.33 534.171 1157.5 532.146C1156.05 532.055 1154.62 531.682 1153.26 531.039C1149.79 529.131 1148.19 524.157 1147.7 519.526C1147.51 517.758 1147.39 515.812 1146.39 514.514C1143.82 511.168 1140.44 514.514 1137.78 515.443C1133.77 516.653 1129.53 516.015 1125.87 513.649C1121.67 510.876 1118.62 505.202 1118.97 499.35C1118.97 498.809 1119.09 498.278 1119.31 497.811C1119.58 497.425 1119.94 497.152 1120.35 497.029C1120.75 496.906 1121.17 496.939 1121.56 497.124C1122.32 497.524 1123.04 498.046 1123.69 498.676C1128.23 502.39 1134.2 501.462 1139.59 500.406C1149.36 498.472 1158.65 495.839 1168.6 495.228L1191.45 493.816C1196.7 493.498 1204.5 494.847 1207.53 488.028C1208.81 485.14 1206.8 482.061 1207.37 478.843C1207.91 475.882 1208.72 473.008 1209.8 470.281C1210.75 467.877 1211.64 465.066 1213.47 463.475C1213.84 463.157 1217.03 460.549 1219 463.323C1219 463.323 1219 463.463 1219 463.603C1218.89 464.518 1218.02 467.241 1217.96 468.691C1217.87 469.709 1217.04 476.833 1218.65 475.421C1218.75 475.321 1218.85 475.195 1218.92 475.052C1218.99 474.897 1219.05 474.735 1219.1 474.568C1219.55 473.296 1219.85 471.871 1220.3 470.561C1221.44 467.301 1223.44 464.609 1225.98 462.928C1226.38 462.601 1226.86 462.448 1227.34 462.496C1227.58 462.584 1227.81 462.746 1227.99 462.969C1228.17 463.191 1228.3 463.466 1228.37 463.768C1228.53 464.373 1228.56 465.016 1228.46 465.638C1228.2 467.084 1227.85 468.505 1227.42 469.887C1227.19 470.745 1227.03 471.626 1226.92 472.52C1226.75 473.917 1226.98 475.346 1227.58 476.553C1227.76 476.941 1227.98 477.307 1228.22 477.647C1229.09 478.864 1230.15 479.862 1231.33 480.586C1233.51 481.972 1235.94 482.787 1237.96 484.491C1239.98 486.196 1241.64 489.16 1240.96 492.061Z" fill="#3E3E54"/>
<path d="M1211.36 549.931C1209.45 552.78 1207.45 554.956 1205.53 557.818C1204.88 558.772 1201.6 559.688 1200.68 560.222C1200.23 560.526 1199.72 560.646 1199.21 560.566C1198.71 560.486 1198.23 560.21 1197.86 559.777C1197.58 559.297 1197.42 558.724 1197.4 558.13C1197.38 557.536 1197.51 556.95 1197.76 556.444C1198.28 555.442 1198.94 554.559 1199.71 553.836C1202.65 550.63 1205.31 546.318 1205.07 541.496C1204.92 538.405 1203.58 535.568 1203.31 532.49C1202.63 525.022 1215.97 513.344 1220.55 522.529C1225.13 531.714 1215.66 543.468 1211.36 549.931Z" fill="#3E3E54"/>
<path d="M1174.59 546.242C1176.71 549.574 1179.27 552.443 1182.17 554.727C1182.72 555.103 1183.15 555.7 1183.39 556.419C1183.47 556.938 1183.4 557.473 1183.19 557.936C1182.99 558.399 1182.66 558.762 1182.26 558.963C1181.47 559.338 1180.62 559.486 1179.77 559.396C1177.7 559.396 1175.43 559.281 1173.63 557.933C1172.87 557.331 1172.18 556.622 1171.56 555.821C1165.85 548.9 1160.3 541.781 1154.9 534.461C1153.53 532.604 1152.1 530.556 1151.9 528.101C1151.61 524.284 1154.45 521.015 1157.5 520.353C1160.55 519.692 1163.63 521.027 1166.41 522.694C1170.7 525.238 1169.66 528.164 1170.39 532.871C1170.99 537.649 1172.42 542.211 1174.59 546.242V546.242Z" fill="#3E3E54"/>
<path d="M1237.47 518.318C1237.33 518.544 1237.15 518.727 1236.94 518.852C1236.44 519.014 1235.92 519.047 1235.4 518.949C1234.89 518.85 1234.4 518.622 1233.96 518.28C1222.73 511.232 1213.11 500.749 1201.84 493.765C1200.18 492.735 1198.34 491.59 1197.7 489.453C1197.6 489.139 1197.52 488.816 1197.47 488.486V488.486C1196.84 484.669 1200.92 485.178 1202.75 486.501C1206.23 489.046 1209.61 491.768 1213.04 494.389L1232.73 509.515C1234.86 511.143 1237.18 513.102 1237.71 516.13C1237.8 516.495 1237.82 516.878 1237.78 517.255C1237.74 517.631 1237.63 517.993 1237.47 518.318V518.318Z" fill="#FC68EE"/>
<path d="M1240.47 519.026C1239.97 519.188 1239.45 519.221 1238.93 519.122C1238.42 519.024 1237.93 518.796 1237.49 518.453C1226.26 511.405 1216.64 500.923 1205.37 493.939C1203.71 492.908 1201.87 491.763 1201.23 489.626C1201.13 489.313 1201.05 488.989 1201 488.659C1202.18 487.896 1204.29 488.418 1205.48 489.27C1208.95 491.814 1212.33 494.537 1215.75 497.157L1235.44 512.283C1237.58 513.924 1239.9 515.871 1240.43 518.898C1240.46 518.937 1240.46 518.987 1240.47 519.026Z" fill="url(#paint9_linear_66_128)"/>
<path d="M1200.97 488.333C1200.97 488.333 1119.12 423.708 1096.25 358.37C1096.25 358.37 1094.24 352.684 1087.68 355.737" stroke="#3E3E54" stroke-width="1.60546" stroke-miterlimit="10" stroke-linecap="round"/>
<path d="M1074.99 363.611C1074.99 363.611 1071.49 366.474 1070.91 368.624" stroke="#3E3E54" stroke-width="1.60546" stroke-miterlimit="10" stroke-linecap="round"/>
<path d="M1241.61 483.181C1242.08 483.118 1242.55 483.253 1242.95 483.563C1243.11 483.743 1243.23 483.96 1243.31 484.201C1243.39 484.442 1243.43 484.701 1243.43 484.962C1243.43 485.635 1243.31 486.301 1243.1 486.921C1242.89 487.542 1242.58 488.104 1242.18 488.575C1241.81 489.121 1241.28 489.475 1240.7 489.567C1240.32 489.532 1239.95 489.401 1239.62 489.182C1239.28 488.963 1238.98 488.661 1238.74 488.295C1238.11 487.538 1237.51 486.74 1236.94 485.903C1236.22 484.822 1235.53 483.359 1237.1 483.13C1238.6 483.045 1240.11 483.062 1241.61 483.181V483.181Z" fill="#3E3E54"/>
<path d="M1241.61 483.181C1242.08 483.118 1242.55 483.253 1242.95 483.563C1243.11 483.743 1243.23 483.96 1243.31 484.201C1243.39 484.442 1243.43 484.701 1243.43 484.962C1243.43 485.635 1243.31 486.301 1243.1 486.921C1242.89 487.542 1242.58 488.104 1242.18 488.575C1241.81 489.121 1241.28 489.475 1240.7 489.567C1240.32 489.532 1239.95 489.401 1239.62 489.182C1239.28 488.963 1238.98 488.661 1238.74 488.295C1238.11 487.538 1237.51 486.74 1236.94 485.903C1236.22 484.822 1235.53 483.359 1237.1 483.13C1238.6 483.045 1240.11 483.062 1241.61 483.181V483.181Z" fill="url(#paint10_linear_66_128)"/>
<path d="M1228.26 477.596C1227.43 476.615 1226.35 476.01 1225.2 475.879C1224.04 475.69 1222.86 475.648 1221.69 475.752C1221.49 475.752 1221.26 475.752 1221.18 475.497C1221.14 475.359 1221.14 475.203 1221.18 475.065C1221.72 473.02 1222.41 471.044 1223.26 469.162C1224.11 467.273 1225.38 465.723 1226.92 464.697C1227.03 464.614 1227.14 464.558 1227.26 464.532C1227.38 464.506 1227.51 464.51 1227.63 464.544C1228.01 464.722 1228.06 465.358 1227.99 465.816C1227.8 466.853 1227.56 467.876 1227.28 468.882C1227.02 470.037 1226.91 471.235 1226.97 472.431C1226.79 473.828 1227.02 475.257 1227.62 476.464C1227.8 476.865 1228.02 477.244 1228.26 477.596V477.596Z" fill="url(#paint11_linear_66_128)"/>
<path d="M1218.61 475.408C1218.72 475.308 1218.81 475.183 1218.88 475.039V475.395C1218.88 475.675 1218.8 476.07 1218.55 476.184C1218.3 476.299 1218.25 476.032 1218.04 475.981C1217.4 475.984 1216.79 476.289 1216.33 476.833C1215.08 477.869 1213.74 478.723 1212.34 479.377C1211.77 475.879 1212.75 472.279 1213.99 469.06C1214.45 467.748 1215.07 466.533 1215.84 465.46C1216.61 464.374 1217.7 463.706 1218.87 463.603H1219.04C1218.94 464.518 1218.07 467.241 1218 468.691C1217.84 469.696 1217.01 476.82 1218.61 475.408Z" fill="url(#paint12_linear_66_128)"/>
<path d="M1222.29 485.662C1222.8 485.662 1223.21 485.155 1223.21 484.529C1223.21 483.904 1222.8 483.397 1222.29 483.397C1221.78 483.397 1221.37 483.904 1221.37 484.529C1221.37 485.155 1221.78 485.662 1222.29 485.662Z" fill="url(#paint13_linear_66_128)"/>
<path d="M1022.52 423.988C1022.39 423.314 1022.26 422.716 1022.12 422.067C1022.31 422.687 1022.45 423.331 1022.52 423.988Z" fill="url(#paint14_linear_66_128)"/>
<path d="M1056.32 423.428C1056.46 424.9 1056.15 426.383 1055.45 427.591C1054.76 428.8 1053.72 429.646 1052.54 429.967C1052.02 430.247 1051.5 430.501 1050.93 430.756L1050.81 430.616C1050.03 429.431 1049.51 428.027 1049.3 426.532C1044.91 405.117 1039.4 384.074 1032.79 363.535C1031.31 358.892 1025.14 348.88 1028.2 343.55C1030.12 343.272 1032.05 343.132 1033.98 343.13C1036.55 343.244 1038.13 345.305 1039.76 347.799C1043.18 352.887 1045.02 359.375 1046.59 365.609C1050.81 382.07 1056.76 406.178 1056.32 423.428Z" fill="url(#paint15_linear_66_128)"/>
<defs>
<linearGradient id="paint0_linear_66_128" x1="-1.09126e-05" y1="254.735" x2="1366" y2="254.735" gradientUnits="userSpaceOnUse">
<stop stop-color="#EE9CA7"/>
<stop offset="1" stop-color="#FFDDE1"/>
</linearGradient>
<linearGradient id="paint1_linear_66_128" x1="1242.98" y1="548.964" x2="1223.06" y2="531.574" gradientUnits="userSpaceOnUse">
<stop stop-opacity="0"/>
<stop offset="0.99"/>
</linearGradient>
<linearGradient id="paint2_linear_66_128" x1="7973.21" y1="12026.7" x2="8372.69" y2="11784" gradientUnits="userSpaceOnUse">
<stop stop-opacity="0"/>
<stop offset="0.99"/>
</linearGradient>
<linearGradient id="paint3_linear_66_128" x1="963.367" y1="479.899" x2="1017.54" y2="479.899" gradientUnits="userSpaceOnUse">
<stop stop-color="#E5C5D5"/>
<stop offset="0.42" stop-color="#EAD4D1"/>
<stop offset="1" stop-color="#F0E9CB"/>
</linearGradient>
<linearGradient id="paint4_linear_66_128" x1="7814.85" y1="38442.5" x2="9053.62" y2="38442.5" gradientUnits="userSpaceOnUse">
<stop stop-color="#E5C5D5"/>
<stop offset="0.42" stop-color="#EAD4D1"/>
<stop offset="1" stop-color="#F0E9CB"/>
</linearGradient>
<linearGradient id="paint5_linear_66_128" x1="12973.9" y1="14049.7" x2="16408.3" y2="14049.7" gradientUnits="userSpaceOnUse">
<stop stop-color="#E5C5D5"/>
<stop offset="0.42" stop-color="#EAD4D1"/>
<stop offset="1" stop-color="#F0E9CB"/>
</linearGradient>
<linearGradient id="paint6_linear_66_128" x1="6955.06" y1="4956.64" x2="8070.27" y2="4956.64" gradientUnits="userSpaceOnUse">
<stop stop-color="#E5C5D5"/>
<stop offset="0.42" stop-color="#EAD4D1"/>
<stop offset="1" stop-color="#F0E9CB"/>
</linearGradient>
<linearGradient id="paint7_linear_66_128" x1="5726.89" y1="15134.9" x2="11698.5" y2="16896.5" gradientUnits="userSpaceOnUse">
<stop stop-opacity="0"/>
<stop offset="0.99"/>
</linearGradient>
<linearGradient id="paint8_linear_66_128" x1="8979.89" y1="23265.8" x2="12765.2" y2="23265.8" gradientUnits="userSpaceOnUse">
<stop stop-color="#E5C5D5"/>
<stop offset="0.42" stop-color="#EAD4D1"/>
<stop offset="1" stop-color="#F0E9CB"/>
</linearGradient>
<linearGradient id="paint9_linear_66_128" x1="15214.3" y1="9926.97" x2="16718.6" y2="9926.97" gradientUnits="userSpaceOnUse">
<stop stop-opacity="0"/>
<stop offset="0.99"/>
</linearGradient>
<linearGradient id="paint10_linear_66_128" x1="4147.49" y1="2344.02" x2="4092.82" y2="2409.99" gradientUnits="userSpaceOnUse">
<stop stop-opacity="0"/>
<stop offset="0.99"/>
</linearGradient>
<linearGradient id="paint11_linear_66_128" x1="3987.11" y1="4087.52" x2="3898.55" y2="4117.95" gradientUnits="userSpaceOnUse">
<stop stop-opacity="0"/>
<stop offset="0.99"/>
</linearGradient>
<linearGradient id="paint12_linear_66_128" x1="3817.47" y1="4690.77" x2="3669.76" y2="4830.9" gradientUnits="userSpaceOnUse">
<stop stop-opacity="0"/>
<stop offset="0.99"/>
</linearGradient>
<linearGradient id="paint13_linear_66_128" x1="1822.01" y1="1129.43" x2="1817.05" y2="1136.4" gradientUnits="userSpaceOnUse">
<stop stop-opacity="0"/>
<stop offset="0.99"/>
</linearGradient>
<linearGradient id="paint14_linear_66_128" x1="1097.18" y1="887.316" x2="1097.34" y2="887.316" gradientUnits="userSpaceOnUse">
<stop stop-opacity="0"/>
<stop offset="0.99"/>
</linearGradient>
<linearGradient id="paint15_linear_66_128" x1="7529.72" y1="18426.5" x2="5073.53" y2="18714.4" gradientUnits="userSpaceOnUse">
<stop stop-opacity="0"/>
<stop offset="0.99"/>
</linearGradient>
</defs>
</svg>
