<svg width="1366" height="540" viewBox="0 0 1366 540" fill="none" xmlns="http://www.w3.org/2000/svg">
<rect width="1366" height="540" fill="url(#paint0_linear_66_128)"/>
<path d="M729.95 0H1366V269.894C1343.06 336.995 1270.29 413.539 1233.19 379.74C1191.21 341.498 1296.14 230.09 1233.19 213.728C1168.78 196.987 1132.93 359.679 1071.96 336.995C1013.41 315.209 1175.14 187.563 1121.21 160.048C1068.68 133.246 1012.07 302.556 966.055 269.894C916.329 234.6 1062.29 79.3486 997.086 62.6273C945.658 49.4397 938.165 209.105 887.803 193.846C828.551 175.895 904.807 93.8619 856.772 62.6273C804.315 28.5176 830.836 157.422 777.846 123.764C718.133 85.835 729.95 0 729.95 0Z" fill="white"/>
<path opacity="0.18" d="M924.433 497.196C925.324 503.906 932.721 506.553 938.772 507.66C1001.64 519.163 1065.78 517.771 1129.48 516.264C1154.6 515.66 1179.77 514.975 1204.7 511.552C1221.4 509.269 1255.37 507.17 1267.73 493.556C1258.95 487.702 1242.17 490.92 1232.05 490.851C1207.05 490.692 1182.05 490.578 1157.05 490.714C1107.76 490.981 1058.47 491.947 1009.18 493.613C980.931 494.579 952.682 495.773 924.433 497.196Z" fill="#FC68EE"/>
<path d="M1083.67 505.96C1082.84 506.592 1081.85 506.934 1080.84 506.941C1073.52 507.943 1066.15 508.507 1058.78 508.63C1057.76 508.701 1056.75 508.541 1055.79 508.162C1055.29 508.009 1054.86 507.682 1054.54 507.231C1054.23 506.78 1054.05 506.229 1054.05 505.66C1054.04 505.092 1054.2 504.536 1054.5 504.076C1054.81 503.616 1055.24 503.276 1055.73 503.107C1056.67 502.702 1057.68 502.501 1058.69 502.514C1066.63 502.126 1074.89 501.795 1082.81 502.731C1083.15 502.733 1083.49 502.858 1083.76 503.085C1084.03 503.312 1084.23 503.631 1084.33 503.993C1084.43 504.356 1084.42 504.743 1084.3 505.097C1084.18 505.451 1083.96 505.754 1083.67 505.96V505.96Z" fill="#FC68EE"/>
<path d="M961.409 503.929C962.122 504.963 962.974 505.872 963.937 506.622C965.508 507.543 967.255 508.043 969.034 508.082C972.488 508.463 975.958 508.76 979.446 508.973C980.085 509.095 980.743 508.974 981.311 508.63C981.69 508.218 981.91 507.66 981.925 507.074C981.941 506.487 981.751 505.917 981.394 505.481C980.626 504.652 979.682 504.048 978.649 503.723C972.972 501.28 967.815 497.569 963.502 492.826C961.824 490.966 956.084 483.822 954.374 489.847C953.059 494.435 958.995 500.802 961.409 503.929Z" fill="#FC68EE"/>
<path d="M1238.81 476.838C1240 477.939 1240.98 479.284 1241.7 480.798C1242.31 482.595 1242.53 484.527 1242.34 486.435C1242.19 489.384 1241.85 492.318 1241.3 495.21C1241.15 496.101 1240.77 497.196 1239.94 497.242C1239.7 497.225 1239.47 497.154 1239.25 497.035C1239.04 496.915 1238.85 496.748 1238.7 496.546C1237.9 495.668 1237.27 494.624 1236.84 493.474C1236.4 492.325 1236.18 491.092 1236.19 489.847C1236.3 488.897 1236.24 487.93 1236.01 487.006C1235.41 485.852 1234.44 484.988 1233.3 484.587L1225.53 480.65C1223.38 479.566 1221.05 478.253 1220.25 475.823C1219.01 472.034 1223.16 465.552 1226.91 465.552C1230.66 465.552 1236.21 474.077 1238.81 476.838Z" fill="#3E3E54"/>
<path d="M1141.63 483.502C1140.49 484.809 1139.24 485.99 1137.9 487.029C1136.55 488.076 1135.49 489.524 1134.86 491.205C1134.57 492.052 1134.53 492.981 1134.76 493.851C1134.99 494.722 1135.47 495.487 1136.13 496.032C1138.15 497.401 1140.67 495.644 1142.49 493.967L1154.39 483.023C1155.62 482.066 1156.62 480.783 1157.28 479.292C1158.03 477.158 1157.36 474.727 1156.49 472.684C1155.83 470.922 1154.85 469.326 1153.61 467.994C1145.19 459.607 1144.8 479.337 1141.63 483.502Z" fill="#3E3E54"/>
<path d="M1238.81 476.838C1240 477.939 1240.98 479.284 1241.7 480.798C1242.31 482.595 1242.53 484.527 1242.34 486.435C1242.19 489.384 1241.85 492.318 1241.3 495.21C1241.15 496.101 1240.77 497.196 1239.94 497.242C1239.7 497.225 1239.47 497.154 1239.25 497.035C1239.04 496.915 1238.85 496.748 1238.7 496.546C1237.9 495.668 1237.27 494.624 1236.84 493.474C1236.4 492.325 1236.18 491.092 1236.19 489.847C1236.3 488.897 1236.24 487.93 1236.01 487.006C1235.41 485.852 1234.44 484.988 1233.3 484.587L1225.53 480.65C1223.38 479.566 1221.05 478.253 1220.25 475.823C1219.01 472.034 1223.16 465.552 1226.91 465.552C1230.66 465.552 1236.21 474.077 1238.81 476.838Z" fill="url(#paint1_linear_66_128)"/>
<path d="M1141.63 483.502C1140.49 484.809 1139.24 485.99 1137.9 487.029C1136.55 488.076 1135.49 489.524 1134.86 491.205C1134.57 492.052 1134.53 492.981 1134.76 493.851C1134.99 494.722 1135.47 495.487 1136.13 496.032C1138.15 497.401 1140.67 495.644 1142.49 493.967L1154.39 483.023C1155.62 482.066 1156.62 480.783 1157.28 479.292C1158.03 477.158 1157.36 474.727 1156.49 472.684C1155.83 470.922 1154.85 469.326 1153.61 467.994C1145.19 459.607 1144.8 479.337 1141.63 483.502Z" fill="url(#paint2_linear_66_128)"/>
<path d="M1013.14 382.501C1002.68 416.084 987.983 447.842 973.323 479.497C972.287 481.7 971.179 484.062 969.179 485.203C967.18 486.344 964.206 485.853 963.492 483.514C963.284 482.554 963.284 481.553 963.492 480.593C965.564 466.192 969.977 452.247 971.22 437.732C971.666 432.494 971.718 427.062 973.634 422.235C976.059 416.13 981.177 411.714 983.56 405.586C985.114 401.581 985.383 397.13 985.859 392.794C986.508 386.83 987.592 380.934 989.102 375.163C998.843 375.877 1008.43 378.228 1017.52 382.136" fill="url(#paint3_linear_66_128)"/>
<path d="M1049.99 375.928C1056.9 410.596 1059.31 446.142 1061.71 481.54C1061.87 484.005 1062.01 486.641 1060.91 488.786C1059.81 490.931 1056.96 492.209 1055.25 490.6C1054.62 489.908 1054.14 489.059 1053.85 488.124C1048.8 474.659 1046.02 460.189 1040.24 447.043C1038.17 442.308 1035.63 437.64 1034.99 432.414C1034.18 425.818 1036.47 419.108 1035.61 412.524C1035.05 408.199 1033.18 404.239 1031.54 400.268C1029.29 394.797 1027.43 389.139 1026 383.345C1034.66 378.398 1043.95 374.934 1053.56 373.075" fill="url(#paint4_linear_66_128)"/>
<path d="M1048.26 271.993C1051.43 279.491 1054.63 287.045 1059.03 293.755C1063.44 300.465 1069.17 306.307 1076.16 309.377C1082.51 312.139 1089.85 312.549 1095.27 317.114C1095.83 317.525 1096.28 318.098 1096.56 318.768C1096.77 319.674 1096.67 320.631 1096.28 321.462C1093.17 329.815 1082.45 333.307 1075.71 328.149C1074.18 327.007 1072.88 325.467 1071.33 324.314C1069.23 322.984 1067.03 321.839 1064.76 320.891C1060.1 318.517 1056.1 314.832 1052.18 311.191C1048.25 307.551 1044.37 303.842 1042.85 298.639C1041.1 292.579 1036.39 286.406 1037.09 280.095C1037.5 276.421 1038.28 272.507 1037.82 268.844C1037.47 266.139 1038.19 258.927 1039.71 256.634C1041.81 260.502 1046.48 267.851 1048.26 271.993Z" fill="url(#paint5_linear_66_128)"/>
<path d="M1044.68 195.241C1044.94 197.865 1044.73 200.52 1044.07 203.058C1043.39 205.601 1041.87 207.773 1039.81 209.151C1038.6 209.828 1037.28 210.224 1035.93 210.314C1034.58 210.405 1033.22 210.187 1031.95 209.676C1031.42 209.393 1030.82 209.325 1030.25 209.482C1029.86 209.708 1029.55 210.074 1029.37 210.521C1028.16 212.951 1028.15 215.872 1027.3 218.508C1027.05 219.25 1027.72 225.606 1027.15 226.086C1026.58 226.565 1025.07 221.042 1024.55 221.167C1022.93 221.538 1021.26 221.538 1019.64 221.167C1019.07 221.072 1018.53 220.83 1018.06 220.46C1017.67 220.129 1011.94 224.499 1011.69 224.02C1008.49 217.835 1014.86 205.351 1014.66 198.219C1014.53 193.244 1013.9 187.789 1016.48 183.704C1018.27 180.897 1021.24 179.333 1024.17 178.226C1026.76 177.173 1029.49 176.603 1032.25 176.538C1036.25 176.538 1039.51 177.838 1041.29 181.821C1043.17 186.019 1044.32 190.572 1044.68 195.241V195.241Z" fill="url(#paint6_linear_66_128)"/>
<path d="M1040.48 172.715C1041.85 175.682 1041.86 179.562 1039.9 182.118C1039.07 183.122 1038.07 183.939 1036.96 184.526C1034.67 185.846 1032.18 186.689 1029.61 187.013C1028.89 187.019 1028.17 187.227 1027.54 187.618C1027 188.109 1026.6 188.758 1026.38 189.49C1025.62 191.567 1025.17 193.761 1025.02 195.994C1024.33 196.428 1023.46 195.811 1023 195.092C1022.55 194.374 1022.21 193.483 1021.51 193.061C1020.29 192.297 1018.68 193.598 1018.4 195.115C1018.31 196.678 1018.79 198.216 1019.73 199.395C1020.59 200.695 1021.66 202.179 1021.27 203.731C1020.92 204.686 1020.29 205.487 1019.49 206.013L1014.92 209.813C1014.73 210.058 1014.5 210.254 1014.23 210.386C1013.97 210.518 1013.68 210.582 1013.39 210.574C1013.09 210.567 1012.81 210.487 1012.55 210.342C1012.29 210.196 1012.06 209.988 1011.88 209.733C1009.76 207.92 1007.83 205.832 1006.16 203.514C1003.55 199.403 1002.29 194.436 1002.59 189.432C1002.8 185.415 1003.82 181.499 1005.58 177.971C1007.34 174.444 1009.79 171.392 1012.75 169.04C1020.94 162.673 1035.24 161.224 1040.48 172.715Z" fill="#3E3E54"/>
<path d="M1003.54 153.293C1001.4 152.971 999.22 153.376 997.291 154.455C995.363 155.533 993.778 157.234 992.749 159.329C991.87 161.425 991.417 163.708 991.423 166.016C991.361 167.409 991.483 168.805 991.786 170.159C992.52 172.656 993.864 174.882 995.671 176.595C996.588 177.582 997.636 178.409 998.779 179.048C1001.31 180.167 1004.09 180.402 1006.75 179.721C1008.01 179.521 1009.24 179.137 1010.4 178.58C1011.65 177.925 1012.74 176.968 1013.6 175.783C1014.46 174.597 1015.06 173.213 1015.37 171.733C1015.54 170.9 1015.54 170.034 1015.37 169.2C1015.2 168.566 1014.96 167.953 1014.67 167.374C1013.28 164.407 1012.77 160.938 1010.92 158.245C1009.14 155.597 1006.5 153.819 1003.54 153.293V153.293Z" fill="#3E3E54"/>
<path d="M998.302 302.975C993.754 298.354 994.055 295.409 993.423 288.62C992.838 282.299 993.365 275.914 994.977 269.814C997.536 260.114 992.242 251.556 994.676 241.765C996.168 235.797 1005.27 204.393 1027.91 223.507C1031.02 226.12 1032.15 230.719 1034.52 234.131C1037.24 238.022 1040.83 241.16 1043.13 245.359C1044.66 248.307 1045.52 251.621 1045.63 255.016C1045.73 258.41 1045.09 261.781 1043.74 264.839C1042.42 267.885 1040.41 270.213 1039.24 273.363C1037.9 277.352 1037.31 281.599 1037.51 285.847C1037.59 291.598 1037.89 297.342 1038.42 303.078C1038.76 306.798 1040.88 311.659 1038.67 314.934C1036.45 318.209 1029.97 318.974 1026.68 319.556C1018.39 321.028 1009.19 320.115 1002.5 314.01C999.525 311.305 997.111 306.992 998.302 302.952" fill="#FC68EE"/>
<path d="M1013.54 279.034C1013.04 285.95 1014.49 292.831 1014.76 299.757C1015.04 306.684 1014.12 313.93 1013.2 320.959L1011.05 337.346C1011.02 337.702 1010.92 338.048 1010.77 338.362C1010.11 339.503 1008.55 338.795 1007.66 337.894C1002.92 332.907 1003.21 324.702 1002.05 317.593C1000.78 309.799 997.442 302.61 995.515 294.976C993.049 285.469 993.081 275.387 995.609 265.9C997.207 260.591 999.326 255.491 1001.93 250.688C1004.43 245.827 1007.23 240.932 1011.43 237.794C1014.37 235.58 1021.79 223.94 1024.9 227.204C1027.72 230.171 1024.35 244.869 1023.25 248.11C1019.86 258.311 1014.34 267.954 1013.54 279.034Z" fill="url(#paint7_linear_66_128)"/>
<path d="M1056.32 379.819C1056.46 381.139 1056.15 382.47 1055.45 383.554C1054.76 384.637 1053.72 385.397 1052.54 385.685C1052.02 385.936 1051.5 386.164 1050.93 386.392C1044.49 389.074 1035.62 390.512 1029.12 391.208C1028.09 391.439 1027.02 391.274 1026.08 390.74C1025.51 390.245 1025.05 389.612 1024.74 388.891C1023.95 387.385 1023.26 383.573 1022.54 380.333C1022.53 380.31 1022.53 380.287 1022.54 380.264C1022.4 379.659 1022.27 379.123 1022.13 378.541C1021.92 377.598 1021.62 376.683 1021.23 375.814C1021.29 376.218 1021.29 376.63 1021.23 377.035C1021.01 380.276 1019.29 387.853 1018.21 388.697C1016.89 389.613 1015.38 390.161 1013.82 390.295C1005.48 391.669 996.957 390.099 989.475 385.81C988.386 385.168 987.328 384.463 986.305 383.699C985.488 383.183 984.82 382.423 984.378 381.508C984.328 381.347 984.307 381.176 984.316 381.006C984.243 378.724 985.414 370.827 985.538 369.857C987.61 353.881 989.683 337.905 993.174 322.306C993.816 319.15 994.653 316.047 995.681 313.017C995.816 312.641 995.951 312.264 996.096 311.876C996.571 310.344 997.421 308.986 998.551 307.951C1000.22 306.638 1002.45 306.73 1004.49 306.878L1024.55 308.282C1025.77 308.344 1027 308.31 1028.22 308.179C1030.14 307.93 1032.07 307.804 1034 307.802C1036.57 307.905 1038.15 309.754 1039.79 311.99C1043.2 316.555 1045.04 322.374 1046.61 327.966C1050.81 342.721 1056.76 364.345 1056.32 379.819Z" fill="white"/>
<path d="M969.583 314.626C968.05 317.479 966.268 320.161 964.942 323.128C962.481 328.685 961.735 334.976 962.818 341.043C963.378 344.136 964.528 347.297 966.848 349.145C969.169 350.994 972.868 350.96 974.546 348.404C976.919 344.786 974.256 338.636 977.354 335.771C977.354 336.913 979.125 337.221 979.83 336.308C980.412 335.289 980.606 334.059 980.369 332.884C980.047 329.233 980.255 325.672 979.933 322.021C982.824 317.194 985.746 312.298 987.403 306.821C989.475 299.974 989.475 292.511 992.521 286.166C994.728 281.51 998.323 277.893 1001.64 274.116C1009.77 264.806 1016.42 254.06 1021.32 242.324C1023.15 237.942 1024.75 233.332 1024.94 228.516C1025.1 224.237 1018.88 221.567 1014.98 221.727C1011.09 221.886 1007.49 224.248 1004.79 227.341C1002.2 230.548 999.99 234.107 998.219 237.931C992.549 248.992 986.878 260.05 981.208 271.103C980.078 273.363 973.665 307.038 969.583 314.626Z" fill="url(#paint8_linear_66_128)"/>
<path d="M1053.68 503.906C1053.77 504.509 1054.04 505.065 1054.43 505.492C1054.94 505.834 1055.54 505.982 1056.13 505.914C1064.87 505.914 1073.59 505.515 1082.29 504.716C1083.33 504.625 1084.6 504.237 1084.7 503.119C1084.7 502.72 1084.61 502.326 1084.44 501.977C1082.64 497.824 1078.8 495.279 1075.11 493.031C1071.66 490.893 1068.15 488.816 1064.58 486.8C1063.96 486.356 1063.24 486.122 1062.51 486.127C1061.89 486.258 1061.31 486.53 1060.8 486.926C1058.4 488.398 1054.72 488.067 1053.43 491.034C1051.96 494.571 1052.83 500.311 1053.68 503.906Z" fill="#3E3E54"/>
<path d="M958.425 483.879C957.389 485.089 956.353 486.447 956.291 488.09C956.369 489.454 956.817 490.762 957.576 491.844C959.384 494.94 961.355 497.916 963.481 500.756C964.49 502.301 965.804 503.573 967.325 504.476C968.384 504.95 969.501 505.25 970.64 505.367C973.427 505.766 976.235 506.028 979.042 506.12C979.88 506.241 980.73 506.048 981.456 505.572C982.617 504.568 982.296 502.537 981.622 501.087C980.793 499.3 979.611 497.74 978.162 496.523C977.485 496.042 976.863 495.475 976.307 494.834C975.7 493.897 975.273 492.833 975.054 491.707C974.285 488.898 973.354 486.146 972.267 483.468C972.195 483.131 972.012 482.835 971.754 482.636C971.496 482.438 971.18 482.353 970.868 482.396C968.237 482.281 966.216 481.152 963.771 480.364C961.585 479.68 959.793 482.247 958.425 483.879Z" fill="#3E3E54"/>
<path d="M1240.96 441.383C1240.52 443.209 1239.11 444.521 1237.78 445.708C1236.42 447.092 1234.84 448.187 1233.12 448.938C1232.18 449.104 1231.31 449.568 1230.6 450.273C1230.3 450.749 1230.12 451.297 1230.05 451.87C1229.02 458.295 1231.79 465.233 1229.59 471.27C1228.5 473.848 1225.94 475.252 1223.48 476.154C1217.62 478.333 1211.35 478.801 1205.16 479.063C1189.25 479.733 1173.33 479.157 1157.5 477.34C1156.05 477.259 1154.62 476.924 1153.26 476.348C1149.79 474.636 1148.19 470.174 1147.7 466.02C1147.51 464.434 1147.39 462.688 1146.39 461.524C1143.82 458.523 1140.44 461.524 1137.78 462.357C1133.77 463.443 1129.53 462.871 1125.87 460.748C1121.67 458.261 1118.62 453.171 1118.97 447.922C1118.97 447.436 1119.09 446.96 1119.31 446.541C1119.58 446.195 1119.94 445.951 1120.35 445.84C1120.75 445.73 1121.17 445.76 1121.56 445.925C1122.32 446.284 1123.04 446.752 1123.69 447.317C1128.23 450.649 1134.2 449.816 1139.59 448.869C1149.36 447.135 1158.65 444.772 1168.6 444.225L1191.45 442.958C1196.7 442.673 1204.5 443.882 1207.53 437.766C1208.81 435.175 1206.8 432.414 1207.37 429.527C1207.91 426.871 1208.72 424.293 1209.8 421.847C1210.75 419.69 1211.64 417.168 1213.47 415.742C1213.84 415.457 1217.03 413.117 1219 415.605C1219 415.605 1219 415.731 1219 415.856C1218.89 416.678 1218.02 419.12 1217.96 420.421C1217.87 421.334 1217.04 427.724 1218.65 426.457C1218.75 426.367 1218.85 426.255 1218.92 426.126C1218.99 425.987 1219.05 425.842 1219.1 425.693C1219.55 424.552 1219.85 423.273 1220.3 422.098C1221.44 419.173 1223.44 416.759 1225.98 415.251C1226.38 414.957 1226.86 414.821 1227.34 414.863C1227.58 414.942 1227.81 415.088 1227.99 415.288C1228.17 415.487 1228.3 415.734 1228.37 416.004C1228.53 416.547 1228.56 417.124 1228.46 417.682C1228.2 418.979 1227.85 420.253 1227.42 421.493C1227.19 422.263 1227.03 423.053 1226.92 423.855C1226.75 425.108 1226.98 426.39 1227.58 427.473C1227.76 427.821 1227.98 428.149 1228.22 428.454C1229.09 429.546 1230.15 430.441 1231.33 431.09C1233.51 432.334 1235.94 433.064 1237.96 434.593C1239.98 436.123 1241.64 438.781 1240.96 441.383Z" fill="#3E3E54"/>
<path d="M1211.36 493.293C1209.45 495.85 1207.45 497.801 1205.53 500.368C1204.88 501.224 1201.6 502.046 1200.68 502.525C1200.23 502.797 1199.72 502.905 1199.21 502.833C1198.71 502.761 1198.23 502.514 1197.86 502.126C1197.58 501.695 1197.42 501.181 1197.4 500.648C1197.38 500.116 1197.51 499.589 1197.76 499.136C1198.28 498.237 1198.94 497.445 1199.71 496.797C1202.65 493.921 1205.31 490.053 1205.07 485.728C1204.92 482.955 1203.58 480.41 1203.31 477.648C1202.63 470.95 1215.97 460.474 1220.55 468.713C1225.13 476.952 1215.66 487.496 1211.36 493.293Z" fill="#3E3E54"/>
<path d="M1174.59 489.984C1176.71 492.973 1179.27 495.547 1182.17 497.595C1182.72 497.933 1183.15 498.468 1183.39 499.113C1183.47 499.579 1183.4 500.059 1183.19 500.474C1182.99 500.89 1182.66 501.215 1182.26 501.395C1181.47 501.731 1180.62 501.864 1179.77 501.783C1177.7 501.783 1175.43 501.681 1173.63 500.471C1172.87 499.932 1172.18 499.296 1171.56 498.577C1165.85 492.369 1160.3 485.983 1154.9 479.417C1153.53 477.751 1152.1 475.914 1151.9 473.712C1151.61 470.288 1154.45 467.355 1157.5 466.762C1160.55 466.169 1163.63 467.367 1166.41 468.862C1170.7 471.144 1169.66 473.769 1170.39 477.991C1170.99 482.277 1172.42 486.368 1174.59 489.984V489.984Z" fill="#3E3E54"/>
<path d="M1237.47 464.936C1237.33 465.139 1237.15 465.303 1236.94 465.415C1236.44 465.561 1235.92 465.59 1235.4 465.502C1234.89 465.414 1234.4 465.209 1233.96 464.902C1222.73 458.58 1213.11 449.177 1201.84 442.912C1200.18 441.988 1198.34 440.961 1197.7 439.044C1197.6 438.763 1197.52 438.473 1197.47 438.177V438.177C1196.84 434.753 1200.92 435.21 1202.75 436.396C1206.23 438.679 1209.61 441.121 1213.04 443.471L1232.73 457.04C1234.86 458.5 1237.18 460.258 1237.71 462.973C1237.8 463.301 1237.82 463.645 1237.78 463.982C1237.74 464.32 1237.63 464.645 1237.47 464.936V464.936Z" fill="#FC68EE"/>
<path d="M1240.47 465.571C1239.97 465.717 1239.45 465.746 1238.93 465.658C1238.42 465.569 1237.93 465.365 1237.49 465.058C1226.26 458.736 1216.64 449.333 1205.37 443.068C1203.71 442.144 1201.87 441.117 1201.23 439.2C1201.13 438.918 1201.05 438.628 1201 438.332C1202.18 437.648 1204.29 438.115 1205.48 438.88C1208.95 441.162 1212.33 443.604 1215.75 445.955L1235.44 459.523C1237.58 460.995 1239.9 462.741 1240.43 465.457C1240.46 465.491 1240.46 465.537 1240.47 465.571Z" fill="url(#paint9_linear_66_128)"/>
<path d="M1200.97 438.04C1200.97 438.04 1119.12 380.07 1096.25 321.462C1096.25 321.462 1094.24 316.361 1087.68 319.099" stroke="#3E3E54" stroke-width="1.60546" stroke-miterlimit="10" stroke-linecap="round"/>
<path d="M1074.99 326.163C1074.99 326.163 1071.49 328.731 1070.91 330.659" stroke="#3E3E54" stroke-width="1.60546" stroke-miterlimit="10" stroke-linecap="round"/>
<path d="M1241.61 433.418C1242.08 433.362 1242.55 433.482 1242.95 433.76C1243.11 433.922 1243.23 434.117 1243.31 434.333C1243.39 434.549 1243.43 434.782 1243.43 435.016C1243.43 435.62 1243.31 436.217 1243.1 436.773C1242.89 437.33 1242.58 437.834 1242.18 438.256C1241.81 438.747 1241.28 439.064 1240.7 439.147C1240.32 439.115 1239.95 438.998 1239.62 438.801C1239.28 438.605 1238.98 438.334 1238.74 438.005C1238.11 437.326 1237.51 436.61 1236.94 435.86C1236.22 434.89 1235.53 433.578 1237.1 433.372C1238.6 433.296 1240.11 433.312 1241.61 433.418V433.418Z" fill="#3E3E54"/>
<path d="M1241.61 433.418C1242.08 433.362 1242.55 433.482 1242.95 433.76C1243.11 433.922 1243.23 434.117 1243.31 434.333C1243.39 434.549 1243.43 434.782 1243.43 435.016C1243.43 435.62 1243.31 436.217 1243.1 436.773C1242.89 437.33 1242.58 437.834 1242.18 438.256C1241.81 438.747 1241.28 439.064 1240.7 439.147C1240.32 439.115 1239.95 438.998 1239.62 438.801C1239.28 438.605 1238.98 438.334 1238.74 438.005C1238.11 437.326 1237.51 436.61 1236.94 435.86C1236.22 434.89 1235.53 433.578 1237.1 433.372C1238.6 433.296 1240.11 433.312 1241.61 433.418V433.418Z" fill="url(#paint10_linear_66_128)"/>
<path d="M1228.26 428.409C1227.43 427.528 1226.35 426.985 1225.2 426.868C1224.04 426.699 1222.86 426.661 1221.69 426.754C1221.49 426.754 1221.26 426.754 1221.18 426.526C1221.14 426.401 1221.14 426.262 1221.18 426.138C1221.72 424.304 1222.41 422.531 1223.26 420.843C1224.11 419.149 1225.38 417.758 1226.92 416.838C1227.03 416.764 1227.14 416.713 1227.26 416.69C1227.38 416.666 1227.51 416.67 1227.63 416.701C1228.01 416.86 1228.06 417.431 1227.99 417.842C1227.8 418.772 1227.56 419.69 1227.28 420.592C1227.02 421.628 1226.91 422.703 1226.97 423.776C1226.79 425.028 1227.02 426.31 1227.62 427.393C1227.8 427.753 1228.02 428.093 1228.26 428.409V428.409Z" fill="url(#paint11_linear_66_128)"/>
<path d="M1218.61 426.446C1218.72 426.356 1218.81 426.244 1218.88 426.115V426.434C1218.88 426.685 1218.8 427.039 1218.55 427.142C1218.3 427.245 1218.25 427.005 1218.04 426.959C1217.4 426.963 1216.79 427.236 1216.33 427.724C1215.08 428.653 1213.74 429.419 1212.34 430.006C1211.77 426.868 1212.75 423.639 1213.99 420.752C1214.45 419.575 1215.07 418.485 1215.84 417.522C1216.61 416.548 1217.7 415.949 1218.87 415.856H1219.04C1218.94 416.678 1218.07 419.12 1218 420.421C1217.84 421.322 1217.01 427.713 1218.61 426.446Z" fill="url(#paint12_linear_66_128)"/>
<path d="M1222.29 435.643C1222.8 435.643 1223.21 435.189 1223.21 434.628C1223.21 434.067 1222.8 433.612 1222.29 433.612C1221.78 433.612 1221.37 434.067 1221.37 434.628C1221.37 435.189 1221.78 435.643 1222.29 435.643Z" fill="url(#paint13_linear_66_128)"/>
<path d="M1022.52 380.321C1022.39 379.716 1022.26 379.18 1022.12 378.598C1022.31 379.154 1022.45 379.732 1022.52 380.321Z" fill="url(#paint14_linear_66_128)"/>
<path d="M1056.32 379.819C1056.46 381.139 1056.15 382.47 1055.45 383.554C1054.76 384.637 1053.72 385.397 1052.54 385.685C1052.02 385.936 1051.5 386.164 1050.93 386.392L1050.81 386.267C1050.03 385.204 1049.51 383.944 1049.3 382.603C1044.91 363.394 1039.4 344.518 1032.79 326.095C1031.31 321.929 1025.14 312.949 1028.2 308.167C1030.12 307.919 1032.05 307.793 1033.98 307.791C1036.55 307.893 1038.13 309.742 1039.76 311.979C1043.18 316.543 1045.02 322.363 1046.59 327.955C1050.81 342.721 1056.76 364.345 1056.32 379.819Z" fill="url(#paint15_linear_66_128)"/>
<defs>
<linearGradient id="paint0_linear_66_128" x1="-1.09126e-05" y1="228.5" x2="1366" y2="228.5" gradientUnits="userSpaceOnUse">
<stop stop-color="#EE9CA7"/>
<stop offset="1" stop-color="#FFDDE1"/>
</linearGradient>
<linearGradient id="paint1_linear_66_128" x1="1242.98" y1="492.426" x2="1224.95" y2="474.882" gradientUnits="userSpaceOnUse">
<stop stop-opacity="0"/>
<stop offset="0.99"/>
</linearGradient>
<linearGradient id="paint2_linear_66_128" x1="7973.21" y1="10788.1" x2="8348.14" y2="10534.1" gradientUnits="userSpaceOnUse">
<stop stop-opacity="0"/>
<stop offset="0.99"/>
</linearGradient>
<linearGradient id="paint3_linear_66_128" x1="963.367" y1="430.474" x2="1017.54" y2="430.474" gradientUnits="userSpaceOnUse">
<stop stop-color="#E5C5D5"/>
<stop offset="0.42" stop-color="#EAD4D1"/>
<stop offset="1" stop-color="#F0E9CB"/>
</linearGradient>
<linearGradient id="paint4_linear_66_128" x1="7814.85" y1="34483.3" x2="9053.62" y2="34483.3" gradientUnits="userSpaceOnUse">
<stop stop-color="#E5C5D5"/>
<stop offset="0.42" stop-color="#EAD4D1"/>
<stop offset="1" stop-color="#F0E9CB"/>
</linearGradient>
<linearGradient id="paint5_linear_66_128" x1="12973.9" y1="12602.8" x2="16408.3" y2="12602.8" gradientUnits="userSpaceOnUse">
<stop stop-color="#E5C5D5"/>
<stop offset="0.42" stop-color="#EAD4D1"/>
<stop offset="1" stop-color="#F0E9CB"/>
</linearGradient>
<linearGradient id="paint6_linear_66_128" x1="6955.06" y1="4446.15" x2="8070.27" y2="4446.15" gradientUnits="userSpaceOnUse">
<stop stop-color="#E5C5D5"/>
<stop offset="0.42" stop-color="#EAD4D1"/>
<stop offset="1" stop-color="#F0E9CB"/>
</linearGradient>
<linearGradient id="paint7_linear_66_128" x1="5726.89" y1="13576.1" x2="11584.7" y2="15502.6" gradientUnits="userSpaceOnUse">
<stop stop-opacity="0"/>
<stop offset="0.99"/>
</linearGradient>
<linearGradient id="paint8_linear_66_128" x1="8979.89" y1="20869.6" x2="12765.2" y2="20869.6" gradientUnits="userSpaceOnUse">
<stop stop-color="#E5C5D5"/>
<stop offset="0.42" stop-color="#EAD4D1"/>
<stop offset="1" stop-color="#F0E9CB"/>
</linearGradient>
<linearGradient id="paint9_linear_66_128" x1="15214.3" y1="8904.59" x2="16718.6" y2="8904.59" gradientUnits="userSpaceOnUse">
<stop stop-opacity="0"/>
<stop offset="0.99"/>
</linearGradient>
<linearGradient id="paint10_linear_66_128" x1="4147.49" y1="2102.61" x2="4099.7" y2="2166.9" gradientUnits="userSpaceOnUse">
<stop stop-opacity="0"/>
<stop offset="0.99"/>
</linearGradient>
<linearGradient id="paint11_linear_66_128" x1="3987.11" y1="3666.54" x2="3900.76" y2="3699.62" gradientUnits="userSpaceOnUse">
<stop stop-opacity="0"/>
<stop offset="0.99"/>
</linearGradient>
<linearGradient id="paint12_linear_66_128" x1="3817.47" y1="4207.66" x2="3685" y2="4347.76" gradientUnits="userSpaceOnUse">
<stop stop-opacity="0"/>
<stop offset="0.99"/>
</linearGradient>
<linearGradient id="paint13_linear_66_128" x1="1822.01" y1="1013.11" x2="1817.74" y2="1019.8" gradientUnits="userSpaceOnUse">
<stop stop-opacity="0"/>
<stop offset="0.99"/>
</linearGradient>
<linearGradient id="paint14_linear_66_128" x1="1097.18" y1="795.936" x2="1097.34" y2="795.936" gradientUnits="userSpaceOnUse">
<stop stop-opacity="0"/>
<stop offset="0.99"/>
</linearGradient>
<linearGradient id="paint15_linear_66_128" x1="7529.72" y1="16528.7" x2="5081.58" y2="16848.7" gradientUnits="userSpaceOnUse">
<stop stop-opacity="0"/>
<stop offset="0.99"/>
</linearGradient>
</defs>
</svg>
