<svg width="1366" height="540" viewBox="0 0 1366 540" fill="none" xmlns="http://www.w3.org/2000/svg">
<rect width="1366" height="540" fill="url(#paint0_linear_66_128)"/>
<path d="M729.95 0H1366V269.894C1343.06 336.995 1270.29 413.539 1233.19 379.74C1191.21 341.498 1296.14 230.09 1233.19 213.728C1168.78 196.987 1132.93 359.679 1071.96 336.995C1013.41 315.209 1175.14 187.563 1121.21 160.048C1068.68 133.246 1012.07 302.556 966.055 269.894C916.329 234.6 1062.29 79.3486 997.086 62.6273C945.658 49.4397 938.165 209.105 887.803 193.846C828.551 175.895 904.807 93.8619 856.772 62.6273C804.315 28.5176 830.836 157.422 777.846 123.764C718.133 85.835 729.95 0 729.95 0Z" fill="white"/>
<path opacity="0.18" d="M924.433 497.196C925.324 503.906 932.721 506.553 938.772 507.66C1001.64 519.163 1065.78 517.771 1129.48 516.264C1154.6 515.66 1179.77 514.975 1204.7 511.552C1221.4 509.269 1255.37 507.17 1267.73 493.556C1258.95 487.702 1242.17 490.92 1232.05 490.851C1207.05 490.692 1182.05 490.578 1157.05 490.714C1107.76 490.981 1058.47 491.947 1009.18 493.613C980.931 494.579 952.682 495.773 924.433 497.196Z" fill="#FC68EE"/>
<path d="M1083.67 505.96C1082.84 506.592 1081.85 506.934 1080.84 506.941C1073.52 507.943 1066.15 508.507 1058.78 508.63C1057.76 508.701 1056.75 508.541 1055.79 508.162C1055.29 508.009 1054.86 507.682 1054.54 507.231C1054.23 506.78 1054.05 506.229 1054.05 505.66C1054.04 505.092 1054.2 504.536 1054.5 504.076C1054.81 503.616 1055.24 503.276 1055.73 503.107C1056.67 502.702 1057.68 502.501 1058.69 502.514C1066.63 502.126 1074.89 501.795 1082.81 502.731C1083.15 502.733 1083.49 502.858 1083.76 503.085C1084.03 503.312 1084.23 503.631 1084.33 503.993C1084.43 504.356 1084.42 504.743 1084.3 505.097C1084.18 505.451 1083.96 505.754 1083.67 505.96Z" fill="#FC68EE"/>
<path d="M961.409 503.929C962.122 504.963 962.974 505.872 963.937 506.622C965.508 507.543 967.255 508.043 969.034 508.082C972.488 508.463 975.958 508.76 979.446 508.973C980.085 509.095 980.743 508.974 981.311 508.63C981.69 508.218 981.91 507.66 981.925 507.074C981.941 506.487 981.751 505.917 981.394 505.481C980.626 504.652 979.682 504.048 978.649 503.723C972.972 501.28 967.815 497.569 963.502 492.826C961.824 490.966 956.084 483.822 954.374 489.847C953.059 494.435 958.995 500.802 961.409 503.929Z" fill="#FC68EE"/>
<path d="M1238.81 476.838C1240 477.939 1240.98 479.284 1241.7 480.798C1242.31 482.595 1242.53 484.527 1242.34 486.435C1242.19 489.384 1241.85 492.318 1241.3 495.21C1241.15 496.101 1240.77 497.196 1239.94 497.242C1239.7 497.225 1239.47 497.154 1239.25 497.035C1239.04 496.915 1238.85 496.748 1238.7 496.546C1237.9 495.668 1237.27 494.624 1236.84 493.474C1236.4 492.325 1236.18 491.092 1236.19 489.847C1236.3 488.897 1236.24 487.93 1236.01 487.006C1235.41 485.852 1234.44 484.988 1233.3 484.587L1225.53 480.65C1223.38 479.566 1221.05 478.253 1220.25 475.823C1219.01 472.034 1223.16 465.552 1226.91 465.552C1230.66 465.552 1236.21 474.077 1238.81 476.838Z" fill="#3E3E54"/>
<path d="M1141.63 483.502C1140.49 484.809 1139.24 485.99 1137.9 487.029C1136.55 488.076 1135.49 489.524 1134.86 491.205C1134.57 492.052 1134.53 492.981 1134.76 493.851C1134.99 494.722 1135.47 495.487 1136.13 496.032C1138.15 497.401 1140.67 495.644 1142.49 493.967L1154.39 483.023C1155.62 482.066 1156.62 480.783 1157.28 479.292C1158.03 477.158 1157.36 474.727 1156.49 472.684C1155.83 470.922 1154.85 469.326 1153.61 467.994C1145.19 459.607 1144.8 479.337 1141.63 483.502Z" fill="#3E3E54"/>
<path d="M1238.81 476.838C1240 477.939 1240.98 479.284 1241.7 480.798C1242.31 482.595 1242.53 484.527 1242.34 486.435C1242.19 489.384 1241.85 492.318 1241.3 495.21C1241.15 496.101 1240.77 497.196 1239.94 497.242C1239.7 497.225 1239.47 497.154 1239.25 497.035C1239.04 496.915 1238.85 496.748 1238.7 496.546C1237.9 495.668 1237.27 494.624 1236.84 493.474C1236.4 492.325 1236.18 491.092 1236.19 489.847C1236.3 488.897 1236.24 487.93 1236.01 487.006C1235.41 485.852 1234.44 484.988 1233.3 484.587L1225.53 480.65C1223.38 479.566 1221.05 478.253 1220.25 475.823C1219.01 472.034 1223.16 465.552 1226.91 465.552C1230.66 465.552 1236.21 474.077 1238.81 476.838Z" fill="url(#paint1_linear_66_128)"/>
<path d="M1141.63 483.502C1140.49 484.809 1139.24 485.99 1137.9 487.029C1136.55 488.076 1135.49 489.524 1134.86 491.205C1134.57 492.052 1134.53 492.981 1134.76 493.851C1134.99 494.722 1135.47 495.487 1136.13 496.032C1138.15 497.401 1140.67 495.644 1142.49 493.967L1154.39 483.023C1155.62 482.066 1156.62 480.783 1157.28 479.292C1158.03 477.158 1157.36 474.727 1156.49 472.684C1155.83 470.922 1154.85 469.326 1153.61 467.994C1145.19 459.607 1144.8 479.337 1141.63 483.502Z" fill="url(#paint2_linear_66_128)"/>
<path d="M1013.14 382.501C1002.68 416.084 987.983 447.842 973.323 479.497C972.287 481.7 971.179 484.062 969.179 485.203C967.18 486.344 964.206 485.853 963.492 483.514C963.284 482.554 963.284 481.553 963.492 480.593C965.564 466.192 969.977 452.247 971.22 437.732C971.666 432.494 971.718 427.062 973.634 422.235C976.059 416.13 981.177 411.714 983.56 405.586C985.114 401.581 985.383 397.13 985.859 392.794C986.508 386.83 987.592 380.934 989.102 375.163C998.843 375.877 1008.43 378.228 1017.52 382.136" fill="url(#paint3_linear_66_128)"/>
<path d="M1049.99 375.928C1056.9 410.596 1059.31 446.142 1061.71 481.54C1061.87 484.005 1062.01 486.641 1060.91 488.786C1059.81 490.931 1056.96 492.209 1055.25 490.6C1054.62 489.908 1054.14 489.059 1053.85 488.124C1048.8 474.659 1046.02 460.189 1040.24 447.043C1038.17 442.308 1035.63 437.64 1034.99 432.414C1034.18 425.818 1036.47 419.108 1035.61 412.524C1035.05 408.199 1033.18 404.239 1031.54 400.268C1029.29 394.797 1027.43 389.139 1026 383.345C1034.66 378.398 1043.95 374.934 1053.56 373.075" fill="url(#paint4_linear_66_128)"/>
<path d="M1048.26 271.993C1051.43 279.491 1054.63 287.045 1059.03 293.755C1063.44 300.465 1069.17 306.307 1076.16 309.377C1082.51 312.139 1089.85 312.549 1095.27 317.114C1095.83 317.525 1096.28 318.098 1096.56 318.768C1096.77 319.674 1096.67 320.631 1096.28 321.462C1093.17 329.815 1082.45 333.307 1075.71 328.149C1074.18 327.007 1072.88 325.467 1071.33 324.314C1069.23 322.984 1067.03 321.839 1064.76 320.891C1060.1 318.517 1056.1 314.832 1052.18 311.191C1048.25 307.551 1044.37 303.842 1042.85 298.639C1041.1 292.579 1036.39 286.406 1037.09 280.095C1037.5 276.421 1038.28 272.507 1037.82 268.844C1037.47 266.139 1038.19 258.927 1039.71 256.634C1041.81 260.502 1046.48 267.851 1048.26 271.993Z" fill="url(#paint5_linear_66_128)"/>
<path d="M1044.68 195.241C1044.94 197.865 1044.73 200.52 1044.07 203.058C1043.39 205.601 1041.87 207.773 1039.81 209.151C1038.6 209.828 1037.28 210.224 1035.93 210.314C1034.58 210.405 1033.22 210.187 1031.95 209.676C1031.42 209.393 1030.82 209.325 1030.25 209.482C1029.86 209.708 1029.55 210.074 1029.37 210.521C1028.16 212.951 1028.15 215.872 1027.3 218.508C1027.05 219.25 1027.72 225.606 1027.15 226.086C1026.58 226.565 1025.07 221.042 1024.55 221.167C1022.93 221.538 1021.26 221.538 1019.64 221.167C1019.07 221.072 1018.53 220.83 1018.06 220.46C1017.67 220.129 1011.94 224.499 1011.69 224.02C1008.49 217.835 1014.86 205.351 1014.66 198.219C1014.53 193.244 1013.9 187.789 1016.48 183.704C1018.27 180.897 1021.24 179.333 1024.17 178.226C1026.76 177.173 1029.49 176.603 1032.25 176.538C1036.25 176.538 1039.51 177.838 1041.29 181.821C1043.17 186.019 1044.32 190.572 1044.68 195.241Z" fill="url(#paint6_linear_66_128)"/>
<path d="M1040.48 172.715C1041.85 175.682 1041.86 179.562 1039.9 182.118C1039.07 183.122 1038.07 183.939 1036.96 184.526C1034.67 185.846 1032.18 186.689 1029.61 187.013C1028.89 187.019 1028.17 187.227 1027.54 187.618C1027 188.109 1026.6 188.758 1026.38 189.49C1025.62 191.567 1025.17 193.761 1025.02 195.994C1024.33 196.428 1023.46 195.811 1023 195.092C1022.55 194.374 1022.21 193.483 1021.51 193.061C1020.29 192.297 1018.68 193.598 1018.4 195.115C1018.31 196.678 1018.79 198.216 1019.73 199.395C1020.59 200.695 1021.66 202.179 1021.27 203.731C1020.92 204.686 1020.29 205.487 1019.49 206.013L1014.92 209.813C1014.73 210.058 1014.5 210.254 1014.23 210.386C1013.97 210.518 1013.68 210.582 1013.39 210.574C1013.09 210.567 1012.81 210.487 1012.55 210.342C1012.29 210.196 1012.06 209.988 1011.88 209.733C1009.76 207.92 1007.83 205.832 1006.16 203.514C1003.55 199.403 1002.29 194.436 1002.59 189.432C1002.8 185.415 1003.82 181.499 1005.58 177.971C1007.34 174.444 1009.79 171.392 1012.75 169.04C1020.94 162.673 1035.24 161.224 1040.48 172.715Z" fill="#3E3E54"/>
<path d="M1003.54 153.293C1001.4 152.971 999.22 153.376 997.291 154.455C995.363 155.533 993.778 157.234 992.749 159.329C991.87 161.425 991.417 163.708 991.423 166.016C991.361 167.409 991.483 168.805 991.786 170.159C992.52 172.656 993.864 174.882 995.671 176.595C996.588 177.582 997.636 178.409 998.779 179.048C1001.31 180.167 1004.09 180.402 1006.75 179.721C1008.01 179.521 1009.24 179.137 1010.4 178.58C1011.65 177.925 1012.74 176.968 1013.6 175.783C1014.46 174.597 1015.06 173.213 1015.37 171.733C1015.54 170.9 1015.54 170.034 1015.37 169.2C1015.2 168.566 1014.96 167.953 1014.67 167.374C1013.28 164.407 1012.77 160.938 1010.92 158.245C1009.14 155.597 1006.5 153.819 1003.54 153.293Z" fill="#3E3E54"/>
<path d="M998.302 302.975C993.754 298.354 994.055 295.409 993.423 288.62C992.838 282.299 993.365 275.914 994.977 269.814C997.536 260.114 992.242 251.556 994.676 241.765C996.168 235.797 1005.27 204.393 1027.91 223.507C1031.02 226.12 1032.15 230.719 1034.52 234.131C1037.24 238.022 1040.83 241.16 1043.13 245.359C1044.66 248.307 1045.52 251.621 1045.63 255.016C1045.73 258.41 1045.09 261.781 1043.74 264.839C1042.42 267.885 1040.41 270.213 1039.24 273.363C1037.9 277.352 1037.31 281.599 1037.51 285.847C1037.59 291.598 1037.89 297.342 1038.42 303.078C1038.76 306.798 1040.88 311.659 1038.67 314.934C1036.45 318.209 1029.97 318.974 1026.68 319.556C1018.39 321.028 1009.19 320.115 1002.5 314.01C999.525 311.305 997.111 306.992 998.302 302.952" fill="#FC68EE"/>
<path d="M1013.54 279.034C1013.04 285.95 1014.49 292.831 1014.76 299.757C1015.04 306.684 1014.12 313.93 1013.2 320.959L1011.05 337.346C1011.02 337.702 1010.92 338.048 1010.77 338.362C1010.11 339.503 1008.55 338.795 1007.66 337.894C1002.92 332.907 1003.21 324.702 1002.05 317.593C1000.78 309.799 997.442 302.61 995.515 294.976C993.049 285.469 993.081 275.387 995.609 265.9C997.207 260.591 999.326 255.491 1001.93 250.688C1004.43 245.827 1007.23 240.932 1011.43 237.794C1014.37 235.58 1021.79 223.94 1024.9 227.204C1027.72 230.171 1024.35 244.869 1023.25 248.11C1019.86 258.311 1014.34 267.954 1013.54 279.034Z" fill="url(#paint7_linear_66_128)"/>
<path d="M1056.32 379.819C1056.46 381.139 1056.15 382.47 1055.45 383.554C1054.76 384.637 1053.72 385.397 1052.54 385.685C1052.02 385.936 1051.5 386.164 1050.93 386.392C1044.49 389.074 1035.62 390.512 1029.12 391.208C1028.09 391.439 1027.02 391.274 1026.08 390.74C1025.51 390.245 1025.05 389.612 1024.74 388.891C1023.95 387.385 1023.26 383.573 1022.54 380.333C1022.53 380.31 1022.53 380.287 1022.54 380.264C1022.4 379.659 1022.27 379.123 1022.13 378.541C1021.92 377.598 1021.62 376.683 1021.23 375.814C1021.29 376.218 1021.29 376.63 1021.23 377.035C1021.01 380.276 1019.29 387.853 1018.21 388.697C1016.89 389.613 1015.38 390.161 1013.82 390.295C1005.48 391.669 996.957 390.099 989.475 385.81C988.386 385.168 987.328 384.463 986.305 383.699C985.488 383.183 984.82 382.423 984.378 381.508C984.328 381.347 984.307 381.176 984.316 381.006C984.243 378.724 985.414 370.827 985.538 369.857C987.61 353.881 989.683 337.905 993.174 322.306C993.816 319.15 994.653 316.047 995.681 313.017C995.816 312.641 995.951 312.264 996.096 311.876C996.571 310.344 997.421 308.986 998.551 307.951C1000.22 306.638 1002.45 306.73 1004.49 306.878L1024.55 308.282C1025.77 308.344 1027 308.31 1028.22 308.179C1030.14 307.93 1032.07 307.804 1034 307.802C1036.57 307.905 1038.15 309.754 1039.79 311.99C1043.2 316.555 1045.04 322.374 1046.61 327.966C1050.81 342.721 1056.76 364.345 1056.32 379.819Z" fill="white"/>
<path d="M969.583 314.626C968.05 317.479 966.268 320.161 964.942 323.128C962.481 328.685 961.735 334.976 962.818 341.043C963.378 344.136 964.528 347.297 966.848 349.145C969.169 350.994 972.868 350.96 974.546 348.404C976.919 344.786 974.256 338.636 977.354 335.771C977.354 336.913 979.125 337.221 979.83 336.308C980.412 335.289 980.606 334.059 980.369 332.884C980.047 329.233 980.255 325.672 979.933 322.021C982.824 317.194 985.746 312.298 987.403 306.821C989.475 299.974 989.475 292.511 992.521 286.166C994.728 281.51 998.323 277.893 1001.64 274.116C1009.77 264.806 1016.42 254.06 1021.32 242.324C1023.15 237.942 1024.75 233.332 1024.94 228.516C1025.1 224.237 1018.88 221.567 1014.98 221.727C1011.09 221.886 1007.49 224.248 1004.79 227.341C1002.2 230.548 999.99 234.107 998.219 237.931C992.549 248.992 986.878 260.05 981.208 271.103C980.078 273.363 973.665 307.038 969.583 314.626Z" fill="url(#paint8_linear_66_128)"/>
<path d="M1053.68 503.906C1053.77 504.509 1054.04 505.065 1054.43 505.492C1054.94 505.834 1055.54 505.982 1056.13 505.914C1064.87 505.914 1073.59 505.515 1082.29 504.716C1083.33 504.625 1084.6 504.237 1084.7 503.119C1084.7 502.72 1084.61 502.326 1084.44 501.977C1082.64 497.824 1078.8 495.279 1075.11 493.031C1071.66 490.893 1068.15 488.816 1064.58 486.8C1063.96 486.356 1063.24 486.122 1062.51 486.127C1061.89 486.258 1061.31 486.53 1060.8 486.926C1058.4 488.398 1054.72 488.067 1053.43 491.034C1051.96 494.571 1052.83 500.311 1053.68 503.906Z" fill="#3E3E54"/>
<path d="M958.425 483.879C957.389 485.089 956.353 486.447 956.291 488.09C956.369 489.454 956.817 490.762 957.576 491.844C959.384 494.94 961.355 497.916 963.481 500.756C964.49 502.301 965.804 503.573 967.325 504.476C968.384 504.95 969.501 505.25 970.64 505.367C973.427 505.766 976.235 506.028 979.042 506.12C979.88 506.241 980.73 506.048 981.456 505.572C982.617 504.568 982.296 502.537 981.622 501.087C980.793 499.3 979.611 497.74 978.162 496.523C977.485 496.042 976.863 495.475 976.307 494.834C975.7 493.897 975.273 492.833 975.054 491.707C974.285 488.898 973.354 486.146 972.267 483.468C972.195 483.131 972.012 482.835 971.754 482.636C971.496 482.438 971.18 482.353 970.868 482.396C968.237 482.281 966.216 481.152 963.771 480.364C961.585 479.68 959.793 482.247 958.425 483.879Z" fill="#3E3E54"/>
<path d="M1240.96 441.383C1240.52 443.209 1239.11 444.521 1237.78 445.708C1236.42 447.092 1234.84 448.187 1233.12 448.938C1232.18 449.104 1231.31 449.568 1230.6 450.273C1230.3 450.749 1230.12 451.297 1230.05 451.87C1229.02 458.295 1231.79 465.233 1229.59 471.27C1228.5 473.848 1225.94 475.252 1223.48 476.154C1217.62 478.333 1211.35 478.801 1205.16 479.063C1189.25 479.733 1173.33 479.157 1157.5 477.34C1156.05 477.259 1154.62 476.924 1153.26 476.348C1149.79 474.636 1148.19 470.174 1147.7 466.02C1147.51 464.434 1147.39 462.688 1146.39 461.524C1143.82 458.523 1140.44 461.524 1137.78 462.357C1133.77 463.443 1129.53 462.871 1125.87 460.748C1121.67 458.261 1118.62 453.171 1118.97 447.922C1118.97 447.436 1119.09 446.96 1119.31 446.541C1119.58 446.195 1119.94 445.951 1120.35 445.84C1120.75 445.73 1121.17 445.76 1121.56 445.925C1122.32 446.284 1123.04 446.752 1123.69 447.317C1128.23 450.649 1134.2 449.816 1139.59 448.869C1149.36 447.135 1158.65 444.772 1168.6 444.225L1191.45 442.958C1196.7 442.673 1204.5 443.882 1207.53 437.766C1208.81 435.175 1206.8 432.414 1207.37 429.527C1207.91 426.871 1208.72 424.293 1209.8 421.847C1210.75 419.69 1211.64 417.168 1213.47 415.742C1213.84 415.457 1217.03 413.117 1219 415.605C1219 415.605 1219 415.731 1219 415.856C1218.89 416.678 1218.02 419.12 1217.96 420.421C1217.87 421.334 1217.04 427.724 1218.65 426.457C1218.75 426.367 1218.85 426.255 1218.92 426.126C1218.99 425.987 1219.05 425.842 1219.1 425.693C1219.55 424.552 1219.85 423.273 1220.3 422.098C1221.44 419.173 1223.44 416.759 1225.98 415.251C1226.38 414.957 1226.86 414.821 1227.34 414.863C1227.58 414.942 1227.81 415.088 1227.99 415.288C1228.17 415.487 1228.3 415.734 1228.37 416.004C1228.53 416.547 1228.56 417.124 1228.46 417.682C1228.2 418.979 1227.85 420.253 1227.42 421.493C1227.19 422.263 1227.03 423.053 1226.92 423.855C1226.75 425.108 1226.98 426.39 1227.58 427.473C1227.76 427.821 1227.98 428.149 1228.22 428.454C1229.09 429.546 1230.15 430.441 1231.33 431.09C1233.51 432.334 1235.94 433.064 1237.96 434.593C1239.98 436.123 1241.64 438.781 1240.96 441.383Z" fill="#3E3E54"/>
<path d="M1211.36 493.293C1209.45 495.85 1207.45 497.801 1205.53 500.368C1204.88 501.224 1201.6 502.046 1200.68 502.525C1200.23 502.797 1199.72 502.905 1199.21 502.833C1198.71 502.761 1198.23 502.514 1197.86 502.126C1197.58 501.695 1197.42 501.181 1197.4 500.648C1197.38 500.116 1197.51 499.589 1197.76 499.136C1198.28 498.237 1198.94 497.445 1199.71 496.797C1202.65 493.921 1205.31 490.053 1205.07 485.728C1204.92 482.955 1203.58 480.41 1203.31 477.648C1202.63 470.95 1215.97 460.474 1220.55 468.713C1225.13 476.952 1215.66 487.496 1211.36 493.293Z" fill="#3E3E54"/>
<path d="M1174.59 489.984C1176.71 492.973 1179.27 495.547 1182.17 497.595C1182.72 497.933 1183.15 498.468 1183.39 499.113C1183.47 499.579 1183.4 500.059 1183.19 500.474C1182.99 500.89 1182.66 501.215 1182.26 501.395C1181.47 501.731 1180.62 501.864 1179.77 501.783C1177.7 501.783 1175.43 501.681 1173.63 500.471C1172.87 499.932 1172.18 499.296 1171.56 498.577C1165.85 492.369 1160.3 485.983 1154.9 479.417C1153.53 477.751 1152.1 475.914 1151.9 473.712C1151.61 470.288 1154.45 467.355 1157.5 466.762C1160.55 466.169 1163.63 467.367 1166.41 468.862C1170.7 471.144 1169.66 473.769 1170.39 477.991C1170.99 482.277 1172.42 486.368 1174.59 489.984Z" fill="#3E3E54"/>
<path d="M1237.47 464.936C1237.33 465.139 1237.15 465.303 1236.94 465.415C1236.44 465.561 1235.92 465.59 1235.4 465.502C1234.89 465.414 1234.4 465.209 1233.96 464.902C1222.73 458.58 1213.11 449.177 1201.84 442.912C1200.18 441.988 1198.34 440.961 1197.7 439.044C1197.6 438.763 1197.52 438.473 1197.47 438.177C1196.84 434.753 1200.92 435.21 1202.75 436.396C1206.23 438.679 1209.61 441.121 1213.04 443.471L1232.73 457.04C1234.86 458.5 1237.18 460.258 1237.71 462.973C1237.8 463.301 1237.82 463.645 1237.78 463.982C1237.74 464.32 1237.63 464.645 1237.47 464.936Z" fill="#FC68EE"/>
<path d="M1240.47 465.571C1239.97 465.717 1239.45 465.746 1238.93 465.658C1238.42 465.569 1237.93 465.365 1237.49 465.058C1226.26 458.736 1216.64 449.333 1205.37 443.068C1203.71 442.144 1201.87 441.117 1201.23 439.2C1201.13 438.918 1201.05 438.628 1201 438.332C1202.18 437.648 1204.29 438.115 1205.48 438.88C1208.95 441.162 1212.33 443.604 1215.75 445.955L1235.44 459.523C1237.58 460.995 1239.9 462.741 1240.43 465.457C1240.46 465.491 1240.46 465.537 1240.47 465.571Z" fill="url(#paint9_linear_66_128)"/>
<path d="M1200.97 438.04C1200.97 438.04 1119.12 380.07 1096.25 321.462C1096.25 321.462 1094.24 316.361 1087.68 319.099" stroke="#3E3E54" stroke-width="1.60546" stroke-miterlimit="10" stroke-linecap="round"/>
<path d="M1074.99 326.163C1074.99 326.163 1071.49 328.731 1070.91 330.659" stroke="#3E3E54" stroke-width="1.60546" stroke-miterlimit="10" stroke-linecap="round"/>
<path d="M1241.61 433.418C1242.08 433.362 1242.55 433.482 1242.95 433.76C1243.11 433.922 1243.23 434.117 1243.31 434.333C1243.39 434.549 1243.43 434.782 1243.43 435.016C1243.43 435.62 1243.31 436.217 1243.1 436.773C1242.89 437.33 1242.58 437.834 1242.18 438.256C1241.81 438.747 1241.28 439.064 1240.7 439.147C1240.32 439.115 1239.95 438.998 1239.62 438.801C1239.28 438.605 1238.98 438.334 1238.74 438.005C1238.11 437.326 1237.51 436.61 1236.94 435.86C1236.22 434.89 1235.53 433.578 1237.1 433.372C1238.6 433.296 1240.11 433.312 1241.61 433.418Z" fill="#3E3E54"/>
<path d="M1241.61 433.418C1242.08 433.362 1242.55 433.482 1242.95 433.76C1243.11 433.922 1243.23 434.117 1243.31 434.333C1243.39 434.549 1243.43 434.782 1243.43 435.016C1243.43 435.62 1243.31 436.217 1243.1 436.773C1242.89 437.33 1242.58 437.834 1242.18 438.256C1241.81 438.747 1241.28 439.064 1240.7 439.147C1240.32 439.115 1239.95 438.998 1239.62 438.801C1239.28 438.605 1238.98 438.334 1238.74 438.005C1238.11 437.326 1237.51 436.61 1236.94 435.86C1236.22 434.89 1235.53 433.578 1237.1 433.372C1238.6 433.296 1240.11 433.312 1241.61 433.418Z" fill="url(#paint10_linear_66_128)"/>
<path d="M1228.26 428.409C1227.43 427.528 1226.35 426.985 1225.2 426.868C1224.04 426.699 1222.86 426.661 1221.69 426.754C1221.49 426.754 1221.26 426.754 1221.18 426.526C1221.14 426.401 1221.14 426.262 1221.18 426.138C1221.72 424.304 1222.41 422.531 1223.26 420.843C1224.11 419.149 1225.38 417.758 1226.92 416.838C1227.03 416.764 1227.14 416.713 1227.26 416.69C1227.38 416.666 1227.51 416.67 1227.63 416.701C1228.01 416.86 1228.06 417.431 1227.99 417.842C1227.8 418.772 1227.56 419.69 1227.28 420.592C1227.02 421.628 1226.91 422.703 1226.97 423.776C1226.79 425.028 1227.02 426.31 1227.62 427.393C1227.8 427.753 1228.02 428.093 1228.26 428.409Z" fill="url(#paint11_linear_66_128)"/>
<path d="M1218.61 426.446C1218.72 426.356 1218.81 426.244 1218.88 426.115V426.434C1218.88 426.685 1218.8 427.039 1218.55 427.142C1218.3 427.245 1218.25 427.005 1218.04 426.959C1217.4 426.963 1216.79 427.236 1216.33 427.724C1215.08 428.653 1213.74 429.419 1212.34 430.006C1211.77 426.868 1212.75 423.639 1213.99 420.752C1214.45 419.575 1215.07 418.485 1215.84 417.522C1216.61 416.548 1217.7 415.949 1218.87 415.856H1219.04C1218.94 416.678 1218.07 419.12 1218 420.421C1217.84 421.322 1217.01 427.713 1218.61 426.446Z" fill="url(#paint12_linear_66_128)"/>
<path d="M1222.29 435.643C1222.8 435.643 1223.21 435.189 1223.21 434.628C1223.21 434.067 1222.8 433.612 1222.29 433.612C1221.78 433.612 1221.37 434.067 1221.37 434.628C1221.37 435.189 1221.78 435.643 1222.29 435.643Z" fill="url(#paint13_linear_66_128)"/>
<path d="M1022.52 380.321C1022.39 379.716 1022.26 379.18 1022.12 378.598C1022.31 379.154 1022.45 379.732 1022.52 380.321Z" fill="url(#paint14_linear_66_128)"/>
<path d="M1056.32 379.819C1056.46 381.139 1056.15 382.47 1055.45 383.554C1054.76 384.637 1053.72 385.397 1052.54 385.685C1052.02 385.936 1051.5 386.164 1050.93 386.392L1050.81 386.267C1050.03 385.204 1049.51 383.944 1049.3 382.603C1044.91 363.394 1039.4 344.518 1032.79 326.095C1031.31 321.929 1025.14 312.949 1028.2 308.167C1030.12 307.919 1032.05 307.793 1033.98 307.791C1036.55 307.893 1038.13 309.742 1039.76 311.979C1043.18 316.543 1045.02 322.363 1046.59 327.955C1050.81 342.721 1056.76 364.345 1056.32 379.819Z" fill="url(#paint15_linear_66_128)"/>
<path d="M110 269.2C107.733 269.2 105.8 268.827 104.2 268.08C102.627 267.307 101.347 266.253 100.36 264.92C99.4 263.587 98.6933 262.08 98.24 260.4C97.7867 258.693 97.56 256.92 97.56 255.08V240.6H103.08V255.08C103.08 256.253 103.187 257.4 103.4 258.52C103.64 259.613 104.027 260.6 104.56 261.48C105.093 262.36 105.8 263.053 106.68 263.56C107.56 264.067 108.653 264.32 109.96 264.32C111.293 264.32 112.4 264.067 113.28 263.56C114.187 263.027 114.893 262.32 115.4 261.44C115.933 260.56 116.32 259.573 116.56 258.48C116.8 257.36 116.92 256.227 116.92 255.08V240.6H122.4V255.08C122.4 257.027 122.16 258.853 121.68 260.56C121.227 262.267 120.493 263.773 119.48 265.08C118.493 266.36 117.213 267.373 115.64 268.12C114.067 268.84 112.187 269.2 110 269.2ZM146.568 269H141.208V257.24C141.208 255.56 140.915 254.333 140.328 253.56C139.742 252.787 138.928 252.4 137.888 252.4C137.168 252.4 136.435 252.587 135.688 252.96C134.968 253.333 134.315 253.853 133.728 254.52C133.142 255.16 132.715 255.907 132.448 256.76V269H127.088V248.04H131.928V251.92C132.462 251.013 133.142 250.253 133.968 249.64C134.795 249 135.742 248.52 136.808 248.2C137.902 247.853 139.048 247.68 140.248 247.68C141.555 247.68 142.622 247.92 143.448 248.4C144.302 248.853 144.942 249.48 145.368 250.28C145.822 251.053 146.128 251.933 146.288 252.92C146.475 253.907 146.568 254.907 146.568 255.92V269ZM170.558 269.4C168.878 269.4 167.358 269.12 165.998 268.56C164.638 267.973 163.478 267.187 162.518 266.2C161.558 265.187 160.812 264.04 160.278 262.76C159.772 261.453 159.518 260.08 159.518 258.64C159.518 256.64 159.958 254.813 160.838 253.16C161.745 251.507 163.025 250.187 164.678 249.2C166.358 248.187 168.332 247.68 170.598 247.68C172.892 247.68 174.852 248.187 176.478 249.2C178.105 250.187 179.345 251.507 180.198 253.16C181.078 254.787 181.518 256.547 181.518 258.44C181.518 258.76 181.505 259.093 181.478 259.44C181.452 259.76 181.425 260.027 181.398 260.24H165.198C165.305 261.307 165.612 262.24 166.118 263.04C166.652 263.84 167.318 264.453 168.118 264.88C168.945 265.28 169.825 265.48 170.758 265.48C171.825 265.48 172.825 265.227 173.758 264.72C174.718 264.187 175.372 263.493 175.718 262.64L180.318 263.92C179.812 264.987 179.078 265.933 178.118 266.76C177.185 267.587 176.078 268.24 174.798 268.72C173.518 269.173 172.105 269.4 170.558 269.4ZM165.078 256.84H176.038C175.932 255.773 175.625 254.853 175.118 254.08C174.638 253.28 173.998 252.667 173.198 252.24C172.398 251.787 171.505 251.56 170.518 251.56C169.558 251.56 168.678 251.787 167.878 252.24C167.105 252.667 166.465 253.28 165.958 254.08C165.478 254.853 165.185 255.773 165.078 256.84ZM192.504 269.4C190.717 269.4 189.01 269.107 187.384 268.52C185.757 267.933 184.357 267.067 183.184 265.92L185.104 262.44C186.357 263.453 187.584 264.2 188.784 264.68C190.01 265.16 191.184 265.4 192.304 265.4C193.344 265.4 194.17 265.213 194.784 264.84C195.424 264.467 195.744 263.907 195.744 263.16C195.744 262.653 195.57 262.267 195.224 262C194.877 261.707 194.37 261.453 193.704 261.24C193.064 261.027 192.277 260.787 191.344 260.52C189.797 260.013 188.504 259.52 187.464 259.04C186.424 258.56 185.637 257.96 185.104 257.24C184.597 256.493 184.344 255.547 184.344 254.4C184.344 253.013 184.69 251.827 185.384 250.84C186.104 249.827 187.09 249.04 188.344 248.48C189.624 247.92 191.117 247.64 192.824 247.64C194.317 247.64 195.73 247.88 197.064 248.36C198.397 248.813 199.61 249.56 200.704 250.6L198.544 254C197.477 253.173 196.464 252.573 195.504 252.2C194.544 251.8 193.57 251.6 192.584 251.6C192.024 251.6 191.49 251.667 190.984 251.8C190.504 251.933 190.104 252.16 189.784 252.48C189.49 252.773 189.344 253.2 189.344 253.76C189.344 254.267 189.477 254.667 189.744 254.96C190.037 255.227 190.464 255.467 191.024 255.68C191.61 255.893 192.317 256.133 193.144 256.4C194.824 256.88 196.237 257.373 197.384 257.88C198.557 258.387 199.437 259.013 200.024 259.76C200.61 260.48 200.904 261.48 200.904 262.76C200.904 264.84 200.144 266.467 198.624 267.64C197.104 268.813 195.064 269.4 192.504 269.4ZM217.109 269.4C215.483 269.4 214.043 269.04 212.789 268.32C211.563 267.573 210.603 266.573 209.909 265.32V277.52H204.549V248.04H209.229V251.64C210.029 250.413 211.043 249.453 212.269 248.76C213.496 248.04 214.896 247.68 216.469 247.68C217.883 247.68 219.176 247.96 220.349 248.52C221.549 249.08 222.589 249.867 223.469 250.88C224.349 251.867 225.029 253.013 225.509 254.32C226.016 255.6 226.269 256.987 226.269 258.48C226.269 260.507 225.869 262.347 225.069 264C224.296 265.653 223.216 266.973 221.829 267.96C220.469 268.92 218.896 269.4 217.109 269.4ZM215.309 264.84C216.136 264.84 216.883 264.667 217.549 264.32C218.216 263.973 218.789 263.507 219.269 262.92C219.776 262.307 220.149 261.627 220.389 260.88C220.656 260.107 220.789 259.307 220.789 258.48C220.789 257.6 220.643 256.787 220.349 256.04C220.083 255.293 219.683 254.64 219.149 254.08C218.616 253.493 217.989 253.04 217.269 252.72C216.576 252.4 215.816 252.24 214.989 252.24C214.483 252.24 213.963 252.333 213.429 252.52C212.923 252.68 212.429 252.92 211.949 253.24C211.469 253.56 211.043 253.933 210.669 254.36C210.323 254.787 210.069 255.253 209.909 255.76V260.68C210.229 261.453 210.656 262.16 211.189 262.8C211.749 263.44 212.389 263.947 213.109 264.32C213.829 264.667 214.563 264.84 215.309 264.84ZM228.461 262.8C228.461 261.44 228.834 260.253 229.581 259.24C230.354 258.2 231.421 257.4 232.781 256.84C234.141 256.28 235.701 256 237.461 256C238.341 256 239.234 256.067 240.141 256.2C241.048 256.333 241.834 256.547 242.501 256.84V255.72C242.501 254.387 242.101 253.36 241.301 252.64C240.528 251.92 239.368 251.56 237.821 251.56C236.674 251.56 235.581 251.76 234.541 252.16C233.501 252.56 232.408 253.147 231.261 253.92L229.541 250.4C230.928 249.493 232.341 248.813 233.781 248.36C235.248 247.907 236.781 247.68 238.381 247.68C241.368 247.68 243.688 248.427 245.341 249.92C247.021 251.413 247.861 253.547 247.861 256.32V263C247.861 263.56 247.954 263.96 248.141 264.2C248.354 264.44 248.688 264.587 249.141 264.64V269C248.661 269.08 248.221 269.147 247.821 269.2C247.448 269.253 247.128 269.28 246.861 269.28C245.794 269.28 244.981 269.04 244.421 268.56C243.888 268.08 243.554 267.493 243.421 266.8L243.301 265.72C242.394 266.893 241.261 267.8 239.901 268.44C238.541 269.08 237.154 269.4 235.741 269.4C234.354 269.4 233.101 269.12 231.981 268.56C230.888 267.973 230.021 267.187 229.381 266.2C228.768 265.187 228.461 264.053 228.461 262.8ZM241.501 263.88C241.794 263.56 242.034 263.24 242.221 262.92C242.408 262.6 242.501 262.307 242.501 262.04V259.92C241.861 259.653 241.168 259.453 240.421 259.32C239.674 259.16 238.968 259.08 238.301 259.08C236.914 259.08 235.768 259.387 234.861 260C233.981 260.587 233.541 261.373 233.541 262.36C233.541 262.893 233.688 263.4 233.981 263.88C234.274 264.36 234.701 264.747 235.261 265.04C235.821 265.333 236.488 265.48 237.261 265.48C238.061 265.48 238.848 265.333 239.621 265.04C240.394 264.72 241.021 264.333 241.501 263.88ZM262.63 269.4C260.923 269.4 259.39 269.12 258.03 268.56C256.67 267.973 255.51 267.173 254.55 266.16C253.59 265.12 252.843 263.947 252.31 262.64C251.803 261.333 251.55 259.96 251.55 258.52C251.55 256.547 251.99 254.747 252.87 253.12C253.776 251.467 255.056 250.147 256.71 249.16C258.363 248.173 260.323 247.68 262.59 247.68C264.856 247.68 266.803 248.173 268.43 249.16C270.056 250.147 271.27 251.44 272.07 253.04L266.83 254.64C266.376 253.867 265.776 253.28 265.03 252.88C264.283 252.453 263.456 252.24 262.55 252.24C261.536 252.24 260.603 252.507 259.75 253.04C258.923 253.547 258.27 254.28 257.79 255.24C257.31 256.173 257.07 257.267 257.07 258.52C257.07 259.747 257.31 260.84 257.79 261.8C258.296 262.733 258.963 263.48 259.79 264.04C260.616 264.573 261.536 264.84 262.55 264.84C263.19 264.84 263.79 264.733 264.35 264.52C264.936 264.307 265.456 264.013 265.91 263.64C266.363 263.267 266.696 262.84 266.91 262.36L272.15 263.96C271.67 265 270.963 265.933 270.03 266.76C269.123 267.587 268.043 268.24 266.79 268.72C265.563 269.173 264.176 269.4 262.63 269.4ZM275.448 269V248.04H280.808V269H275.448ZM275.448 245.12V239.8H280.808V245.12H275.448ZM295.323 269.4C293.616 269.4 292.083 269.12 290.723 268.56C289.363 267.973 288.203 267.173 287.243 266.16C286.31 265.147 285.59 263.987 285.083 262.68C284.576 261.373 284.323 260 284.323 258.56C284.323 257.093 284.576 255.707 285.083 254.4C285.59 253.093 286.31 251.933 287.243 250.92C288.203 249.907 289.363 249.12 290.723 248.56C292.083 247.973 293.616 247.68 295.323 247.68C297.03 247.68 298.55 247.973 299.883 248.56C301.243 249.12 302.403 249.907 303.363 250.92C304.323 251.933 305.043 253.093 305.523 254.4C306.03 255.707 306.283 257.093 306.283 258.56C306.283 260 306.03 261.373 305.523 262.68C305.043 263.987 304.323 265.147 303.363 266.16C302.43 267.173 301.283 267.973 299.923 268.56C298.563 269.12 297.03 269.4 295.323 269.4ZM289.843 258.56C289.843 259.787 290.083 260.88 290.563 261.84C291.043 262.773 291.696 263.507 292.523 264.04C293.35 264.573 294.283 264.84 295.323 264.84C296.336 264.84 297.256 264.573 298.083 264.04C298.91 263.48 299.563 262.733 300.043 261.8C300.55 260.84 300.803 259.747 300.803 258.52C300.803 257.32 300.55 256.24 300.043 255.28C299.563 254.32 298.91 253.573 298.083 253.04C297.256 252.507 296.336 252.24 295.323 252.24C294.283 252.24 293.35 252.52 292.523 253.08C291.696 253.613 291.043 254.36 290.563 255.32C290.083 256.253 289.843 257.333 289.843 258.56ZM332.07 269.4C330.444 269.4 329.004 269.04 327.75 268.32C326.524 267.573 325.564 266.573 324.87 265.32V277.52H319.51V248.04H324.19V251.64C324.99 250.413 326.004 249.453 327.23 248.76C328.457 248.04 329.857 247.68 331.43 247.68C332.844 247.68 334.137 247.96 335.31 248.52C336.51 249.08 337.55 249.867 338.43 250.88C339.31 251.867 339.99 253.013 340.47 254.32C340.977 255.6 341.23 256.987 341.23 258.48C341.23 260.507 340.83 262.347 340.03 264C339.257 265.653 338.177 266.973 336.79 267.96C335.43 268.92 333.857 269.4 332.07 269.4ZM330.27 264.84C331.097 264.84 331.844 264.667 332.51 264.32C333.177 263.973 333.75 263.507 334.23 262.92C334.737 262.307 335.11 261.627 335.35 260.88C335.617 260.107 335.75 259.307 335.75 258.48C335.75 257.6 335.604 256.787 335.31 256.04C335.044 255.293 334.644 254.64 334.11 254.08C333.577 253.493 332.95 253.04 332.23 252.72C331.537 252.4 330.777 252.24 329.95 252.24C329.444 252.24 328.924 252.333 328.39 252.52C327.884 252.68 327.39 252.92 326.91 253.24C326.43 253.56 326.004 253.933 325.63 254.36C325.284 254.787 325.03 255.253 324.87 255.76V260.68C325.19 261.453 325.617 262.16 326.15 262.8C326.71 263.44 327.35 263.947 328.07 264.32C328.79 264.667 329.524 264.84 330.27 264.84ZM354.582 269.4C352.902 269.4 351.382 269.12 350.022 268.56C348.662 267.973 347.502 267.187 346.542 266.2C345.582 265.187 344.835 264.04 344.302 262.76C343.795 261.453 343.542 260.08 343.542 258.64C343.542 256.64 343.982 254.813 344.862 253.16C345.769 251.507 347.049 250.187 348.702 249.2C350.382 248.187 352.355 247.68 354.622 247.68C356.915 247.68 358.875 248.187 360.502 249.2C362.129 250.187 363.369 251.507 364.222 253.16C365.102 254.787 365.542 256.547 365.542 258.44C365.542 258.76 365.529 259.093 365.502 259.44C365.475 259.76 365.449 260.027 365.422 260.24H349.222C349.329 261.307 349.635 262.24 350.142 263.04C350.675 263.84 351.342 264.453 352.142 264.88C352.969 265.28 353.849 265.48 354.782 265.48C355.849 265.48 356.849 265.227 357.782 264.72C358.742 264.187 359.395 263.493 359.742 262.64L364.342 263.92C363.835 264.987 363.102 265.933 362.142 266.76C361.209 267.587 360.102 268.24 358.822 268.72C357.542 269.173 356.129 269.4 354.582 269.4ZM349.102 256.84H360.062C359.955 255.773 359.649 254.853 359.142 254.08C358.662 253.28 358.022 252.667 357.222 252.24C356.422 251.787 355.529 251.56 354.542 251.56C353.582 251.56 352.702 251.787 351.902 252.24C351.129 252.667 350.489 253.28 349.982 254.08C349.502 254.853 349.209 255.773 349.102 256.84ZM381.287 252.68C379.661 252.68 378.207 253 376.927 253.64C375.647 254.253 374.727 255.147 374.167 256.32V269H368.807V248.04H373.727V252.52C374.474 251.08 375.421 249.947 376.567 249.12C377.714 248.293 378.927 247.84 380.207 247.76C380.501 247.76 380.727 247.76 380.887 247.76C381.047 247.76 381.181 247.773 381.287 247.8V252.68ZM385.556 269V253.24H382.796V249.16H385.556V247.88C385.556 246.147 385.836 244.653 386.396 243.4C386.983 242.12 387.796 241.133 388.836 240.44C389.903 239.747 391.143 239.4 392.556 239.4C393.409 239.4 394.263 239.507 395.116 239.72C395.996 239.933 396.863 240.24 397.716 240.64L396.636 244.68C396.236 244.467 395.769 244.293 395.236 244.16C394.703 244 394.196 243.92 393.716 243.92C392.809 243.92 392.116 244.24 391.636 244.88C391.156 245.52 390.916 246.453 390.916 247.68V249.16H396.036V253.24H390.916V269H385.556ZM408.527 269.4C406.847 269.4 405.327 269.12 403.967 268.56C402.607 267.973 401.447 267.187 400.487 266.2C399.527 265.187 398.781 264.04 398.247 262.76C397.741 261.453 397.487 260.08 397.487 258.64C397.487 256.64 397.927 254.813 398.807 253.16C399.714 251.507 400.994 250.187 402.647 249.2C404.327 248.187 406.301 247.68 408.567 247.68C410.861 247.68 412.821 248.187 414.447 249.2C416.074 250.187 417.314 251.507 418.167 253.16C419.047 254.787 419.487 256.547 419.487 258.44C419.487 258.76 419.474 259.093 419.447 259.44C419.421 259.76 419.394 260.027 419.367 260.24H403.167C403.274 261.307 403.581 262.24 404.087 263.04C404.621 263.84 405.287 264.453 406.087 264.88C406.914 265.28 407.794 265.48 408.727 265.48C409.794 265.48 410.794 265.227 411.727 264.72C412.687 264.187 413.341 263.493 413.687 262.64L418.287 263.92C417.781 264.987 417.047 265.933 416.087 266.76C415.154 267.587 414.047 268.24 412.767 268.72C411.487 269.173 410.074 269.4 408.527 269.4ZM403.047 256.84H414.007C413.901 255.773 413.594 254.853 413.087 254.08C412.607 253.28 411.967 252.667 411.167 252.24C410.367 251.787 409.474 251.56 408.487 251.56C407.527 251.56 406.647 251.787 405.847 252.24C405.074 252.667 404.434 253.28 403.927 254.08C403.447 254.853 403.154 255.773 403.047 256.84ZM432.513 269.4C430.806 269.4 429.273 269.12 427.913 268.56C426.553 267.973 425.393 267.173 424.433 266.16C423.473 265.12 422.726 263.947 422.193 262.64C421.686 261.333 421.433 259.96 421.433 258.52C421.433 256.547 421.873 254.747 422.753 253.12C423.659 251.467 424.939 250.147 426.593 249.16C428.246 248.173 430.206 247.68 432.473 247.68C434.739 247.68 436.686 248.173 438.313 249.16C439.939 250.147 441.153 251.44 441.953 253.04L436.713 254.64C436.259 253.867 435.659 253.28 434.913 252.88C434.166 252.453 433.339 252.24 432.433 252.24C431.419 252.24 430.486 252.507 429.633 253.04C428.806 253.547 428.153 254.28 427.673 255.24C427.193 256.173 426.953 257.267 426.953 258.52C426.953 259.747 427.193 260.84 427.673 261.8C428.179 262.733 428.846 263.48 429.673 264.04C430.499 264.573 431.419 264.84 432.433 264.84C433.073 264.84 433.673 264.733 434.233 264.52C434.819 264.307 435.339 264.013 435.793 263.64C436.246 263.267 436.579 262.84 436.793 262.36L442.033 263.96C441.553 265 440.846 265.933 439.913 266.76C439.006 267.587 437.926 268.24 436.673 268.72C435.446 269.173 434.059 269.4 432.513 269.4ZM457.891 267.92C457.437 268.107 456.891 268.32 456.251 268.56C455.611 268.8 454.917 268.987 454.171 269.12C453.451 269.28 452.717 269.36 451.971 269.36C450.984 269.36 450.077 269.187 449.251 268.84C448.424 268.493 447.757 267.947 447.251 267.2C446.771 266.427 446.531 265.427 446.531 264.2V252.16H443.771V248.04H446.531V241.24H451.891V248.04H456.291V252.16H451.891V262.4C451.917 263.12 452.117 263.64 452.491 263.96C452.864 264.28 453.331 264.44 453.891 264.44C454.451 264.44 454.997 264.347 455.531 264.16C456.064 263.973 456.491 263.813 456.811 263.68L457.891 267.92ZM470.128 269.4C468.421 269.4 466.888 269.12 465.528 268.56C464.168 267.973 463.008 267.173 462.048 266.16C461.114 265.147 460.394 263.987 459.888 262.68C459.381 261.373 459.128 260 459.128 258.56C459.128 257.093 459.381 255.707 459.888 254.4C460.394 253.093 461.114 251.933 462.048 250.92C463.008 249.907 464.168 249.12 465.528 248.56C466.888 247.973 468.421 247.68 470.128 247.68C471.834 247.68 473.354 247.973 474.688 248.56C476.048 249.12 477.208 249.907 478.168 250.92C479.128 251.933 479.848 253.093 480.328 254.4C480.834 255.707 481.088 257.093 481.088 258.56C481.088 260 480.834 261.373 480.328 262.68C479.848 263.987 479.128 265.147 478.168 266.16C477.234 267.173 476.088 267.973 474.728 268.56C473.368 269.12 471.834 269.4 470.128 269.4ZM464.648 258.56C464.648 259.787 464.888 260.88 465.368 261.84C465.848 262.773 466.501 263.507 467.328 264.04C468.154 264.573 469.088 264.84 470.128 264.84C471.141 264.84 472.061 264.573 472.888 264.04C473.714 263.48 474.368 262.733 474.848 261.8C475.354 260.84 475.608 259.747 475.608 258.52C475.608 257.32 475.354 256.24 474.848 255.28C474.368 254.32 473.714 253.573 472.888 253.04C472.061 252.507 471.141 252.24 470.128 252.24C469.088 252.24 468.154 252.52 467.328 253.08C466.501 253.613 465.848 254.36 465.368 255.32C464.888 256.253 464.648 257.333 464.648 258.56ZM506.875 269.4C505.248 269.4 503.808 269.04 502.555 268.32C501.328 267.573 500.368 266.573 499.675 265.32V277.52H494.315V248.04H498.995V251.64C499.795 250.413 500.808 249.453 502.035 248.76C503.262 248.04 504.662 247.68 506.235 247.68C507.648 247.68 508.942 247.96 510.115 248.52C511.315 249.08 512.355 249.867 513.235 250.88C514.115 251.867 514.795 253.013 515.275 254.32C515.782 255.6 516.035 256.987 516.035 258.48C516.035 260.507 515.635 262.347 514.835 264C514.062 265.653 512.982 266.973 511.595 267.96C510.235 268.92 508.662 269.4 506.875 269.4ZM505.075 264.84C505.902 264.84 506.648 264.667 507.315 264.32C507.982 263.973 508.555 263.507 509.035 262.92C509.542 262.307 509.915 261.627 510.155 260.88C510.422 260.107 510.555 259.307 510.555 258.48C510.555 257.6 510.408 256.787 510.115 256.04C509.848 255.293 509.448 254.64 508.915 254.08C508.382 253.493 507.755 253.04 507.035 252.72C506.342 252.4 505.582 252.24 504.755 252.24C504.248 252.24 503.728 252.333 503.195 252.52C502.688 252.68 502.195 252.92 501.715 253.24C501.235 253.56 500.808 253.933 500.435 254.36C500.088 254.787 499.835 255.253 499.675 255.76V260.68C499.995 261.453 500.422 262.16 500.955 262.8C501.515 263.44 502.155 263.947 502.875 264.32C503.595 264.667 504.328 264.84 505.075 264.84ZM518.227 262.8C518.227 261.44 518.6 260.253 519.347 259.24C520.12 258.2 521.187 257.4 522.547 256.84C523.907 256.28 525.467 256 527.227 256C528.107 256 529 256.067 529.907 256.2C530.813 256.333 531.6 256.547 532.267 256.84V255.72C532.267 254.387 531.867 253.36 531.067 252.64C530.293 251.92 529.133 251.56 527.587 251.56C526.44 251.56 525.347 251.76 524.307 252.16C523.267 252.56 522.173 253.147 521.027 253.92L519.307 250.4C520.693 249.493 522.107 248.813 523.547 248.36C525.013 247.907 526.547 247.68 528.147 247.68C531.133 247.68 533.453 248.427 535.107 249.92C536.787 251.413 537.627 253.547 537.627 256.32V263C537.627 263.56 537.72 263.96 537.907 264.2C538.12 264.44 538.453 264.587 538.907 264.64V269C538.427 269.08 537.987 269.147 537.587 269.2C537.213 269.253 536.893 269.28 536.627 269.28C535.56 269.28 534.747 269.04 534.187 268.56C533.653 268.08 533.32 267.493 533.187 266.8L533.067 265.72C532.16 266.893 531.027 267.8 529.667 268.44C528.307 269.08 526.92 269.4 525.507 269.4C524.12 269.4 522.867 269.12 521.747 268.56C520.653 267.973 519.787 267.187 519.147 266.2C518.533 265.187 518.227 264.053 518.227 262.8ZM531.267 263.88C531.56 263.56 531.8 263.24 531.987 262.92C532.173 262.6 532.267 262.307 532.267 262.04V259.92C531.627 259.653 530.933 259.453 530.187 259.32C529.44 259.16 528.733 259.08 528.067 259.08C526.68 259.08 525.533 259.387 524.627 260C523.747 260.587 523.307 261.373 523.307 262.36C523.307 262.893 523.453 263.4 523.747 263.88C524.04 264.36 524.467 264.747 525.027 265.04C525.587 265.333 526.253 265.48 527.027 265.48C527.827 265.48 528.613 265.333 529.387 265.04C530.16 264.72 530.787 264.333 531.267 263.88ZM555.115 252.68C553.489 252.68 552.035 253 550.755 253.64C549.475 254.253 548.555 255.147 547.995 256.32V269H542.635V248.04H547.555V252.52C548.302 251.08 549.249 249.947 550.395 249.12C551.542 248.293 552.755 247.84 554.035 247.76C554.329 247.76 554.555 247.76 554.715 247.76C554.875 247.76 555.009 247.773 555.115 247.8V252.68ZM556.547 262.8C556.547 261.44 556.92 260.253 557.667 259.24C558.44 258.2 559.507 257.4 560.867 256.84C562.227 256.28 563.787 256 565.547 256C566.427 256 567.32 256.067 568.227 256.2C569.134 256.333 569.92 256.547 570.587 256.84V255.72C570.587 254.387 570.187 253.36 569.387 252.64C568.614 251.92 567.454 251.56 565.907 251.56C564.76 251.56 563.667 251.76 562.627 252.16C561.587 252.56 560.494 253.147 559.347 253.92L557.627 250.4C559.014 249.493 560.427 248.813 561.867 248.36C563.334 247.907 564.867 247.68 566.467 247.68C569.454 247.68 571.774 248.427 573.427 249.92C575.107 251.413 575.947 253.547 575.947 256.32V263C575.947 263.56 576.04 263.96 576.227 264.2C576.44 264.44 576.774 264.587 577.227 264.64V269C576.747 269.08 576.307 269.147 575.907 269.2C575.534 269.253 575.214 269.28 574.947 269.28C573.88 269.28 573.067 269.04 572.507 268.56C571.974 268.08 571.64 267.493 571.507 266.8L571.387 265.72C570.48 266.893 569.347 267.8 567.987 268.44C566.627 269.08 565.24 269.4 563.827 269.4C562.44 269.4 561.187 269.12 560.067 268.56C558.974 267.973 558.107 267.187 557.467 266.2C556.854 265.187 556.547 264.053 556.547 262.8ZM569.587 263.88C569.88 263.56 570.12 263.24 570.307 262.92C570.494 262.6 570.587 262.307 570.587 262.04V259.92C569.947 259.653 569.254 259.453 568.507 259.32C567.76 259.16 567.054 259.08 566.387 259.08C565 259.08 563.854 259.387 562.947 260C562.067 260.587 561.627 261.373 561.627 262.36C561.627 262.893 561.774 263.4 562.067 263.88C562.36 264.36 562.787 264.747 563.347 265.04C563.907 265.333 564.574 265.48 565.347 265.48C566.147 265.48 566.934 265.333 567.707 265.04C568.48 264.72 569.107 264.333 569.587 263.88ZM590.525 239.8H595.885V262.28C595.885 263.24 596.045 263.893 596.365 264.24C596.685 264.56 597.125 264.72 597.685 264.72C598.112 264.72 598.552 264.667 599.005 264.56C599.458 264.453 599.858 264.32 600.205 264.16L600.925 268.24C600.205 268.587 599.365 268.853 598.405 269.04C597.445 269.227 596.578 269.32 595.805 269.32C594.125 269.32 592.818 268.88 591.885 268C590.978 267.093 590.525 265.813 590.525 264.16V239.8ZM601.82 262.8C601.82 261.44 602.194 260.253 602.94 259.24C603.714 258.2 604.78 257.4 606.14 256.84C607.5 256.28 609.06 256 610.82 256C611.7 256 612.594 256.067 613.5 256.2C614.407 256.333 615.194 256.547 615.86 256.84V255.72C615.86 254.387 615.46 253.36 614.66 252.64C613.887 251.92 612.727 251.56 611.18 251.56C610.034 251.56 608.94 251.76 607.9 252.16C606.86 252.56 605.767 253.147 604.62 253.92L602.9 250.4C604.287 249.493 605.7 248.813 607.14 248.36C608.607 247.907 610.14 247.68 611.74 247.68C614.727 247.68 617.047 248.427 618.7 249.92C620.38 251.413 621.22 253.547 621.22 256.32V263C621.22 263.56 621.314 263.96 621.5 264.2C621.714 264.44 622.047 264.587 622.5 264.64V269C622.02 269.08 621.58 269.147 621.18 269.2C620.807 269.253 620.487 269.28 620.22 269.28C619.154 269.28 618.34 269.04 617.78 268.56C617.247 268.08 616.914 267.493 616.78 266.8L616.66 265.72C615.754 266.893 614.62 267.8 613.26 268.44C611.9 269.08 610.514 269.4 609.1 269.4C607.714 269.4 606.46 269.12 605.34 268.56C604.247 267.973 603.38 267.187 602.74 266.2C602.127 265.187 601.82 264.053 601.82 262.8ZM614.86 263.88C615.154 263.56 615.394 263.24 615.58 262.92C615.767 262.6 615.86 262.307 615.86 262.04V259.92C615.22 259.653 614.527 259.453 613.78 259.32C613.034 259.16 612.327 259.08 611.66 259.08C610.274 259.08 609.127 259.387 608.22 260C607.34 260.587 606.9 261.373 606.9 262.36C606.9 262.893 607.047 263.4 607.34 263.88C607.634 264.36 608.06 264.747 608.62 265.04C609.18 265.333 609.847 265.48 610.62 265.48C611.42 265.48 612.207 265.333 612.98 265.04C613.754 264.72 614.38 264.333 614.86 263.88ZM633.949 269.4C632.162 269.4 630.456 269.107 628.829 268.52C627.202 267.933 625.802 267.067 624.629 265.92L626.549 262.44C627.802 263.453 629.029 264.2 630.229 264.68C631.456 265.16 632.629 265.4 633.749 265.4C634.789 265.4 635.616 265.213 636.229 264.84C636.869 264.467 637.189 263.907 637.189 263.16C637.189 262.653 637.016 262.267 636.669 262C636.322 261.707 635.816 261.453 635.149 261.24C634.509 261.027 633.722 260.787 632.789 260.52C631.242 260.013 629.949 259.52 628.909 259.04C627.869 258.56 627.082 257.96 626.549 257.24C626.042 256.493 625.789 255.547 625.789 254.4C625.789 253.013 626.136 251.827 626.829 250.84C627.549 249.827 628.536 249.04 629.789 248.48C631.069 247.92 632.562 247.64 634.269 247.64C635.762 247.64 637.176 247.88 638.509 248.36C639.842 248.813 641.056 249.56 642.149 250.6L639.989 254C638.922 253.173 637.909 252.573 636.949 252.2C635.989 251.8 635.016 251.6 634.029 251.6C633.469 251.6 632.936 251.667 632.429 251.8C631.949 251.933 631.549 252.16 631.229 252.48C630.936 252.773 630.789 253.2 630.789 253.76C630.789 254.267 630.922 254.667 631.189 254.96C631.482 255.227 631.909 255.467 632.469 255.68C633.056 255.893 633.762 256.133 634.589 256.4C636.269 256.88 637.682 257.373 638.829 257.88C640.002 258.387 640.882 259.013 641.469 259.76C642.056 260.48 642.349 261.48 642.349 262.76C642.349 264.84 641.589 266.467 640.069 267.64C638.549 268.813 636.509 269.4 633.949 269.4ZM116.92 316H111.56V304.24C111.56 302.56 111.267 301.333 110.68 300.56C110.093 299.787 109.28 299.4 108.24 299.4C107.52 299.4 106.787 299.587 106.04 299.96C105.32 300.333 104.667 300.853 104.08 301.52C103.493 302.16 103.067 302.907 102.8 303.76V316H97.44V295.04H102.28V298.92C102.813 298.013 103.493 297.253 104.32 296.64C105.147 296 106.093 295.52 107.16 295.2C108.253 294.853 109.4 294.68 110.6 294.68C111.907 294.68 112.973 294.92 113.8 295.4C114.653 295.853 115.293 296.48 115.72 297.28C116.173 298.053 116.48 298.933 116.64 299.92C116.827 300.907 116.92 301.907 116.92 302.92V316ZM131.301 316.4C129.621 316.4 128.101 316.12 126.741 315.56C125.381 314.973 124.221 314.187 123.261 313.2C122.301 312.187 121.554 311.04 121.021 309.76C120.514 308.453 120.261 307.08 120.261 305.64C120.261 303.64 120.701 301.813 121.581 300.16C122.487 298.507 123.767 297.187 125.421 296.2C127.101 295.187 129.074 294.68 131.341 294.68C133.634 294.68 135.594 295.187 137.221 296.2C138.847 297.187 140.087 298.507 140.941 300.16C141.821 301.787 142.261 303.547 142.261 305.44C142.261 305.76 142.247 306.093 142.221 306.44C142.194 306.76 142.167 307.027 142.141 307.24H125.941C126.047 308.307 126.354 309.24 126.861 310.04C127.394 310.84 128.061 311.453 128.861 311.88C129.687 312.28 130.567 312.48 131.501 312.48C132.567 312.48 133.567 312.227 134.501 311.72C135.461 311.187 136.114 310.493 136.461 309.64L141.061 310.92C140.554 311.987 139.821 312.933 138.861 313.76C137.927 314.587 136.821 315.24 135.541 315.72C134.261 316.173 132.847 316.4 131.301 316.4ZM125.821 303.84H136.781C136.674 302.773 136.367 301.853 135.861 301.08C135.381 300.28 134.741 299.667 133.941 299.24C133.141 298.787 132.247 298.56 131.261 298.56C130.301 298.56 129.421 298.787 128.621 299.24C127.847 299.667 127.207 300.28 126.701 301.08C126.221 301.853 125.927 302.773 125.821 303.84ZM155.286 316.4C153.579 316.4 152.046 316.12 150.686 315.56C149.326 314.973 148.166 314.173 147.206 313.16C146.246 312.12 145.499 310.947 144.966 309.64C144.459 308.333 144.206 306.96 144.206 305.52C144.206 303.547 144.646 301.747 145.526 300.12C146.433 298.467 147.713 297.147 149.366 296.16C151.019 295.173 152.979 294.68 155.246 294.68C157.513 294.68 159.459 295.173 161.086 296.16C162.713 297.147 163.926 298.44 164.726 300.04L159.486 301.64C159.033 300.867 158.433 300.28 157.686 299.88C156.939 299.453 156.113 299.24 155.206 299.24C154.193 299.24 153.259 299.507 152.406 300.04C151.579 300.547 150.926 301.28 150.446 302.24C149.966 303.173 149.726 304.267 149.726 305.52C149.726 306.747 149.966 307.84 150.446 308.8C150.953 309.733 151.619 310.48 152.446 311.04C153.273 311.573 154.193 311.84 155.206 311.84C155.846 311.84 156.446 311.733 157.006 311.52C157.593 311.307 158.113 311.013 158.566 310.64C159.019 310.267 159.353 309.84 159.566 309.36L164.806 310.96C164.326 312 163.619 312.933 162.686 313.76C161.779 314.587 160.699 315.24 159.446 315.72C158.219 316.173 156.833 316.4 155.286 316.4ZM177.629 316.4C175.949 316.4 174.429 316.12 173.069 315.56C171.709 314.973 170.549 314.187 169.589 313.2C168.629 312.187 167.882 311.04 167.349 309.76C166.842 308.453 166.589 307.08 166.589 305.64C166.589 303.64 167.029 301.813 167.909 300.16C168.815 298.507 170.095 297.187 171.749 296.2C173.429 295.187 175.402 294.68 177.669 294.68C179.962 294.68 181.922 295.187 183.549 296.2C185.175 297.187 186.415 298.507 187.269 300.16C188.149 301.787 188.589 303.547 188.589 305.44C188.589 305.76 188.575 306.093 188.549 306.44C188.522 306.76 188.495 307.027 188.469 307.24H172.269C172.375 308.307 172.682 309.24 173.189 310.04C173.722 310.84 174.389 311.453 175.189 311.88C176.015 312.28 176.895 312.48 177.829 312.48C178.895 312.48 179.895 312.227 180.829 311.72C181.789 311.187 182.442 310.493 182.789 309.64L187.389 310.92C186.882 311.987 186.149 312.933 185.189 313.76C184.255 314.587 183.149 315.24 181.869 315.72C180.589 316.173 179.175 316.4 177.629 316.4ZM172.149 303.84H183.109C183.002 302.773 182.695 301.853 182.189 301.08C181.709 300.28 181.069 299.667 180.269 299.24C179.469 298.787 178.575 298.56 177.589 298.56C176.629 298.56 175.749 298.787 174.949 299.24C174.175 299.667 173.535 300.28 173.029 301.08C172.549 301.853 172.255 302.773 172.149 303.84ZM199.574 316.4C197.787 316.4 196.081 316.107 194.454 315.52C192.827 314.933 191.427 314.067 190.254 312.92L192.174 309.44C193.427 310.453 194.654 311.2 195.854 311.68C197.081 312.16 198.254 312.4 199.374 312.4C200.414 312.4 201.241 312.213 201.854 311.84C202.494 311.467 202.814 310.907 202.814 310.16C202.814 309.653 202.641 309.267 202.294 309C201.947 308.707 201.441 308.453 200.774 308.24C200.134 308.027 199.347 307.787 198.414 307.52C196.867 307.013 195.574 306.52 194.534 306.04C193.494 305.56 192.707 304.96 192.174 304.24C191.667 303.493 191.414 302.547 191.414 301.4C191.414 300.013 191.761 298.827 192.454 297.84C193.174 296.827 194.161 296.04 195.414 295.48C196.694 294.92 198.187 294.64 199.894 294.64C201.387 294.64 202.801 294.88 204.134 295.36C205.467 295.813 206.681 296.56 207.774 297.6L205.614 301C204.547 300.173 203.534 299.573 202.574 299.2C201.614 298.8 200.641 298.6 199.654 298.6C199.094 298.6 198.561 298.667 198.054 298.8C197.574 298.933 197.174 299.16 196.854 299.48C196.561 299.773 196.414 300.2 196.414 300.76C196.414 301.267 196.547 301.667 196.814 301.96C197.107 302.227 197.534 302.467 198.094 302.68C198.681 302.893 199.387 303.133 200.214 303.4C201.894 303.88 203.307 304.373 204.454 304.88C205.627 305.387 206.507 306.013 207.094 306.76C207.681 307.48 207.974 308.48 207.974 309.76C207.974 311.84 207.214 313.467 205.694 314.64C204.174 315.813 202.134 316.4 199.574 316.4ZM211.62 316V295.04H216.98V316H211.62ZM211.62 292.12V286.8H216.98V292.12H211.62ZM220.535 305.52C220.535 303.493 220.935 301.667 221.735 300.04C222.535 298.387 223.642 297.08 225.055 296.12C226.468 295.16 228.082 294.68 229.895 294.68C231.442 294.68 232.828 295.067 234.055 295.84C235.308 296.587 236.282 297.547 236.975 298.72V286.8H242.335V310C242.335 310.56 242.428 310.96 242.615 311.2C242.802 311.44 243.122 311.587 243.575 311.64V316C242.642 316.187 241.882 316.28 241.295 316.28C240.335 316.28 239.535 316.04 238.895 315.56C238.282 315.08 237.935 314.453 237.855 313.68L237.775 312.36C237.002 313.667 235.948 314.667 234.615 315.36C233.308 316.053 231.935 316.4 230.495 316.4C229.055 316.4 227.722 316.12 226.495 315.56C225.295 315 224.242 314.227 223.335 313.24C222.455 312.253 221.762 311.107 221.255 309.8C220.775 308.467 220.535 307.04 220.535 305.52ZM236.975 308.32V303.32C236.708 302.547 236.282 301.853 235.695 301.24C235.108 300.627 234.455 300.147 233.735 299.8C233.015 299.427 232.295 299.24 231.575 299.24C230.748 299.24 230.002 299.413 229.335 299.76C228.668 300.107 228.082 300.573 227.575 301.16C227.095 301.747 226.722 302.427 226.455 303.2C226.215 303.973 226.095 304.787 226.095 305.64C226.095 306.493 226.228 307.307 226.495 308.08C226.788 308.827 227.202 309.48 227.735 310.04C228.268 310.6 228.882 311.04 229.575 311.36C230.295 311.68 231.068 311.84 231.895 311.84C232.402 311.84 232.908 311.76 233.415 311.6C233.948 311.413 234.442 311.173 234.895 310.88C235.375 310.56 235.788 310.187 236.135 309.76C236.508 309.307 236.788 308.827 236.975 308.32ZM246.156 309.8C246.156 308.44 246.53 307.253 247.276 306.24C248.05 305.2 249.116 304.4 250.476 303.84C251.836 303.28 253.396 303 255.156 303C256.036 303 256.93 303.067 257.836 303.2C258.743 303.333 259.53 303.547 260.196 303.84V302.72C260.196 301.387 259.796 300.36 258.996 299.64C258.223 298.92 257.063 298.56 255.516 298.56C254.37 298.56 253.276 298.76 252.236 299.16C251.196 299.56 250.103 300.147 248.956 300.92L247.236 297.4C248.623 296.493 250.036 295.813 251.476 295.36C252.943 294.907 254.476 294.68 256.076 294.68C259.063 294.68 261.383 295.427 263.036 296.92C264.716 298.413 265.556 300.547 265.556 303.32V310C265.556 310.56 265.65 310.96 265.836 311.2C266.05 311.44 266.383 311.587 266.836 311.64V316C266.356 316.08 265.916 316.147 265.516 316.2C265.143 316.253 264.823 316.28 264.556 316.28C263.49 316.28 262.676 316.04 262.116 315.56C261.583 315.08 261.25 314.493 261.116 313.8L260.996 312.72C260.09 313.893 258.956 314.8 257.596 315.44C256.236 316.08 254.85 316.4 253.436 316.4C252.05 316.4 250.796 316.12 249.676 315.56C248.583 314.973 247.716 314.187 247.076 313.2C246.463 312.187 246.156 311.053 246.156 309.8ZM259.196 310.88C259.49 310.56 259.73 310.24 259.916 309.92C260.103 309.6 260.196 309.307 260.196 309.04V306.92C259.556 306.653 258.863 306.453 258.116 306.32C257.37 306.16 256.663 306.08 255.996 306.08C254.61 306.08 253.463 306.387 252.556 307C251.676 307.587 251.236 308.373 251.236 309.36C251.236 309.893 251.383 310.4 251.676 310.88C251.97 311.36 252.396 311.747 252.956 312.04C253.516 312.333 254.183 312.48 254.956 312.48C255.756 312.48 256.543 312.333 257.316 312.04C258.09 311.72 258.716 311.333 259.196 310.88ZM269.285 305.52C269.285 303.493 269.685 301.667 270.485 300.04C271.285 298.387 272.392 297.08 273.805 296.12C275.218 295.16 276.832 294.68 278.645 294.68C280.192 294.68 281.578 295.067 282.805 295.84C284.058 296.587 285.032 297.547 285.725 298.72V286.8H291.085V310C291.085 310.56 291.178 310.96 291.365 311.2C291.552 311.44 291.872 311.587 292.325 311.64V316C291.392 316.187 290.632 316.28 290.045 316.28C289.085 316.28 288.285 316.04 287.645 315.56C287.032 315.08 286.685 314.453 286.605 313.68L286.525 312.36C285.752 313.667 284.698 314.667 283.365 315.36C282.058 316.053 280.685 316.4 279.245 316.4C277.805 316.4 276.472 316.12 275.245 315.56C274.045 315 272.992 314.227 272.085 313.24C271.205 312.253 270.512 311.107 270.005 309.8C269.525 308.467 269.285 307.04 269.285 305.52ZM285.725 308.32V303.32C285.458 302.547 285.032 301.853 284.445 301.24C283.858 300.627 283.205 300.147 282.485 299.8C281.765 299.427 281.045 299.24 280.325 299.24C279.498 299.24 278.752 299.413 278.085 299.76C277.418 300.107 276.832 300.573 276.325 301.16C275.845 301.747 275.472 302.427 275.205 303.2C274.965 303.973 274.845 304.787 274.845 305.64C274.845 306.493 274.978 307.307 275.245 308.08C275.538 308.827 275.952 309.48 276.485 310.04C277.018 310.6 277.632 311.04 278.325 311.36C279.045 311.68 279.818 311.84 280.645 311.84C281.152 311.84 281.658 311.76 282.165 311.6C282.698 311.413 283.192 311.173 283.645 310.88C284.125 310.56 284.538 310.187 284.885 309.76C285.258 309.307 285.538 308.827 285.725 308.32ZM306.066 316.4C304.386 316.4 302.866 316.12 301.506 315.56C300.146 314.973 298.986 314.187 298.026 313.2C297.066 312.187 296.32 311.04 295.786 309.76C295.28 308.453 295.026 307.08 295.026 305.64C295.026 303.64 295.466 301.813 296.346 300.16C297.253 298.507 298.533 297.187 300.186 296.2C301.866 295.187 303.84 294.68 306.106 294.68C308.4 294.68 310.36 295.187 311.986 296.2C313.613 297.187 314.853 298.507 315.706 300.16C316.586 301.787 317.026 303.547 317.026 305.44C317.026 305.76 317.013 306.093 316.986 306.44C316.96 306.76 316.933 307.027 316.906 307.24H300.706C300.813 308.307 301.12 309.24 301.626 310.04C302.16 310.84 302.826 311.453 303.626 311.88C304.453 312.28 305.333 312.48 306.266 312.48C307.333 312.48 308.333 312.227 309.266 311.72C310.226 311.187 310.88 310.493 311.226 309.64L315.826 310.92C315.32 311.987 314.586 312.933 313.626 313.76C312.693 314.587 311.586 315.24 310.306 315.72C309.026 316.173 307.613 316.4 306.066 316.4ZM300.586 303.84H311.546C311.44 302.773 311.133 301.853 310.626 301.08C310.146 300.28 309.506 299.667 308.706 299.24C307.906 298.787 307.013 298.56 306.026 298.56C305.066 298.56 304.186 298.787 303.386 299.24C302.613 299.667 301.973 300.28 301.466 301.08C300.986 301.853 300.693 302.773 300.586 303.84ZM328.012 316.4C326.225 316.4 324.518 316.107 322.892 315.52C321.265 314.933 319.865 314.067 318.692 312.92L320.612 309.44C321.865 310.453 323.092 311.2 324.292 311.68C325.518 312.16 326.692 312.4 327.812 312.4C328.852 312.4 329.678 312.213 330.292 311.84C330.932 311.467 331.252 310.907 331.252 310.16C331.252 309.653 331.078 309.267 330.732 309C330.385 308.707 329.878 308.453 329.212 308.24C328.572 308.027 327.785 307.787 326.852 307.52C325.305 307.013 324.012 306.52 322.972 306.04C321.932 305.56 321.145 304.96 320.612 304.24C320.105 303.493 319.852 302.547 319.852 301.4C319.852 300.013 320.198 298.827 320.892 297.84C321.612 296.827 322.598 296.04 323.852 295.48C325.132 294.92 326.625 294.64 328.332 294.64C329.825 294.64 331.238 294.88 332.572 295.36C333.905 295.813 335.118 296.56 336.212 297.6L334.052 301C332.985 300.173 331.972 299.573 331.012 299.2C330.052 298.8 329.078 298.6 328.092 298.6C327.532 298.6 326.998 298.667 326.492 298.8C326.012 298.933 325.612 299.16 325.292 299.48C324.998 299.773 324.852 300.2 324.852 300.76C324.852 301.267 324.985 301.667 325.252 301.96C325.545 302.227 325.972 302.467 326.532 302.68C327.118 302.893 327.825 303.133 328.652 303.4C330.332 303.88 331.745 304.373 332.892 304.88C334.065 305.387 334.945 306.013 335.532 306.76C336.118 307.48 336.412 308.48 336.412 309.76C336.412 311.84 335.652 313.467 334.132 314.64C332.612 315.813 330.572 316.4 328.012 316.4ZM348.387 305.52C348.387 303.493 348.787 301.667 349.587 300.04C350.387 298.387 351.493 297.08 352.907 296.12C354.32 295.16 355.933 294.68 357.747 294.68C359.293 294.68 360.68 295.067 361.907 295.84C363.16 296.587 364.133 297.547 364.827 298.72V286.8H370.187V310C370.187 310.56 370.28 310.96 370.467 311.2C370.653 311.44 370.973 311.587 371.427 311.64V316C370.493 316.187 369.733 316.28 369.147 316.28C368.187 316.28 367.387 316.04 366.747 315.56C366.133 315.08 365.787 314.453 365.707 313.68L365.627 312.36C364.853 313.667 363.8 314.667 362.467 315.36C361.16 316.053 359.787 316.4 358.347 316.4C356.907 316.4 355.573 316.12 354.347 315.56C353.147 315 352.093 314.227 351.187 313.24C350.307 312.253 349.613 311.107 349.107 309.8C348.627 308.467 348.387 307.04 348.387 305.52ZM364.827 308.32V303.32C364.56 302.547 364.133 301.853 363.547 301.24C362.96 300.627 362.307 300.147 361.587 299.8C360.867 299.427 360.147 299.24 359.427 299.24C358.6 299.24 357.853 299.413 357.187 299.76C356.52 300.107 355.933 300.573 355.427 301.16C354.947 301.747 354.573 302.427 354.307 303.2C354.067 303.973 353.947 304.787 353.947 305.64C353.947 306.493 354.08 307.307 354.347 308.08C354.64 308.827 355.053 309.48 355.587 310.04C356.12 310.6 356.733 311.04 357.427 311.36C358.147 311.68 358.92 311.84 359.747 311.84C360.253 311.84 360.76 311.76 361.267 311.6C361.8 311.413 362.293 311.173 362.747 310.88C363.227 310.56 363.64 310.187 363.987 309.76C364.36 309.307 364.64 308.827 364.827 308.32ZM385.168 316.4C383.488 316.4 381.968 316.12 380.608 315.56C379.248 314.973 378.088 314.187 377.128 313.2C376.168 312.187 375.421 311.04 374.888 309.76C374.381 308.453 374.128 307.08 374.128 305.64C374.128 303.64 374.568 301.813 375.448 300.16C376.354 298.507 377.634 297.187 379.288 296.2C380.968 295.187 382.941 294.68 385.208 294.68C387.501 294.68 389.461 295.187 391.088 296.2C392.714 297.187 393.954 298.507 394.808 300.16C395.688 301.787 396.128 303.547 396.128 305.44C396.128 305.76 396.114 306.093 396.088 306.44C396.061 306.76 396.034 307.027 396.008 307.24H379.808C379.914 308.307 380.221 309.24 380.728 310.04C381.261 310.84 381.928 311.453 382.728 311.88C383.554 312.28 384.434 312.48 385.368 312.48C386.434 312.48 387.434 312.227 388.368 311.72C389.328 311.187 389.981 310.493 390.328 309.64L394.928 310.92C394.421 311.987 393.688 312.933 392.728 313.76C391.794 314.587 390.688 315.24 389.408 315.72C388.128 316.173 386.714 316.4 385.168 316.4ZM379.688 303.84H390.648C390.541 302.773 390.234 301.853 389.728 301.08C389.248 300.28 388.608 299.667 387.808 299.24C387.008 298.787 386.114 298.56 385.128 298.56C384.168 298.56 383.288 298.787 382.488 299.24C381.714 299.667 381.074 300.28 380.568 301.08C380.088 301.853 379.794 302.773 379.688 303.84ZM421.563 314.92C421.109 315.107 420.563 315.32 419.923 315.56C419.283 315.8 418.589 315.987 417.843 316.12C417.123 316.28 416.389 316.36 415.643 316.36C414.656 316.36 413.749 316.187 412.923 315.84C412.096 315.493 411.429 314.947 410.923 314.2C410.443 313.427 410.203 312.427 410.203 311.2V299.16H407.443V295.04H410.203V288.24H415.563V295.04H419.963V299.16H415.563V309.4C415.589 310.12 415.789 310.64 416.163 310.96C416.536 311.28 417.003 311.44 417.563 311.44C418.123 311.44 418.669 311.347 419.203 311.16C419.736 310.973 420.163 310.813 420.483 310.68L421.563 314.92ZM424.154 308.16V295.04H429.514V307C429.514 308.6 429.807 309.813 430.394 310.64C430.981 311.44 431.847 311.84 432.994 311.84C433.687 311.84 434.367 311.707 435.034 311.44C435.727 311.147 436.354 310.72 436.914 310.16C437.501 309.6 437.994 308.893 438.394 308.04V295.04H443.754V310C443.754 310.56 443.847 310.96 444.034 311.2C444.247 311.44 444.581 311.587 445.034 311.64V316C444.501 316.08 444.047 316.133 443.674 316.16C443.327 316.213 443.007 316.24 442.714 316.24C441.754 316.24 440.967 316.027 440.354 315.6C439.767 315.147 439.421 314.533 439.314 313.76L439.194 312.08C438.261 313.493 437.061 314.573 435.594 315.32C434.127 316.04 432.514 316.4 430.754 316.4C428.594 316.4 426.954 315.707 425.834 314.32C424.714 312.907 424.154 310.853 424.154 308.16ZM491.25 316H485.89V304.24C485.89 302.587 485.597 301.373 485.01 300.6C484.45 299.8 483.663 299.4 482.65 299.4C481.61 299.4 480.61 299.813 479.65 300.64C478.717 301.44 478.05 302.493 477.65 303.8V316H472.29V304.24C472.29 302.56 471.997 301.333 471.41 300.56C470.85 299.787 470.063 299.4 469.05 299.4C468.01 299.4 467.01 299.8 466.05 300.6C465.117 301.4 464.45 302.453 464.05 303.76V316H458.69V295.04H463.53V298.92C464.33 297.56 465.397 296.52 466.73 295.8C468.063 295.053 469.597 294.68 471.33 294.68C473.063 294.68 474.41 295.107 475.37 295.96C476.357 296.813 476.983 297.867 477.25 299.12C478.103 297.68 479.183 296.587 480.49 295.84C481.823 295.067 483.317 294.68 484.97 294.68C486.277 294.68 487.33 294.92 488.13 295.4C488.957 295.853 489.597 296.48 490.05 297.28C490.503 298.053 490.81 298.933 490.97 299.92C491.157 300.907 491.25 301.907 491.25 302.92V316ZM494.477 309.8C494.477 308.44 494.85 307.253 495.597 306.24C496.37 305.2 497.437 304.4 498.797 303.84C500.157 303.28 501.717 303 503.477 303C504.357 303 505.25 303.067 506.157 303.2C507.063 303.333 507.85 303.547 508.517 303.84V302.72C508.517 301.387 508.117 300.36 507.317 299.64C506.543 298.92 505.383 298.56 503.837 298.56C502.69 298.56 501.597 298.76 500.557 299.16C499.517 299.56 498.423 300.147 497.277 300.92L495.557 297.4C496.943 296.493 498.357 295.813 499.797 295.36C501.263 294.907 502.797 294.68 504.397 294.68C507.383 294.68 509.703 295.427 511.357 296.92C513.037 298.413 513.877 300.547 513.877 303.32V310C513.877 310.56 513.97 310.96 514.157 311.2C514.37 311.44 514.703 311.587 515.157 311.64V316C514.677 316.08 514.237 316.147 513.837 316.2C513.463 316.253 513.143 316.28 512.877 316.28C511.81 316.28 510.997 316.04 510.437 315.56C509.903 315.08 509.57 314.493 509.437 313.8L509.317 312.72C508.41 313.893 507.277 314.8 505.917 315.44C504.557 316.08 503.17 316.4 501.757 316.4C500.37 316.4 499.117 316.12 497.997 315.56C496.903 314.973 496.037 314.187 495.397 313.2C494.783 312.187 494.477 311.053 494.477 309.8ZM507.517 310.88C507.81 310.56 508.05 310.24 508.237 309.92C508.423 309.6 508.517 309.307 508.517 309.04V306.92C507.877 306.653 507.183 306.453 506.437 306.32C505.69 306.16 504.983 306.08 504.317 306.08C502.93 306.08 501.783 306.387 500.877 307C499.997 307.587 499.557 308.373 499.557 309.36C499.557 309.893 499.703 310.4 499.997 310.88C500.29 311.36 500.717 311.747 501.277 312.04C501.837 312.333 502.503 312.48 503.277 312.48C504.077 312.48 504.863 312.333 505.637 312.04C506.41 311.72 507.037 311.333 507.517 310.88ZM526.605 316.4C524.819 316.4 523.112 316.107 521.485 315.52C519.859 314.933 518.459 314.067 517.285 312.92L519.205 309.44C520.459 310.453 521.685 311.2 522.885 311.68C524.112 312.16 525.285 312.4 526.405 312.4C527.445 312.4 528.272 312.213 528.885 311.84C529.525 311.467 529.845 310.907 529.845 310.16C529.845 309.653 529.672 309.267 529.325 309C528.979 308.707 528.472 308.453 527.805 308.24C527.165 308.027 526.379 307.787 525.445 307.52C523.899 307.013 522.605 306.52 521.565 306.04C520.525 305.56 519.739 304.96 519.205 304.24C518.699 303.493 518.445 302.547 518.445 301.4C518.445 300.013 518.792 298.827 519.485 297.84C520.205 296.827 521.192 296.04 522.445 295.48C523.725 294.92 525.219 294.64 526.925 294.64C528.419 294.64 529.832 294.88 531.165 295.36C532.499 295.813 533.712 296.56 534.805 297.6L532.645 301C531.579 300.173 530.565 299.573 529.605 299.2C528.645 298.8 527.672 298.6 526.685 298.6C526.125 298.6 525.592 298.667 525.085 298.8C524.605 298.933 524.205 299.16 523.885 299.48C523.592 299.773 523.445 300.2 523.445 300.76C523.445 301.267 523.579 301.667 523.845 301.96C524.139 302.227 524.565 302.467 525.125 302.68C525.712 302.893 526.419 303.133 527.245 303.4C528.925 303.88 530.339 304.373 531.485 304.88C532.659 305.387 533.539 306.013 534.125 306.76C534.712 307.48 535.005 308.48 535.005 309.76C535.005 311.84 534.245 313.467 532.725 314.64C531.205 315.813 529.165 316.4 526.605 316.4ZM548.411 316.4C546.704 316.4 545.171 316.12 543.811 315.56C542.451 314.973 541.291 314.173 540.331 313.16C539.371 312.12 538.624 310.947 538.091 309.64C537.584 308.333 537.331 306.96 537.331 305.52C537.331 303.547 537.771 301.747 538.651 300.12C539.558 298.467 540.838 297.147 542.491 296.16C544.144 295.173 546.104 294.68 548.371 294.68C550.638 294.68 552.584 295.173 554.211 296.16C555.838 297.147 557.051 298.44 557.851 300.04L552.611 301.64C552.158 300.867 551.558 300.28 550.811 299.88C550.064 299.453 549.238 299.24 548.331 299.24C547.318 299.24 546.384 299.507 545.531 300.04C544.704 300.547 544.051 301.28 543.571 302.24C543.091 303.173 542.851 304.267 542.851 305.52C542.851 306.747 543.091 307.84 543.571 308.8C544.078 309.733 544.744 310.48 545.571 311.04C546.398 311.573 547.318 311.84 548.331 311.84C548.971 311.84 549.571 311.733 550.131 311.52C550.718 311.307 551.238 311.013 551.691 310.64C552.144 310.267 552.478 309.84 552.691 309.36L557.931 310.96C557.451 312 556.744 312.933 555.811 313.76C554.904 314.587 553.824 315.24 552.571 315.72C551.344 316.173 549.958 316.4 548.411 316.4ZM570.714 316.4C569.007 316.4 567.474 316.12 566.114 315.56C564.754 314.973 563.594 314.173 562.634 313.16C561.7 312.147 560.98 310.987 560.474 309.68C559.967 308.373 559.714 307 559.714 305.56C559.714 304.093 559.967 302.707 560.474 301.4C560.98 300.093 561.7 298.933 562.634 297.92C563.594 296.907 564.754 296.12 566.114 295.56C567.474 294.973 569.007 294.68 570.714 294.68C572.42 294.68 573.94 294.973 575.274 295.56C576.634 296.12 577.794 296.907 578.754 297.92C579.714 298.933 580.434 300.093 580.914 301.4C581.42 302.707 581.674 304.093 581.674 305.56C581.674 307 581.42 308.373 580.914 309.68C580.434 310.987 579.714 312.147 578.754 313.16C577.82 314.173 576.674 314.973 575.314 315.56C573.954 316.12 572.42 316.4 570.714 316.4ZM565.234 305.56C565.234 306.787 565.474 307.88 565.954 308.84C566.434 309.773 567.087 310.507 567.914 311.04C568.74 311.573 569.674 311.84 570.714 311.84C571.727 311.84 572.647 311.573 573.474 311.04C574.3 310.48 574.954 309.733 575.434 308.8C575.94 307.84 576.194 306.747 576.194 305.52C576.194 304.32 575.94 303.24 575.434 302.28C574.954 301.32 574.3 300.573 573.474 300.04C572.647 299.507 571.727 299.24 570.714 299.24C569.674 299.24 568.74 299.52 567.914 300.08C567.087 300.613 566.434 301.36 565.954 302.32C565.474 303.253 565.234 304.333 565.234 305.56ZM597.539 314.92C597.086 315.107 596.539 315.32 595.899 315.56C595.259 315.8 594.566 315.987 593.819 316.12C593.099 316.28 592.366 316.36 591.619 316.36C590.632 316.36 589.726 316.187 588.899 315.84C588.072 315.493 587.406 314.947 586.899 314.2C586.419 313.427 586.179 312.427 586.179 311.2V299.16H583.419V295.04H586.179V288.24H591.539V295.04H595.939V299.16H591.539V309.4C591.566 310.12 591.766 310.64 592.139 310.96C592.512 311.28 592.979 311.44 593.539 311.44C594.099 311.44 594.646 311.347 595.179 311.16C595.712 310.973 596.139 310.813 596.459 310.68L597.539 314.92ZM598.891 309.8C598.891 308.44 599.264 307.253 600.011 306.24C600.784 305.2 601.851 304.4 603.211 303.84C604.571 303.28 606.131 303 607.891 303C608.771 303 609.664 303.067 610.571 303.2C611.477 303.333 612.264 303.547 612.931 303.84V302.72C612.931 301.387 612.531 300.36 611.731 299.64C610.957 298.92 609.797 298.56 608.251 298.56C607.104 298.56 606.011 298.76 604.971 299.16C603.931 299.56 602.837 300.147 601.691 300.92L599.971 297.4C601.357 296.493 602.771 295.813 604.211 295.36C605.677 294.907 607.211 294.68 608.811 294.68C611.797 294.68 614.117 295.427 615.771 296.92C617.451 298.413 618.291 300.547 618.291 303.32V310C618.291 310.56 618.384 310.96 618.571 311.2C618.784 311.44 619.117 311.587 619.571 311.64V316C619.091 316.08 618.651 316.147 618.251 316.2C617.877 316.253 617.557 316.28 617.291 316.28C616.224 316.28 615.411 316.04 614.851 315.56C614.317 315.08 613.984 314.493 613.851 313.8L613.731 312.72C612.824 313.893 611.691 314.8 610.331 315.44C608.971 316.08 607.584 316.4 606.171 316.4C604.784 316.4 603.531 316.12 602.411 315.56C601.317 314.973 600.451 314.187 599.811 313.2C599.197 312.187 598.891 311.053 598.891 309.8ZM611.931 310.88C612.224 310.56 612.464 310.24 612.651 309.92C612.837 309.6 612.931 309.307 612.931 309.04V306.92C612.291 306.653 611.597 306.453 610.851 306.32C610.104 306.16 609.397 306.08 608.731 306.08C607.344 306.08 606.197 306.387 605.291 307C604.411 307.587 603.971 308.373 603.971 309.36C603.971 309.893 604.117 310.4 604.411 310.88C604.704 311.36 605.131 311.747 605.691 312.04C606.251 312.333 606.917 312.48 607.691 312.48C608.491 312.48 609.277 312.333 610.051 312.04C610.824 311.72 611.451 311.333 611.931 310.88Z" fill="white"/>
<rect x="95" y="360" width="278" height="57" rx="4" fill="white"/>
<path d="M171.085 394V379.8H172.485V394H171.085ZM184.526 394H183.166V388.18C183.166 386.953 182.986 386.06 182.626 385.5C182.266 384.927 181.699 384.64 180.926 384.64C180.392 384.64 179.866 384.773 179.346 385.04C178.826 385.293 178.366 385.647 177.966 386.1C177.579 386.54 177.299 387.047 177.126 387.62V394H175.766V383.58H177.006V385.94C177.286 385.433 177.652 384.993 178.106 384.62C178.559 384.233 179.072 383.933 179.646 383.72C180.219 383.507 180.812 383.4 181.426 383.4C181.999 383.4 182.486 383.507 182.886 383.72C183.286 383.933 183.606 384.24 183.846 384.64C184.086 385.027 184.259 385.5 184.366 386.06C184.472 386.607 184.526 387.22 184.526 387.9V394ZM191.606 394.14C190.899 394.14 190.246 393.993 189.646 393.7C189.046 393.407 188.526 393.013 188.086 392.52C187.659 392.013 187.326 391.44 187.086 390.8C186.846 390.16 186.726 389.5 186.726 388.82C186.726 388.087 186.839 387.4 187.066 386.76C187.306 386.107 187.639 385.527 188.066 385.02C188.506 384.513 189.019 384.12 189.606 383.84C190.192 383.547 190.846 383.4 191.566 383.4C192.459 383.4 193.232 383.627 193.886 384.08C194.552 384.533 195.112 385.093 195.566 385.76V383.58H196.786V394.04C196.786 395 196.552 395.807 196.086 396.46C195.632 397.127 195.012 397.627 194.226 397.96C193.452 398.293 192.606 398.46 191.686 398.46C190.499 398.46 189.539 398.247 188.806 397.82C188.072 397.393 187.472 396.82 187.006 396.1L187.846 395.44C188.259 396.093 188.806 396.58 189.486 396.9C190.179 397.22 190.912 397.38 191.686 397.38C192.366 397.38 192.986 397.253 193.546 397C194.119 396.76 194.572 396.393 194.906 395.9C195.252 395.407 195.426 394.787 195.426 394.04V391.98C195.026 392.633 194.479 393.16 193.786 393.56C193.092 393.947 192.366 394.14 191.606 394.14ZM191.986 393C192.399 393 192.792 392.927 193.166 392.78C193.552 392.633 193.906 392.44 194.226 392.2C194.546 391.947 194.812 391.667 195.026 391.36C195.239 391.053 195.372 390.74 195.426 390.42V387.2C195.226 386.693 194.939 386.247 194.566 385.86C194.192 385.46 193.766 385.153 193.286 384.94C192.819 384.713 192.332 384.6 191.826 384.6C191.239 384.6 190.712 384.727 190.246 384.98C189.792 385.22 189.406 385.547 189.086 385.96C188.779 386.36 188.539 386.813 188.366 387.32C188.192 387.827 188.106 388.333 188.106 388.84C188.106 389.4 188.206 389.933 188.406 390.44C188.606 390.933 188.879 391.38 189.226 391.78C189.586 392.167 189.999 392.467 190.466 392.68C190.946 392.893 191.452 393 191.986 393ZM204.989 384.78C204.082 384.807 203.282 385.06 202.589 385.54C201.909 386.02 201.429 386.68 201.149 387.52V394H199.789V383.58H201.069V386.08C201.429 385.347 201.902 384.753 202.489 384.3C203.089 383.847 203.722 383.593 204.389 383.54C204.522 383.527 204.636 383.52 204.729 383.52C204.836 383.52 204.922 383.527 204.989 383.54V384.78ZM210.969 394.2C210.222 394.2 209.529 394.06 208.889 393.78C208.249 393.487 207.695 393.093 207.229 392.6C206.762 392.093 206.395 391.513 206.129 390.86C205.875 390.207 205.749 389.507 205.749 388.76C205.749 387.787 205.969 386.893 206.409 386.08C206.862 385.267 207.482 384.62 208.269 384.14C209.055 383.647 209.949 383.4 210.949 383.4C211.975 383.4 212.869 383.647 213.629 384.14C214.402 384.633 215.009 385.287 215.449 386.1C215.889 386.9 216.109 387.78 216.109 388.74C216.109 388.847 216.109 388.953 216.109 389.06C216.109 389.153 216.102 389.227 216.089 389.28H207.169C207.235 390.027 207.442 390.693 207.789 391.28C208.149 391.853 208.609 392.313 209.169 392.66C209.742 392.993 210.362 393.16 211.029 393.16C211.709 393.16 212.349 392.987 212.949 392.64C213.562 392.293 213.989 391.84 214.229 391.28L215.409 391.6C215.195 392.093 214.869 392.54 214.429 392.94C213.989 393.34 213.469 393.653 212.869 393.88C212.282 394.093 211.649 394.2 210.969 394.2ZM207.129 388.3H214.829C214.775 387.54 214.569 386.873 214.209 386.3C213.862 385.727 213.402 385.28 212.829 384.96C212.269 384.627 211.649 384.46 210.969 384.46C210.289 384.46 209.669 384.627 209.109 384.96C208.549 385.28 208.089 385.733 207.729 386.32C207.382 386.893 207.182 387.553 207.129 388.3ZM221.627 394.2C220.774 394.2 219.98 394.06 219.247 393.78C218.514 393.5 217.88 393.073 217.347 392.5L217.907 391.54C218.494 392.087 219.08 392.487 219.667 392.74C220.267 392.98 220.9 393.1 221.567 393.1C222.38 393.1 223.04 392.94 223.547 392.62C224.054 392.287 224.307 391.813 224.307 391.2C224.307 390.787 224.18 390.473 223.927 390.26C223.687 390.033 223.334 389.853 222.867 389.72C222.414 389.573 221.867 389.42 221.227 389.26C220.507 389.06 219.9 388.853 219.407 388.64C218.927 388.413 218.56 388.133 218.307 387.8C218.067 387.453 217.947 387.007 217.947 386.46C217.947 385.78 218.114 385.22 218.447 384.78C218.794 384.327 219.26 383.987 219.847 383.76C220.447 383.52 221.114 383.4 221.847 383.4C222.647 383.4 223.354 383.527 223.967 383.78C224.58 384.033 225.08 384.387 225.467 384.84L224.807 385.76C224.434 385.333 223.987 385.02 223.467 384.82C222.96 384.607 222.394 384.5 221.767 384.5C221.34 384.5 220.934 384.56 220.547 384.68C220.16 384.787 219.84 384.973 219.587 385.24C219.347 385.493 219.227 385.847 219.227 386.3C219.227 386.673 219.32 386.967 219.507 387.18C219.694 387.38 219.974 387.553 220.347 387.7C220.72 387.833 221.18 387.98 221.727 388.14C222.514 388.353 223.2 388.573 223.787 388.8C224.374 389.013 224.827 389.293 225.147 389.64C225.467 389.987 225.627 390.473 225.627 391.1C225.627 392.073 225.26 392.833 224.527 393.38C223.794 393.927 222.827 394.2 221.627 394.2ZM227.035 391C227.035 390.347 227.222 389.787 227.595 389.32C227.968 388.84 228.482 388.473 229.135 388.22C229.802 387.953 230.568 387.82 231.435 387.82C231.942 387.82 232.468 387.86 233.015 387.94C233.562 388.02 234.048 388.14 234.475 388.3V387.42C234.475 386.54 234.215 385.84 233.695 385.32C233.175 384.8 232.455 384.54 231.535 384.54C230.975 384.54 230.422 384.647 229.875 384.86C229.342 385.06 228.782 385.36 228.195 385.76L227.675 384.8C228.355 384.333 229.022 383.987 229.675 383.76C230.328 383.52 230.995 383.4 231.675 383.4C232.955 383.4 233.968 383.767 234.715 384.5C235.462 385.233 235.835 386.247 235.835 387.54V392.36C235.835 392.547 235.875 392.687 235.955 392.78C236.035 392.86 236.162 392.907 236.335 392.92V394C236.188 394.013 236.062 394.027 235.955 394.04C235.848 394.053 235.768 394.053 235.715 394.04C235.382 394.027 235.128 393.92 234.955 393.72C234.782 393.52 234.688 393.307 234.675 393.08L234.655 392.32C234.188 392.92 233.582 393.387 232.835 393.72C232.088 394.04 231.328 394.2 230.555 394.2C229.888 394.2 229.282 394.06 228.735 393.78C228.202 393.487 227.782 393.1 227.475 392.62C227.182 392.127 227.035 391.587 227.035 391ZM234.015 391.8C234.162 391.613 234.275 391.433 234.355 391.26C234.435 391.087 234.475 390.933 234.475 390.8V389.28C234.022 389.107 233.548 388.973 233.055 388.88C232.575 388.787 232.088 388.74 231.595 388.74C230.622 388.74 229.835 388.933 229.235 389.32C228.635 389.707 228.335 390.233 228.335 390.9C228.335 391.287 228.435 391.653 228.635 392C228.835 392.333 229.128 392.613 229.515 392.84C229.902 393.053 230.355 393.16 230.875 393.16C231.528 393.16 232.135 393.033 232.695 392.78C233.268 392.527 233.708 392.2 234.015 391.8ZM243.031 391C243.031 390.347 243.218 389.787 243.591 389.32C243.964 388.84 244.478 388.473 245.131 388.22C245.798 387.953 246.564 387.82 247.431 387.82C247.938 387.82 248.464 387.86 249.011 387.94C249.558 388.02 250.044 388.14 250.471 388.3V387.42C250.471 386.54 250.211 385.84 249.691 385.32C249.171 384.8 248.451 384.54 247.531 384.54C246.971 384.54 246.418 384.647 245.871 384.86C245.338 385.06 244.778 385.36 244.191 385.76L243.671 384.8C244.351 384.333 245.018 383.987 245.671 383.76C246.324 383.52 246.991 383.4 247.671 383.4C248.951 383.4 249.964 383.767 250.711 384.5C251.458 385.233 251.831 386.247 251.831 387.54V392.36C251.831 392.547 251.871 392.687 251.951 392.78C252.031 392.86 252.158 392.907 252.331 392.92V394C252.184 394.013 252.058 394.027 251.951 394.04C251.844 394.053 251.764 394.053 251.711 394.04C251.378 394.027 251.124 393.92 250.951 393.72C250.778 393.52 250.684 393.307 250.671 393.08L250.651 392.32C250.184 392.92 249.578 393.387 248.831 393.72C248.084 394.04 247.324 394.2 246.551 394.2C245.884 394.2 245.278 394.06 244.731 393.78C244.198 393.487 243.778 393.1 243.471 392.62C243.178 392.127 243.031 391.587 243.031 391ZM250.011 391.8C250.158 391.613 250.271 391.433 250.351 391.26C250.431 391.087 250.471 390.933 250.471 390.8V389.28C250.018 389.107 249.544 388.973 249.051 388.88C248.571 388.787 248.084 388.74 247.591 388.74C246.618 388.74 245.831 388.933 245.231 389.32C244.631 389.707 244.331 390.233 244.331 390.9C244.331 391.287 244.431 391.653 244.631 392C244.831 392.333 245.124 392.613 245.511 392.84C245.898 393.053 246.351 393.16 246.871 393.16C247.524 393.16 248.131 393.033 248.691 392.78C249.264 392.527 249.704 392.2 250.011 391.8ZM263.53 394H262.17V388.18C262.17 387.007 261.963 386.127 261.55 385.54C261.136 384.94 260.543 384.64 259.77 384.64C259.263 384.64 258.756 384.773 258.25 385.04C257.756 385.293 257.316 385.647 256.93 386.1C256.556 386.54 256.29 387.047 256.13 387.62V394H254.77V379.4H256.13V385.94C256.543 385.167 257.116 384.553 257.85 384.1C258.596 383.633 259.39 383.4 260.23 383.4C260.83 383.4 261.336 383.507 261.75 383.72C262.176 383.933 262.516 384.247 262.77 384.66C263.036 385.06 263.23 385.533 263.35 386.08C263.47 386.613 263.53 387.22 263.53 387.9V394ZM270.87 394.2C270.123 394.2 269.43 394.06 268.79 393.78C268.163 393.487 267.616 393.093 267.15 392.6C266.696 392.093 266.343 391.52 266.09 390.88C265.836 390.227 265.71 389.54 265.71 388.82C265.71 388.073 265.836 387.38 266.09 386.74C266.343 386.087 266.703 385.513 267.17 385.02C267.636 384.513 268.183 384.12 268.81 383.84C269.45 383.547 270.143 383.4 270.89 383.4C271.636 383.4 272.323 383.547 272.95 383.84C273.576 384.12 274.123 384.513 274.59 385.02C275.056 385.513 275.416 386.087 275.67 386.74C275.923 387.38 276.05 388.073 276.05 388.82C276.05 389.54 275.923 390.227 275.67 390.88C275.416 391.52 275.056 392.093 274.59 392.6C274.136 393.093 273.59 393.487 272.95 393.78C272.323 394.06 271.63 394.2 270.87 394.2ZM267.09 388.84C267.09 389.613 267.256 390.32 267.59 390.96C267.936 391.587 268.396 392.087 268.97 392.46C269.543 392.82 270.176 393 270.87 393C271.563 393 272.196 392.813 272.77 392.44C273.343 392.067 273.803 391.56 274.15 390.92C274.496 390.267 274.67 389.56 274.67 388.8C274.67 388.027 274.496 387.32 274.15 386.68C273.803 386.04 273.343 385.533 272.77 385.16C272.196 384.787 271.563 384.6 270.87 384.6C270.176 384.6 269.543 384.793 268.97 385.18C268.41 385.567 267.956 386.08 267.61 386.72C267.263 387.347 267.09 388.053 267.09 388.84ZM283.524 384.78C282.618 384.807 281.818 385.06 281.124 385.54C280.444 386.02 279.964 386.68 279.684 387.52V394H278.324V383.58H279.604V386.08C279.964 385.347 280.438 384.753 281.024 384.3C281.624 383.847 282.258 383.593 282.924 383.54C283.058 383.527 283.171 383.52 283.264 383.52C283.371 383.52 283.458 383.527 283.524 383.54V384.78ZM284.457 391C284.457 390.347 284.644 389.787 285.017 389.32C285.39 388.84 285.904 388.473 286.557 388.22C287.224 387.953 287.99 387.82 288.857 387.82C289.364 387.82 289.89 387.86 290.437 387.94C290.984 388.02 291.47 388.14 291.897 388.3V387.42C291.897 386.54 291.637 385.84 291.117 385.32C290.597 384.8 289.877 384.54 288.957 384.54C288.397 384.54 287.844 384.647 287.297 384.86C286.764 385.06 286.204 385.36 285.617 385.76L285.097 384.8C285.777 384.333 286.444 383.987 287.097 383.76C287.75 383.52 288.417 383.4 289.097 383.4C290.377 383.4 291.39 383.767 292.137 384.5C292.884 385.233 293.257 386.247 293.257 387.54V392.36C293.257 392.547 293.297 392.687 293.377 392.78C293.457 392.86 293.584 392.907 293.757 392.92V394C293.61 394.013 293.484 394.027 293.377 394.04C293.27 394.053 293.19 394.053 293.137 394.04C292.804 394.027 292.55 393.92 292.377 393.72C292.204 393.52 292.11 393.307 292.097 393.08L292.077 392.32C291.61 392.92 291.004 393.387 290.257 393.72C289.51 394.04 288.75 394.2 287.977 394.2C287.31 394.2 286.704 394.06 286.157 393.78C285.624 393.487 285.204 393.1 284.897 392.62C284.604 392.127 284.457 391.587 284.457 391ZM291.437 391.8C291.584 391.613 291.697 391.433 291.777 391.26C291.857 391.087 291.897 390.933 291.897 390.8V389.28C291.444 389.107 290.97 388.973 290.477 388.88C289.997 388.787 289.51 388.74 289.017 388.74C288.044 388.74 287.257 388.933 286.657 389.32C286.057 389.707 285.757 390.233 285.757 390.9C285.757 391.287 285.857 391.653 286.057 392C286.257 392.333 286.55 392.613 286.937 392.84C287.324 393.053 287.777 393.16 288.297 393.16C288.95 393.16 289.557 393.033 290.117 392.78C290.69 392.527 291.13 392.2 291.437 391.8Z" fill="#EE9CA7"/>
<defs>
<linearGradient id="paint0_linear_66_128" x1="-1.09126e-05" y1="228.5" x2="1366" y2="228.5" gradientUnits="userSpaceOnUse">
<stop stop-color="#EE9CA7"/>
<stop offset="1" stop-color="#FFDDE1"/>
</linearGradient>
<linearGradient id="paint1_linear_66_128" x1="1242.98" y1="492.426" x2="1224.95" y2="474.882" gradientUnits="userSpaceOnUse">
<stop stop-opacity="0"/>
<stop offset="0.99"/>
</linearGradient>
<linearGradient id="paint2_linear_66_128" x1="7973.21" y1="10788.1" x2="8348.14" y2="10534.1" gradientUnits="userSpaceOnUse">
<stop stop-opacity="0"/>
<stop offset="0.99"/>
</linearGradient>
<linearGradient id="paint3_linear_66_128" x1="963.367" y1="430.474" x2="1017.54" y2="430.474" gradientUnits="userSpaceOnUse">
<stop stop-color="#E5C5D5"/>
<stop offset="0.42" stop-color="#EAD4D1"/>
<stop offset="1" stop-color="#F0E9CB"/>
</linearGradient>
<linearGradient id="paint4_linear_66_128" x1="7814.85" y1="34483.3" x2="9053.62" y2="34483.3" gradientUnits="userSpaceOnUse">
<stop stop-color="#E5C5D5"/>
<stop offset="0.42" stop-color="#EAD4D1"/>
<stop offset="1" stop-color="#F0E9CB"/>
</linearGradient>
<linearGradient id="paint5_linear_66_128" x1="12973.9" y1="12602.8" x2="16408.3" y2="12602.8" gradientUnits="userSpaceOnUse">
<stop stop-color="#E5C5D5"/>
<stop offset="0.42" stop-color="#EAD4D1"/>
<stop offset="1" stop-color="#F0E9CB"/>
</linearGradient>
<linearGradient id="paint6_linear_66_128" x1="6955.06" y1="4446.15" x2="8070.27" y2="4446.15" gradientUnits="userSpaceOnUse">
<stop stop-color="#E5C5D5"/>
<stop offset="0.42" stop-color="#EAD4D1"/>
<stop offset="1" stop-color="#F0E9CB"/>
</linearGradient>
<linearGradient id="paint7_linear_66_128" x1="5726.89" y1="13576.1" x2="11584.7" y2="15502.6" gradientUnits="userSpaceOnUse">
<stop stop-opacity="0"/>
<stop offset="0.99"/>
</linearGradient>
<linearGradient id="paint8_linear_66_128" x1="8979.89" y1="20869.6" x2="12765.2" y2="20869.6" gradientUnits="userSpaceOnUse">
<stop stop-color="#E5C5D5"/>
<stop offset="0.42" stop-color="#EAD4D1"/>
<stop offset="1" stop-color="#F0E9CB"/>
</linearGradient>
<linearGradient id="paint9_linear_66_128" x1="15214.3" y1="8904.59" x2="16718.6" y2="8904.59" gradientUnits="userSpaceOnUse">
<stop stop-opacity="0"/>
<stop offset="0.99"/>
</linearGradient>
<linearGradient id="paint10_linear_66_128" x1="4147.49" y1="2102.61" x2="4099.7" y2="2166.9" gradientUnits="userSpaceOnUse">
<stop stop-opacity="0"/>
<stop offset="0.99"/>
</linearGradient>
<linearGradient id="paint11_linear_66_128" x1="3987.11" y1="3666.54" x2="3900.76" y2="3699.62" gradientUnits="userSpaceOnUse">
<stop stop-opacity="0"/>
<stop offset="0.99"/>
</linearGradient>
<linearGradient id="paint12_linear_66_128" x1="3817.47" y1="4207.66" x2="3685" y2="4347.76" gradientUnits="userSpaceOnUse">
<stop stop-opacity="0"/>
<stop offset="0.99"/>
</linearGradient>
<linearGradient id="paint13_linear_66_128" x1="1822.01" y1="1013.11" x2="1817.74" y2="1019.8" gradientUnits="userSpaceOnUse">
<stop stop-opacity="0"/>
<stop offset="0.99"/>
</linearGradient>
<linearGradient id="paint14_linear_66_128" x1="1097.18" y1="795.936" x2="1097.34" y2="795.936" gradientUnits="userSpaceOnUse">
<stop stop-opacity="0"/>
<stop offset="0.99"/>
</linearGradient>
<linearGradient id="paint15_linear_66_128" x1="7529.72" y1="16528.7" x2="5081.58" y2="16848.7" gradientUnits="userSpaceOnUse">
<stop stop-opacity="0"/>
<stop offset="0.99"/>
</linearGradient>
</defs>
</svg>
