<svg width="1367" height="673" viewBox="0 0 1367 673" fill="none" xmlns="http://www.w3.org/2000/svg">
<rect width="1366" height="673" fill="url(#paint0_linear_66_128)"/>
<path d="M763.84 0H1366.22V283.389C1344.5 353.844 1275.58 434.216 1240.44 398.727C1200.68 358.573 1300.06 241.594 1240.44 224.415C1179.44 206.837 1145.49 377.663 1087.75 353.844C1032.29 330.969 1185.46 196.941 1134.39 168.05C1084.63 139.908 1031.03 317.684 987.445 283.389C940.352 246.33 1078.59 83.316 1016.83 65.7587C968.128 51.9117 961.032 219.56 913.336 203.539C857.221 184.689 929.44 98.555 883.948 65.7587C834.268 29.9434 859.385 165.294 809.2 129.952C752.649 90.1267 763.84 0 763.84 0Z" fill="white"/>
<path opacity="0.18" d="M901.698 520.056C902.542 527.101 909.548 529.881 915.278 531.043C974.816 543.121 1035.56 541.659 1095.89 540.078C1119.68 539.443 1143.52 538.724 1167.13 535.129C1182.95 532.733 1215.12 530.528 1226.82 516.234C1218.5 510.087 1202.62 513.466 1193.03 513.394C1169.36 513.226 1145.68 513.106 1122 513.25C1075.32 513.53 1028.64 514.544 981.959 516.294C955.206 517.308 928.452 518.562 901.698 520.056Z" fill="#FC68EE"/>
<path d="M1052.51 529.258C1051.72 529.922 1050.79 530.281 1049.83 530.288C1042.89 531.34 1035.92 531.932 1028.93 532.062C1027.97 532.135 1027.01 531.968 1026.1 531.57C1025.63 531.409 1025.22 531.066 1024.92 530.592C1024.62 530.119 1024.46 529.54 1024.45 528.943C1024.44 528.346 1024.59 527.763 1024.88 527.279C1025.17 526.796 1025.58 526.44 1026.04 526.262C1026.94 525.837 1027.89 525.626 1028.85 525.639C1036.37 525.232 1044.19 524.885 1051.69 525.867C1052.02 525.87 1052.33 526 1052.59 526.239C1052.85 526.478 1053.04 526.812 1053.13 527.193C1053.22 527.573 1053.21 527.98 1053.1 528.352C1052.99 528.724 1052.78 529.041 1052.51 529.258V529.258Z" fill="#FC68EE"/>
<path d="M936.717 527.125C937.392 528.212 938.199 529.165 939.111 529.953C940.599 530.92 942.253 531.445 943.939 531.487C947.209 531.886 950.496 532.198 953.799 532.421C954.405 532.549 955.027 532.423 955.566 532.062C955.924 531.629 956.133 531.043 956.147 530.427C956.162 529.812 955.982 529.213 955.644 528.755C954.917 527.885 954.023 527.251 953.044 526.91C947.667 524.344 942.784 520.448 938.699 515.467C937.11 513.514 931.674 506.013 930.055 512.34C928.809 517.156 934.431 523.842 936.717 527.125Z" fill="#FC68EE"/>
<path d="M1199.43 498.68C1200.55 499.835 1201.48 501.248 1202.17 502.838C1202.75 504.725 1202.96 506.753 1202.78 508.757C1202.63 511.854 1202.31 514.933 1201.79 517.971C1201.65 518.906 1201.28 520.056 1200.5 520.104C1200.27 520.086 1200.05 520.012 1199.85 519.886C1199.65 519.761 1199.47 519.586 1199.33 519.373C1198.57 518.452 1197.97 517.355 1197.56 516.148C1197.15 514.941 1196.94 513.646 1196.95 512.34C1197.06 511.341 1197 510.327 1196.78 509.356C1196.22 508.144 1195.3 507.237 1194.21 506.816L1186.85 502.682C1184.82 501.544 1182.61 500.166 1181.86 497.614C1180.68 493.636 1184.61 486.83 1188.17 486.83C1191.72 486.83 1196.97 495.781 1199.43 498.68Z" fill="#3E3E54"/>
<path d="M1107.39 505.678C1106.32 507.05 1105.14 508.29 1103.86 509.38C1102.58 510.479 1101.59 512 1100.99 513.765C1100.71 514.654 1100.68 515.63 1100.89 516.544C1101.11 517.458 1101.56 518.262 1102.18 518.834C1104.1 520.272 1106.49 518.426 1108.21 516.665L1119.48 505.174C1120.65 504.17 1121.59 502.822 1122.22 501.256C1122.93 499.016 1122.3 496.463 1121.47 494.319C1120.85 492.468 1119.92 490.792 1118.75 489.394C1110.77 480.587 1110.4 501.304 1107.39 505.678Z" fill="#3E3E54"/>
<path d="M1199.43 498.68C1200.55 499.835 1201.48 501.248 1202.17 502.838C1202.75 504.725 1202.96 506.753 1202.78 508.757C1202.63 511.854 1202.31 514.933 1201.79 517.971C1201.65 518.906 1201.28 520.056 1200.5 520.104C1200.27 520.086 1200.05 520.012 1199.85 519.886C1199.65 519.761 1199.47 519.586 1199.33 519.373C1198.57 518.452 1197.97 517.355 1197.56 516.148C1197.15 514.941 1196.94 513.646 1196.95 512.34C1197.06 511.341 1197 510.327 1196.78 509.356C1196.22 508.144 1195.3 507.237 1194.21 506.816L1186.85 502.682C1184.82 501.544 1182.61 500.166 1181.86 497.614C1180.68 493.636 1184.61 486.83 1188.17 486.83C1191.72 486.83 1196.97 495.781 1199.43 498.68Z" fill="url(#paint1_linear_66_128)"/>
<path d="M1107.39 505.678C1106.32 507.05 1105.14 508.29 1103.86 509.38C1102.58 510.479 1101.59 512 1100.99 513.765C1100.71 514.654 1100.68 515.63 1100.89 516.544C1101.11 517.458 1101.56 518.262 1102.18 518.834C1104.1 520.272 1106.49 518.426 1108.21 516.665L1119.48 505.174C1120.65 504.17 1121.59 502.822 1122.22 501.256C1122.93 499.016 1122.3 496.463 1121.47 494.319C1120.85 492.468 1119.92 490.792 1118.75 489.394C1110.77 480.587 1110.4 501.304 1107.39 505.678Z" fill="url(#paint2_linear_66_128)"/>
<path d="M985.708 399.626C975.807 434.889 961.884 468.234 948.001 501.472C947.019 503.785 945.97 506.265 944.076 507.463C942.182 508.661 939.366 508.146 938.689 505.69C938.493 504.681 938.493 503.631 938.689 502.622C940.652 487.501 944.831 472.859 946.009 457.618C946.431 452.119 946.48 446.415 948.295 441.347C950.591 434.937 955.438 430.3 957.695 423.865C959.167 419.66 959.422 414.987 959.873 410.434C960.487 404.172 961.514 397.981 962.944 391.921C972.169 392.67 981.245 395.139 989.858 399.242" fill="url(#paint3_linear_66_128)"/>
<path d="M1020.61 392.724C1027.15 429.125 1029.44 466.449 1031.71 503.617C1031.86 506.205 1031.99 508.973 1030.95 511.225C1029.91 513.478 1027.21 514.82 1025.59 513.13C1024.99 512.403 1024.54 511.512 1024.27 510.53C1019.48 496.392 1016.85 481.199 1011.38 467.395C1009.41 462.423 1007.01 457.522 1006.4 452.035C1005.64 445.109 1007.8 438.064 1006.99 431.15C1006.46 426.609 1004.68 422.451 1003.13 418.282C1001 412.537 999.247 406.595 997.884 400.513C1006.09 395.318 1014.89 391.681 1023.99 389.729" fill="url(#paint4_linear_66_128)"/>
<path d="M1018.97 283.593C1021.97 291.465 1025 299.397 1029.17 306.443C1033.34 313.488 1038.77 319.623 1045.39 322.846C1051.41 325.745 1058.35 326.177 1063.5 330.97C1064.02 331.401 1064.45 332.002 1064.71 332.707C1064.91 333.657 1064.82 334.663 1064.45 335.535C1061.5 344.305 1051.35 347.972 1044.97 342.556C1043.52 341.358 1042.28 339.74 1040.82 338.53C1038.83 337.133 1036.75 335.931 1034.6 334.936C1030.18 332.443 1026.4 328.573 1022.68 324.751C1018.96 320.929 1015.29 317.035 1013.85 311.571C1012.19 305.208 1007.73 298.726 1008.39 292.1C1008.78 288.242 1009.52 284.132 1009.08 280.286C1008.76 277.446 1009.43 269.874 1010.88 267.465C1012.86 271.527 1017.28 279.244 1018.97 283.593Z" fill="url(#paint5_linear_66_128)"/>
<path d="M1015.57 203.003C1015.82 205.758 1015.63 208.546 1015.01 211.21C1014.35 213.882 1012.91 216.162 1010.96 217.609C1009.82 218.32 1008.57 218.735 1007.29 218.83C1006.01 218.925 1004.73 218.697 1003.53 218.16C1003.03 217.863 1002.46 217.791 1001.92 217.956C1001.55 218.193 1001.25 218.578 1001.08 219.047C999.935 221.599 999.925 224.666 999.12 227.434C998.885 228.213 999.513 234.887 998.973 235.39C998.434 235.893 997.011 230.094 996.51 230.226C994.98 230.615 993.4 230.615 991.869 230.226C991.328 230.126 990.814 229.871 990.368 229.483C989.995 229.135 984.569 233.724 984.334 233.221C981.302 226.727 987.336 213.619 987.15 206.13C987.022 200.906 986.434 195.179 988.877 190.889C990.565 187.942 993.381 186.3 996.157 185.138C998.61 184.032 1001.2 183.433 1003.81 183.365C1007.6 183.365 1010.68 184.73 1012.37 188.912C1014.15 193.32 1015.24 198.101 1015.57 203.003V203.003Z" fill="url(#paint6_linear_66_128)"/>
<path d="M1011.6 179.351C1012.9 182.466 1012.91 186.54 1011.05 189.224C1010.26 190.278 1009.32 191.136 1008.27 191.752C1006.1 193.138 1003.74 194.024 1001.31 194.364C1000.62 194.37 999.946 194.588 999.346 194.999C998.835 195.514 998.454 196.196 998.247 196.964C997.531 199.145 997.098 201.45 996.962 203.794C996.304 204.249 995.48 203.602 995.049 202.847C994.617 202.092 994.303 201.158 993.636 200.714C992.478 199.912 990.957 201.277 990.692 202.871C990.61 204.512 991.061 206.127 991.948 207.364C992.762 208.73 993.783 210.288 993.41 211.917C993.077 212.92 992.484 213.762 991.722 214.314L987.395 218.304C987.217 218.561 986.994 218.767 986.743 218.905C986.491 219.043 986.217 219.111 985.941 219.103C985.666 219.095 985.395 219.011 985.149 218.859C984.903 218.706 984.688 218.488 984.52 218.22C982.504 216.316 980.682 214.124 979.094 211.69C976.625 207.373 975.435 202.158 975.719 196.904C975.918 192.685 976.885 188.574 978.55 184.87C980.216 181.166 982.537 177.962 985.345 175.492C993.096 168.807 1006.64 167.285 1011.6 179.351Z" fill="#3E3E54"/>
<path d="M976.622 158.957C974.592 158.62 972.526 159.045 970.7 160.178C968.873 161.31 967.372 163.095 966.398 165.296C965.565 167.496 965.136 169.893 965.142 172.317C965.083 173.78 965.199 175.245 965.485 176.667C966.181 179.289 967.454 181.627 969.165 183.424C970.033 184.461 971.026 185.329 972.108 186.001C974.505 187.176 977.139 187.422 979.654 186.707C980.847 186.497 982.011 186.094 983.117 185.509C984.294 184.821 985.328 183.817 986.141 182.572C986.955 181.327 987.528 179.874 987.817 178.32C987.98 177.445 987.98 176.536 987.817 175.66C987.656 174.994 987.435 174.351 987.16 173.743C985.845 170.628 985.354 166.985 983.608 164.158C981.925 161.377 979.417 159.51 976.622 158.957V158.957Z" fill="#3E3E54"/>
<path d="M971.657 316.124C967.35 311.271 967.634 308.18 967.036 301.051C966.482 294.414 966.981 287.71 968.507 281.305C970.931 271.12 965.917 262.134 968.223 251.853C969.636 245.587 978.26 212.612 999.699 232.682C1002.64 235.426 1003.71 240.255 1005.96 243.837C1008.53 247.923 1011.93 251.218 1014.11 255.627C1015.56 258.722 1016.37 262.203 1016.48 265.766C1016.58 269.33 1015.96 272.871 1014.69 276.08C1013.44 279.28 1011.53 281.724 1010.42 285.031C1009.16 289.22 1008.6 293.679 1008.79 298.139C1008.86 304.178 1009.15 310.209 1009.65 316.232C1009.97 320.138 1011.98 325.242 1009.88 328.681C1007.78 332.12 1001.65 332.923 998.532 333.534C990.682 335.079 981.969 334.121 975.631 327.71C972.815 324.871 970.529 320.342 971.657 316.1" fill="#FC68EE"/>
<path d="M986.09 290.986C985.619 298.247 986.983 305.472 987.248 312.745C987.513 320.018 986.64 327.627 985.767 335.007L983.726 352.213C983.699 352.588 983.609 352.951 983.461 353.28C982.843 354.478 981.361 353.735 980.517 352.789C976.033 347.553 976.308 338.938 975.209 331.473C974.002 323.289 970.843 315.741 969.018 307.725C966.682 297.743 966.712 287.156 969.106 277.195C970.62 271.621 972.627 266.265 975.091 261.223C977.456 256.119 980.115 250.978 984.089 247.683C986.875 245.359 993.901 233.137 996.844 236.564C999.513 239.679 996.324 255.112 995.284 258.515C992.076 269.227 986.846 279.352 986.09 290.986Z" fill="url(#paint7_linear_66_128)"/>
<path d="M1026.6 396.81C1026.74 398.196 1026.45 399.593 1025.78 400.731C1025.12 401.869 1024.14 402.667 1023.02 402.969C1022.53 403.232 1022.04 403.472 1021.5 403.712C1015.4 406.527 1007 408.037 1000.85 408.768C999.868 409.011 998.85 408.838 997.963 408.277C997.424 407.757 996.991 407.093 996.697 406.336C995.951 404.754 995.294 400.752 994.607 397.349C994.602 397.326 994.602 397.301 994.607 397.277C994.479 396.642 994.352 396.079 994.224 395.468C994.028 394.478 993.742 393.517 993.371 392.604C993.425 393.029 993.425 393.462 993.371 393.886C993.165 397.289 991.536 405.245 990.515 406.132C989.26 407.093 987.833 407.669 986.355 407.809C978.455 409.252 970.383 407.604 963.297 403.101C962.265 402.426 961.263 401.686 960.295 400.884C959.521 400.342 958.889 399.545 958.47 398.583C958.422 398.414 958.402 398.235 958.411 398.056C958.342 395.66 959.451 387.368 959.569 386.35C961.531 369.575 963.494 352.801 966.8 336.421C967.408 333.108 968.201 329.849 969.175 326.668C969.302 326.273 969.43 325.877 969.567 325.47C970.018 323.861 970.822 322.435 971.893 321.348C973.472 319.97 975.582 320.066 977.515 320.222L996.51 321.696C997.672 321.762 998.836 321.726 999.994 321.588C1001.81 321.326 1003.64 321.194 1005.47 321.192C1007.9 321.3 1009.39 323.241 1010.94 325.59C1014.18 330.382 1015.92 336.493 1017.41 342.364C1021.38 357.857 1027.02 380.563 1026.6 396.81Z" fill="white"/>
<path d="M944.459 328.357C943.006 331.353 941.319 334.169 940.063 337.284C937.732 343.119 937.026 349.725 938.051 356.096C938.581 359.343 939.67 362.662 941.868 364.603C944.066 366.544 947.569 366.508 949.158 363.824C951.405 360.026 948.884 353.567 951.817 350.56C951.817 351.758 953.495 352.082 954.162 351.123C954.714 350.054 954.897 348.762 954.673 347.528C954.369 343.694 954.565 339.956 954.261 336.122C956.998 331.053 959.765 325.913 961.335 320.162C963.297 312.973 963.297 305.137 966.182 298.475C968.272 293.586 971.677 289.788 974.816 285.822C982.516 276.047 988.818 264.763 993.459 252.44C995.186 247.839 996.707 242.998 996.883 237.942C997.04 233.449 991.143 230.645 987.454 230.813C983.765 230.981 980.36 233.461 977.799 236.708C975.346 240.076 973.256 243.812 971.579 247.827C966.208 259.442 960.838 271.052 955.467 282.658C954.398 285.031 948.324 320.389 944.459 328.357Z" fill="url(#paint8_linear_66_128)"/>
<path d="M1024.1 527.101C1024.19 527.735 1024.44 528.318 1024.82 528.767C1025.3 529.126 1025.87 529.281 1026.43 529.21C1034.7 529.21 1042.96 528.791 1051.2 527.952C1052.18 527.856 1053.39 527.449 1053.48 526.274C1053.48 525.856 1053.4 525.443 1053.23 525.076C1051.53 520.715 1047.9 518.043 1044.4 515.682C1041.13 513.438 1037.81 511.257 1034.42 509.14C1033.84 508.674 1033.16 508.428 1032.46 508.433C1031.88 508.571 1031.33 508.857 1030.84 509.272C1028.58 510.818 1025.09 510.47 1023.87 513.586C1022.47 517.3 1023.3 523.327 1024.1 527.101Z" fill="#3E3E54"/>
<path d="M933.891 506.073C932.91 507.343 931.929 508.769 931.87 510.494C931.944 511.927 932.368 513.3 933.087 514.436C934.799 517.687 936.666 520.812 938.679 523.794C939.635 525.416 940.879 526.752 942.32 527.7C943.323 528.198 944.381 528.513 945.459 528.635C948.099 529.054 950.758 529.33 953.417 529.426C954.21 529.553 955.015 529.35 955.703 528.851C956.802 527.796 956.498 525.663 955.86 524.142C955.075 522.265 953.955 520.627 952.583 519.349C951.942 518.844 951.353 518.249 950.827 517.576C950.251 516.592 949.847 515.475 949.639 514.293C948.912 511.343 948.03 508.454 947 505.642C946.932 505.287 946.759 504.976 946.514 504.768C946.27 504.56 945.971 504.47 945.675 504.515C943.183 504.396 941.27 503.209 938.954 502.383C936.884 501.664 935.186 504.36 933.891 506.073Z" fill="#3E3E54"/>
<path d="M1201.47 461.452C1201.05 463.37 1199.71 464.747 1198.46 465.994C1197.17 467.447 1195.67 468.597 1194.04 469.384C1193.15 469.559 1192.33 470.046 1191.66 470.786C1191.38 471.286 1191.2 471.862 1191.14 472.464C1190.16 479.21 1192.79 486.495 1190.7 492.833C1189.67 495.541 1187.24 497.015 1184.92 497.961C1179.36 500.25 1173.43 500.741 1167.56 501.017C1152.5 501.719 1137.42 501.115 1122.43 499.207C1121.05 499.122 1119.7 498.77 1118.41 498.165C1115.13 496.368 1113.61 491.683 1113.14 487.321C1112.97 485.656 1112.85 483.823 1111.91 482.6C1109.47 479.449 1106.27 482.6 1103.75 483.475C1099.95 484.615 1095.94 484.014 1092.47 481.786C1088.5 479.174 1085.6 473.83 1085.94 468.318C1085.94 467.808 1086.05 467.308 1086.26 466.868C1086.52 466.505 1086.86 466.248 1087.24 466.132C1087.62 466.017 1088.02 466.048 1088.39 466.221C1089.11 466.598 1089.79 467.09 1090.41 467.683C1094.71 471.182 1100.36 470.307 1105.46 469.313C1114.71 467.491 1123.52 465.011 1132.93 464.436L1154.58 463.106C1159.55 462.806 1166.94 464.076 1169.81 457.654C1171.02 454.934 1169.12 452.035 1169.66 449.003C1170.16 446.214 1170.93 443.508 1171.96 440.939C1172.86 438.675 1173.7 436.027 1175.43 434.529C1175.78 434.23 1178.81 431.773 1180.67 434.385C1180.67 434.385 1180.67 434.517 1180.67 434.649C1180.57 435.512 1179.75 438.076 1179.69 439.442C1179.6 440.4 1178.81 447.11 1180.34 445.78C1180.44 445.686 1180.53 445.568 1180.59 445.433C1180.66 445.287 1180.72 445.135 1180.77 444.977C1181.19 443.779 1181.47 442.437 1181.91 441.203C1182.98 438.132 1184.88 435.597 1187.28 434.014C1187.66 433.705 1188.11 433.562 1188.57 433.606C1188.8 433.689 1189.01 433.843 1189.18 434.052C1189.36 434.261 1189.48 434.52 1189.55 434.805C1189.69 435.375 1189.72 435.98 1189.63 436.566C1189.38 437.928 1189.06 439.266 1188.65 440.568C1188.43 441.376 1188.27 442.206 1188.18 443.048C1188.01 444.364 1188.23 445.71 1188.79 446.846C1188.97 447.212 1189.17 447.557 1189.4 447.877C1190.23 449.023 1191.23 449.963 1192.35 450.645C1194.42 451.951 1196.71 452.718 1198.63 454.323C1200.54 455.929 1202.11 458.721 1201.47 461.452Z" fill="#3E3E54"/>
<path d="M1173.44 515.958C1171.62 518.642 1169.73 520.691 1167.91 523.387C1167.3 524.285 1164.2 525.148 1163.32 525.651C1162.9 525.937 1162.41 526.05 1161.93 525.975C1161.45 525.899 1161 525.639 1160.65 525.232C1160.38 524.78 1160.23 524.24 1160.21 523.681C1160.19 523.122 1160.31 522.569 1160.56 522.093C1161.05 521.149 1161.67 520.317 1162.4 519.636C1165.19 516.617 1167.71 512.555 1167.48 508.014C1167.33 505.102 1166.07 502.43 1165.81 499.531C1165.17 492.498 1177.8 481.498 1182.14 490.149C1186.48 498.8 1177.51 509.871 1173.44 515.958Z" fill="#3E3E54"/>
<path d="M1138.62 512.483C1140.62 515.622 1143.05 518.324 1145.79 520.475C1146.31 520.829 1146.72 521.392 1146.95 522.069C1147.02 522.557 1146.95 523.062 1146.76 523.498C1146.56 523.934 1146.25 524.276 1145.88 524.465C1145.13 524.818 1144.32 524.957 1143.52 524.873C1141.56 524.873 1139.41 524.765 1137.7 523.495C1136.99 522.928 1136.33 522.261 1135.74 521.506C1130.34 514.988 1125.08 508.282 1119.96 501.388C1118.67 499.639 1117.31 497.71 1117.13 495.397C1116.85 491.803 1119.54 488.723 1122.43 488.1C1125.31 487.477 1128.23 488.735 1130.86 490.305C1134.93 492.701 1133.95 495.457 1134.63 499.89C1135.2 504.39 1136.56 508.687 1138.62 512.483V512.483Z" fill="#3E3E54"/>
<path d="M1198.16 486.183C1198.03 486.396 1197.86 486.568 1197.66 486.686C1197.19 486.839 1196.69 486.87 1196.2 486.777C1195.72 486.684 1195.25 486.47 1194.84 486.147C1184.2 479.509 1175.1 469.636 1164.42 463.058C1162.85 462.087 1161.1 461.009 1160.5 458.996C1160.4 458.701 1160.33 458.396 1160.28 458.085V458.085C1159.68 454.491 1163.55 454.97 1165.28 456.216C1168.58 458.613 1171.78 461.177 1175.03 463.645L1193.67 477.892C1195.69 479.425 1197.89 481.27 1198.39 484.122C1198.47 484.466 1198.49 484.827 1198.45 485.182C1198.42 485.536 1198.32 485.877 1198.16 486.183V486.183Z" fill="#FC68EE"/>
<path d="M1201.01 486.85C1200.53 487.002 1200.03 487.033 1199.55 486.941C1199.06 486.848 1198.6 486.633 1198.18 486.311C1187.55 479.673 1178.44 469.799 1167.76 463.221C1166.19 462.251 1164.45 461.172 1163.84 459.16C1163.75 458.864 1163.67 458.56 1163.62 458.249C1164.74 457.53 1166.74 458.021 1167.86 458.824C1171.15 461.22 1174.36 463.785 1177.6 466.253L1196.24 480.499C1198.27 482.045 1200.47 483.878 1200.97 486.73C1201 486.766 1201 486.814 1201.01 486.85Z" fill="url(#paint9_linear_66_128)"/>
<path d="M1163.6 457.942C1163.6 457.942 1086.08 397.074 1064.42 335.535C1064.42 335.535 1062.51 330.179 1056.3 333.054" stroke="#3E3E54" stroke-width="1.60546" stroke-miterlimit="10" stroke-linecap="round"/>
<path d="M1044.28 340.471C1044.28 340.471 1040.97 343.167 1040.42 345.192" stroke="#3E3E54" stroke-width="1.60546" stroke-miterlimit="10" stroke-linecap="round"/>
<path d="M1202.09 453.089C1202.53 453.03 1202.98 453.157 1203.35 453.448C1203.5 453.618 1203.62 453.823 1203.69 454.05C1203.77 454.276 1203.81 454.521 1203.81 454.767C1203.8 455.401 1203.7 456.028 1203.5 456.612C1203.29 457.196 1203 457.725 1202.63 458.169C1202.27 458.684 1201.77 459.017 1201.23 459.104C1200.87 459.071 1200.51 458.948 1200.2 458.741C1199.88 458.535 1199.6 458.251 1199.37 457.906C1198.77 457.193 1198.2 456.441 1197.66 455.653C1196.98 454.635 1196.33 453.257 1197.81 453.041C1199.24 452.961 1200.66 452.977 1202.09 453.089V453.089Z" fill="#3E3E54"/>
<path d="M1202.09 453.089C1202.53 453.03 1202.98 453.157 1203.35 453.448C1203.5 453.618 1203.62 453.823 1203.69 454.05C1203.77 454.276 1203.81 454.521 1203.81 454.767C1203.8 455.401 1203.7 456.028 1203.5 456.612C1203.29 457.196 1203 457.725 1202.63 458.169C1202.27 458.684 1201.77 459.017 1201.23 459.104C1200.87 459.071 1200.51 458.948 1200.2 458.741C1199.88 458.535 1199.6 458.251 1199.37 457.906C1198.77 457.193 1198.2 456.441 1197.66 455.653C1196.98 454.635 1196.33 453.257 1197.81 453.041C1199.24 452.961 1200.66 452.977 1202.09 453.089V453.089Z" fill="url(#paint10_linear_66_128)"/>
<path d="M1189.44 447.829C1188.65 446.905 1187.63 446.335 1186.55 446.211C1185.44 446.034 1184.33 445.994 1183.22 446.092C1183.03 446.092 1182.81 446.092 1182.74 445.852C1182.7 445.721 1182.7 445.575 1182.74 445.445C1183.25 443.519 1183.9 441.657 1184.7 439.885C1185.51 438.106 1186.71 436.646 1188.18 435.679C1188.27 435.602 1188.38 435.549 1188.5 435.524C1188.61 435.5 1188.73 435.503 1188.84 435.536C1189.21 435.703 1189.25 436.302 1189.19 436.734C1189 437.71 1188.78 438.674 1188.51 439.621C1188.26 440.709 1188.16 441.838 1188.21 442.964C1188.05 444.28 1188.26 445.626 1188.83 446.763C1189.01 447.14 1189.21 447.497 1189.44 447.829V447.829Z" fill="url(#paint11_linear_66_128)"/>
<path d="M1180.31 445.768C1180.41 445.674 1180.5 445.556 1180.56 445.421V445.756C1180.56 446.02 1180.48 446.391 1180.25 446.499C1180.01 446.607 1179.96 446.355 1179.77 446.307C1179.16 446.311 1178.58 446.598 1178.14 447.11C1176.96 448.086 1175.69 448.89 1174.36 449.507C1173.82 446.211 1174.75 442.821 1175.93 439.789C1176.36 438.554 1176.95 437.409 1177.68 436.398C1178.41 435.375 1179.44 434.746 1180.55 434.649H1180.71C1180.61 435.512 1179.79 438.076 1179.73 439.442C1179.57 440.388 1178.79 447.098 1180.31 445.768Z" fill="url(#paint12_linear_66_128)"/>
<path d="M1183.79 455.426C1184.27 455.426 1184.66 454.948 1184.66 454.359C1184.66 453.77 1184.27 453.293 1183.79 453.293C1183.31 453.293 1182.92 453.77 1182.92 454.359C1182.92 454.948 1183.31 455.426 1183.79 455.426Z" fill="url(#paint13_linear_66_128)"/>
<path d="M994.596 397.337C994.469 396.702 994.342 396.139 994.215 395.528C994.396 396.112 994.524 396.719 994.596 397.337Z" fill="url(#paint14_linear_66_128)"/>
<path d="M1026.6 396.81C1026.74 398.196 1026.45 399.593 1025.78 400.731C1025.12 401.869 1024.14 402.667 1023.02 402.969C1022.53 403.232 1022.04 403.472 1021.5 403.712L1021.38 403.58C1020.65 402.464 1020.16 401.142 1019.95 399.734C1015.8 379.564 1010.58 359.744 1004.32 340.399C1002.92 336.026 997.07 326.596 999.974 321.576C1001.79 321.314 1003.62 321.182 1005.45 321.18C1007.88 321.288 1009.37 323.229 1010.92 325.578C1014.16 330.37 1015.9 336.481 1017.39 342.352C1021.38 357.857 1027.02 380.563 1026.6 396.81Z" fill="url(#paint15_linear_66_128)"/>
<path d="M0 525.5L113.833 550.114C227.667 574.359 455.333 624.141 683 618.886C910.667 614 1138.33 555 1252.17 525.5L1366 496V673H1252.17C1138.33 673 910.667 673 683 673C455.333 673 227.667 673 113.833 673H0V525.5Z" fill="white"/>
<defs>
<linearGradient id="paint0_linear_66_128" x1="-1.09126e-05" y1="284.779" x2="1366" y2="284.779" gradientUnits="userSpaceOnUse">
<stop stop-color="#EE9CA7"/>
<stop offset="1" stop-color="#FFDDE1"/>
</linearGradient>
<linearGradient id="paint1_linear_66_128" x1="1203.38" y1="515.047" x2="1184.6" y2="498.566" gradientUnits="userSpaceOnUse">
<stop stop-opacity="0"/>
<stop offset="0.99"/>
</linearGradient>
<linearGradient id="paint2_linear_66_128" x1="7577.31" y1="11325.5" x2="7954.51" y2="11095" gradientUnits="userSpaceOnUse">
<stop stop-opacity="0"/>
<stop offset="0.99"/>
</linearGradient>
<linearGradient id="paint3_linear_66_128" x1="938.571" y1="449.998" x2="989.878" y2="449.998" gradientUnits="userSpaceOnUse">
<stop stop-color="#E5C5D5"/>
<stop offset="0.42" stop-color="#EAD4D1"/>
<stop offset="1" stop-color="#F0E9CB"/>
</linearGradient>
<linearGradient id="paint4_linear_66_128" x1="7427.34" y1="36205.5" x2="8600.53" y2="36205.5" gradientUnits="userSpaceOnUse">
<stop stop-color="#E5C5D5"/>
<stop offset="0.42" stop-color="#EAD4D1"/>
<stop offset="1" stop-color="#F0E9CB"/>
</linearGradient>
<linearGradient id="paint5_linear_66_128" x1="12313.2" y1="13230.9" x2="15565.8" y2="13230.9" gradientUnits="userSpaceOnUse">
<stop stop-color="#E5C5D5"/>
<stop offset="0.42" stop-color="#EAD4D1"/>
<stop offset="1" stop-color="#F0E9CB"/>
</linearGradient>
<linearGradient id="paint6_linear_66_128" x1="6613.07" y1="4666.46" x2="7669.24" y2="4666.46" gradientUnits="userSpaceOnUse">
<stop stop-color="#E5C5D5"/>
<stop offset="0.42" stop-color="#EAD4D1"/>
<stop offset="1" stop-color="#F0E9CB"/>
</linearGradient>
<linearGradient id="paint7_linear_66_128" x1="5449.91" y1="14252.9" x2="11100.4" y2="15929.1" gradientUnits="userSpaceOnUse">
<stop stop-opacity="0"/>
<stop offset="0.99"/>
</linearGradient>
<linearGradient id="paint8_linear_66_128" x1="8530.7" y1="21911.1" x2="12115.6" y2="21911.1" gradientUnits="userSpaceOnUse">
<stop stop-color="#E5C5D5"/>
<stop offset="0.42" stop-color="#EAD4D1"/>
<stop offset="1" stop-color="#F0E9CB"/>
</linearGradient>
<linearGradient id="paint9_linear_66_128" x1="14435" y1="9347.82" x2="15859.7" y2="9347.82" gradientUnits="userSpaceOnUse">
<stop stop-opacity="0"/>
<stop offset="0.99"/>
</linearGradient>
<linearGradient id="paint10_linear_66_128" x1="3954.13" y1="2205.74" x2="3902.69" y2="2268.15" gradientUnits="userSpaceOnUse">
<stop stop-opacity="0"/>
<stop offset="0.99"/>
</linearGradient>
<linearGradient id="paint11_linear_66_128" x1="3802.23" y1="3847.88" x2="3718.45" y2="3876.82" gradientUnits="userSpaceOnUse">
<stop stop-opacity="0"/>
<stop offset="0.99"/>
</linearGradient>
<linearGradient id="paint12_linear_66_128" x1="3641.58" y1="4416.06" x2="3502.42" y2="4548.8" gradientUnits="userSpaceOnUse">
<stop stop-opacity="0"/>
<stop offset="0.99"/>
</linearGradient>
<linearGradient id="paint13_linear_66_128" x1="1751.76" y1="1061.77" x2="1747.1" y2="1068.35" gradientUnits="userSpaceOnUse">
<stop stop-opacity="0"/>
<stop offset="0.99"/>
</linearGradient>
<linearGradient id="paint14_linear_66_128" x1="1065.15" y1="833.725" x2="1065.3" y2="833.725" gradientUnits="userSpaceOnUse">
<stop stop-opacity="0"/>
<stop offset="0.99"/>
</linearGradient>
<linearGradient id="paint15_linear_66_128" x1="7157.3" y1="17353.2" x2="4831.49" y2="17627.3" gradientUnits="userSpaceOnUse">
<stop stop-opacity="0"/>
<stop offset="0.99"/>
</linearGradient>
</defs>
</svg>