<svg width="637" height="388" viewBox="0 0 637 388" fill="none" xmlns="http://www.w3.org/2000/svg">
<path d="M0.950142 0H637V269.894C614.064 336.995 541.292 413.539 504.19 379.74C462.21 341.498 567.143 230.09 504.19 213.728C439.778 196.987 403.934 359.679 342.964 336.995C284.409 315.209 446.139 187.563 392.209 160.048C339.677 133.246 283.074 302.556 237.055 269.894C187.329 234.6 333.294 79.3486 268.086 62.6273C216.658 49.4397 209.165 209.105 158.803 193.846C99.551 175.895 175.807 93.8619 127.772 62.6273C75.3152 28.5176 101.836 157.422 48.8456 123.764C-10.8666 85.835 0.950142 0 0.950142 0Z" fill="white"/>
</svg>
